<?xml version="1.0" encoding="UTF-8"?>
<!DOCTYPE svg PUBLIC "-//W3C//DTD SVG 1.1//EN" "http://www.w3.org/Graphics/SVG/1.1/DTD/svg11.dtd">
<!-- Creator: CorelDRAW 2021 (64-Bit) -->
<svg xmlns="http://www.w3.org/2000/svg" xml:space="preserve" width="279.4mm" height="215.9mm" version="1.1" style="shape-rendering:geometricPrecision; text-rendering:geometricPrecision; image-rendering:optimizeQuality; fill-rule:evenodd; clip-rule:evenodd"
viewBox="0 0 27940 21590"
 xmlns:xlink="http://www.w3.org/1999/xlink"
 xmlns:xodm="http://www.corel.com/coreldraw/odm/2003">
 <defs>
  <style type="text/css">
   <![CDATA[
    .fil5 {fill:none}
    .fil3 {fill:#1A6396}
    .fil4 {fill:#1A6396;fill-rule:nonzero}
    .fil0 {fill:#E35932;fill-rule:nonzero}
    .fil2 {fill:white;fill-rule:nonzero}
    .fil1 {fill:url(#id0);fill-rule:nonzero}
   ]]>
  </style>
  <linearGradient id="id0" gradientUnits="userSpaceOnUse" x1="13782.21" y1="10044.36" x2="11664.38" y2="10044.36">
   <stop offset="0" style="stop-opacity:1; stop-color:#FEC133"/>
   <stop offset="0.266667" style="stop-opacity:1; stop-color:#F29333"/>
   <stop offset="0.760784" style="stop-opacity:1; stop-color:#E66432"/>
   <stop offset="1" style="stop-opacity:1; stop-color:#E35932"/>
  </linearGradient>
 </defs>
 <g id="Capa_x0020_1">
  <metadata id="CorelCorpID_0Corel-Layer"/>
  <g id="_2197639537488">
   <path class="fil0" d="M13790.96 10208.74l4580.95 -299.97c1.21,-0.06 2.28,0.55 2.95,1.53l16.8 22.27c0.15,0.19 0.28,0.38 0.38,0.59 0.61,1.13 0.9,2.41 0.88,3.68 0,1.41 -0.4,2.83 -1.09,4.05 -0.1,0.17 -0.21,0.31 -0.33,0.46l-16.76 23.97c-0.74,1.04 -1.78,1.61 -2.83,1.67l0 0.02 -4580.95 299.97c-1.57,0.08 -3.06,-0.17 -4.44,-0.73 -1.45,-0.59 -2.72,-1.47 -3.79,-2.6 -1.11,-1.18 -1.99,-2.56 -2.6,-4.13 -0.59,-1.53 -0.9,-3.23 -0.9,-5.01l0 -31.99c0,-1.78 0.31,-3.52 0.9,-5.11 0.61,-1.63 1.49,-3.12 2.6,-4.42 1.07,-1.24 2.34,-2.26 3.79,-3.02 1.38,-0.71 2.87,-1.15 4.44,-1.23z"/>
   <path class="fil0" d="M9559.27 11968.69l3283.75 -216.12c1.21,-0.07 2.28,0.54 2.96,1.54l16.8 22.25c0.13,0.19 0.26,0.39 0.37,0.6 0.61,1.13 0.89,2.4 0.89,3.68 -0.02,1.41 -0.4,2.83 -1.11,4.04 -0.09,0.17 -0.2,0.33 -0.31,0.47l-16.77 23.97c-0.73,1.04 -1.78,1.62 -2.83,1.67l0 0.03 -3283.75 216.11c-1.56,0.09 -3.06,-0.18 -4.44,-0.74 -1.44,-0.58 -2.72,-1.47 -3.8,-2.6 -1.1,-1.16 -1.98,-2.56 -2.58,-4.12 -0.59,-1.54 -0.91,-3.23 -0.91,-5.01l0 -32c0,-1.78 0.32,-3.51 0.91,-5.11 0.6,-1.63 1.48,-3.13 2.58,-4.41 1.08,-1.25 2.36,-2.28 3.8,-3.02 1.38,-0.71 2.88,-1.15 4.44,-1.23z"/>
   <path class="fil1" d="M11831.87 9576.13l1650.2 -116.72c17.25,-1.22 32.57,7.17 42.2,21.23l239.95 314.24c2,2.65 3.79,5.45 5.31,8.41 8.71,15.96 12.81,34.07 12.68,52.4 -0.2,20.23 -5.59,40.46 -15.73,57.94 -1.38,2.43 -2.92,4.69 -4.54,6.83l-239.56 346.08c-10.36,15.03 -25.29,23.46 -40.31,24.52l0 0.26 -1483.61 104.95c-0.3,0.88 -1.93,1.01 -4.95,0.35 -166.53,31.17 -276.24,115.81 -329.13,253.93l0 -418.1 0 -0.93 0 -4.98 0 -4.76 0 -4.52 0 -4.3 0 -4.06 0 -3.82 0 -3.6 0 -3.37 0 -3.13 0 -2.9 0 -2.67 0 -2.43 0 -2.21 0 -1.97 0 -1.74 0 -1.51 0 -1.27 0 -1.05 0 -0.81 0 -0.58 0 -0.35 0 -0.11 0 -399.93c0,-25.51 4.64,-50.29 13.04,-73.27 8.56,-23.38 21.19,-44.96 36.9,-63.49 15.36,-18.05 33.74,-33.11 54.18,-43.96 19.79,-10.49 41.18,-17.03 63.37,-18.6z"/>
   <path class="fil2" d="M12230.91 9663.82l0 132.45 -129.13 9.13 0 -132.45 129.13 -9.13zm0.83 187.86l0 58.91c0,22.07 -2.76,39.78 -8.14,52.99 -5.38,13.09 -14.62,24.91 -27.59,35.21 -5.11,4.37 -12.28,10.25 -21.8,17.69 -20.7,16.22 -34.08,27.65 -40.01,33.87 -4,4.69 -6.9,9.87 -8.42,15.77 -1.65,5.91 -2.48,16.73 -2.48,32.32l0 41.25c0,16.97 2.21,28.13 6.62,33.47 4.55,5.34 13.52,7.6 27.32,6.63 13.79,-0.98 23.04,-4.53 27.73,-10.65 4.69,-6.13 7.04,-17.61 7.04,-34.31l0 -46.9 127.48 -9.02 0 17.38c0,66.36 -11.45,112.01 -34.22,136.66 -22.76,24.65 -67.33,39.4 -133.55,44.08 -63.33,4.48 -106.93,-1.82 -130.52,-18.78 -23.59,-16.95 -35.32,-50.34 -35.32,-100.28l0 -63.19c0,-31.73 4,-55.61 11.87,-71.48 8,-15.88 22.76,-31.96 44.29,-48.38 3.72,-2.34 8.96,-6.02 15.72,-10.77 29.39,-20.15 44.02,-41.61 44.02,-64.52l0 -38.76 129.96 -9.19z"/>
   <polygon id="_1" class="fil2" points="12469.32,10247.11 12469.32,10052.71 12345.15,9655.74 12486.7,9645.72 12544.51,9913.16 12598.73,9637.8 12730.9,9628.45 12609.21,10042.82 12609.21,10237.22 "/>
   <path id="_2" class="fil2" d="M13117.63 9953.75l63.46 -4.49 -30.63 -280.95 -32.83 285.44zm-169.01 259.46l89.4 -606.48 223.64 -15.82 91.75 593.67 -143.21 10.13 -16.55 -146.18 -88.58 6.27 -16.55 148.52 -139.9 9.89z"/>
   <path class="fil3" d="M9547.06 11693.15l0 -1036.16 305.84 -20.18c122.91,-8.12 205.81,8.09 248.68,48.84 42.88,40.77 64.31,124.88 64.31,252.3l0 392.57c0,127.42 -21.43,214.34 -64.31,260.77 -42.87,46.4 -125.77,73.55 -248.68,81.68l-305.84 20.18zm370.15 -279.31l0 -524.97c0,-28.35 -4.29,-46.87 -12.63,-55.63 -8.34,-8.73 -25.48,-12.38 -51.68,-10.64l-64.32 4.23 0 666.01 64.32 -4.23c25.72,-1.7 42.88,-7.6 51.45,-17.68 8.57,-10.1 12.86,-29.21 12.86,-57.09zm1342.48 -179.61l0 100.52c0,26.92 5.48,45.63 16.19,56.11 10.73,10.49 28.83,14.79 54.56,13.09 27.86,-1.84 46.67,-8.34 56.46,-19.69 9.76,-11.38 14.77,-31.95 14.77,-61.72l0 -73.37c0,-22.14 -1.45,-38.72 -4.3,-49.25 -2.62,-10.56 -7.39,-19.76 -13.83,-27.68 -15.94,-18.02 -52.39,-31.57 -109.57,-40.18 -26.18,-3.98 -46.44,-7.4 -60.73,-10.75 -67.17,-14.62 -113.13,-38.28 -138.4,-70.9 -24.99,-32.64 -37.63,-85.66 -37.63,-159.26l0 -95.76c0,-92.9 18.11,-158.87 54.08,-198.17 35.97,-39.05 98.38,-61.51 187.21,-67.38l71.46 -4.71c55.75,-3.69 101.48,-1.95 137.46,5.22 35.72,7.16 63.83,20.57 84.3,40.16 16.45,15.12 27.63,35.09 34.32,59.91 6.43,24.58 9.76,64.62 9.76,119.88l0 80.26 -214.13 14.14 0 -64.77c0,-32.64 -4.3,-54.03 -12.87,-64.17 -8.82,-10.17 -26.21,-14.25 -52.9,-12.49 -25.7,1.7 -43.09,7.86 -52.14,18.46 -9.07,10.6 -13.6,29.47 -13.6,57.11l0 66.91c0,50.74 43.37,84.1 130.06,100.29 24.53,5.05 44.08,9.01 58.6,12.34 66.45,14.18 112.19,37.38 136.97,69.07 25.02,31.95 37.4,84.24 37.4,156.9l0 139.59c0,86.69 -20.49,150.22 -61.7,191.28 -41.21,40.83 -108.38,64.34 -201.27,70.45l-64.32 4.26c-102.42,6.76 -172.69,-6 -211.05,-38.47 -38.34,-32.24 -57.64,-95.55 -57.64,-189.64l0 -112.9 222.48 -14.69zm908.74 -102.61l0 -402.08c0,-28.83 -4.78,-47.81 -14.29,-56.94 -9.54,-9.14 -29.06,-12.84 -58.12,-10.94 -29.79,1.97 -49.55,8.3 -59.08,18.69 -9.53,10.39 -14.29,30 -14.29,58.83l0 546.42c0,28.83 4.76,47.81 14.29,56.95 9.53,9.13 29.29,12.82 59.08,10.85 25.96,-1.7 43.83,-6.48 53.82,-14.27 10.02,-8.04 15.72,-21.28 17.16,-39.95l-111.48 -142.71 70.27 -84.92 42.64 60.07zm235.81 94.71l0 34.07c0,35.97 -1.67,64.21 -5.01,85.14 -3.1,20.93 -8.82,40.83 -16.67,59.46l54.55 73.09 -83.13 81.73 -48.12 -65.93c-16.68,12.32 -40.73,21.77 -72.17,28.14 -31.45,6.6 -89.32,12.55 -173.41,18.1 -110.76,7.31 -185.33,-7.06 -223.43,-43.14 -38.11,-36.08 -57.16,-112.71 -57.16,-229.43l0 -479c0,-68.85 4.05,-119.15 12.13,-150.87 8.11,-31.74 22.4,-58.89 42.18,-81.62 21.43,-24.78 49.77,-42.84 84.78,-54.43 35.26,-11.62 93.38,-20.21 174.14,-25.56 80.51,-5.3 138.15,-4.35 172.69,2.66 34.78,7 62.88,21.33 84.33,43.27 19.75,20.13 34.04,45.4 42.15,76.07 8.11,30.65 12.15,80.4 12.15,149.25l0 479zm134.1 -766.78l241.54 -15.94 0 789.16c0,28.8 4.27,47.8 12.61,57.02 8.34,9.24 25.5,13.1 51.71,11.36 25.7,-1.7 42.86,-7.82 51.43,-18.17 8.59,-10.32 12.86,-29.89 12.86,-58.7l0 -789.15 231.55 -15.3 0 701.96c0,81 -4.3,140.6 -12.64,178.54 -8.33,37.94 -22.14,70.79 -41.69,98.03 -20.95,28.53 -49.52,49.48 -85.5,63.06 -35.97,13.55 -90.04,22.6 -161.98,27.36 -73.6,4.86 -127.9,2.95 -163.16,-5.91 -35.49,-8.84 -63.36,-26.06 -83.85,-51.87 -19.06,-23.76 -32.64,-53.82 -40.72,-90.19 -8.11,-36.16 -12.16,-95.91 -12.16,-179.3l0 -701.96zm748.91 986.72l0 -1036.16 455.67 -30.06 0 185.78 -214.15 14.13 0 228.67 200.81 -13.24 0 178.64 -200.81 13.24 0 257.27 234.39 -15.46 0 185.79 -475.91 31.4zm830.35 -666.49l67.16 -4.42c30.03,-1.99 49.78,-8.53 59.57,-19.42 9.76,-10.9 14.77,-30.78 14.77,-59.58l0 -92.67c0,-29.06 -5.01,-48.25 -14.77,-58.09 -9.79,-9.83 -29.54,-13.77 -59.57,-11.78l-67.16 4.42 0 241.54zm0 160.06l0 252.85 -131.93 8.71 -105.61 205.74 -1.13 0.08 0 -1036.16 322.74 -21.31c118.64,-7.81 197.71,2.43 237.01,31.05 39.3,28.62 59.08,84.22 59.08,166.64l0 90.76c0,57.17 -12.63,101.12 -37.88,131.86 -25.01,30.71 -67.16,53 -126.47,67.16 58.59,-1 102.17,14.46 131,46.87 28.83,32.16 43.34,81.69 43.34,148.62l0 117.2c0,82.9 -19.27,140.87 -58.11,173.91 -38.82,33.03 -117.66,53.5 -236.05,61.32l-128.4 8.46 109.67 -137.26 5.45 -6.79 0 -45.26c24.13,-2.66 40.64,-8.92 49.48,-18.77 10.02,-11.14 15,-31.02 15,-60.08l0 -120.05c0,-28.82 -4.98,-48.25 -15.23,-58.3 -10.24,-10.04 -30.02,-13.98 -59.08,-12.05l-72.88 4.8zm825.12 -456.05l-58.84 3.88 0 320.14 58.84 -3.88c31.2,-2.07 52.17,-8.69 62.65,-19.88 10.47,-11.16 15.71,-30.79 15.71,-59.14l0 -171.73c0,-28.83 -5.24,-48.02 -15.71,-57.82 -10.48,-9.79 -31.45,-13.64 -62.65,-11.57zm75.51 586.46c0,-35.74 -6.66,-59.83 -19.78,-72.55 -13.32,-12.69 -38.34,-17.7 -74.56,-15.31l-40.01 2.64 0 355.86 -241.52 15.94 0 -1036.16 251.3 -16.59c149.1,-9.84 247.48,2.47 295.59,36.96 47.89,34.69 71.94,102.91 71.94,204.6l0 118.64c0,60.02 -13.09,106.62 -39.07,139.78 -26.19,32.93 -68.59,56.92 -127.67,71.55 54.78,4.25 95.51,20.15 121.72,47.7 26.21,27.55 39.53,68.15 39.53,121.51l0 271.54 -237.47 15.67 0 -261.78zm622.16 -206.61l109.57 -7.25 -52.88 -485.29 -56.69 492.54zm-291.8 446.58l154.37 -1046.34 386.11 -25.5 158.4 1025.71 -247.25 16.32 -28.58 -252.52 -152.93 10.1 -28.58 256.29 -241.54 15.94zm796.07 -52.54l0 -1036.16 305.84 -20.2c122.91,-8.11 205.81,8.11 248.68,48.86 42.88,40.77 64.31,124.86 64.31,252.28l0 392.57c0,127.42 -21.43,214.36 -64.31,260.79 -42.87,46.4 -125.77,73.55 -248.68,81.66l-305.84 20.2zm370.15 -279.31l0 -524.98c0,-28.34 -4.29,-46.88 -12.63,-55.64 -8.34,-8.71 -25.48,-12.36 -51.68,-10.64l-64.32 4.25 0 666.01 64.32 -4.25c25.72,-1.7 42.88,-7.61 51.45,-17.68 8.57,-10.1 12.86,-29.19 12.86,-57.07zm624.55 -213.67l109.57 -7.23 -52.88 -485.32 -56.69 492.55zm-291.79 446.57l154.36 -1046.34 386.11 -25.5 158.41 1025.71 -247.26 16.32 -28.57 -252.51 -152.94 10.09 -28.58 256.29 -241.53 15.94zm1027.82 -413.7l0 100.52c0,26.92 5.49,45.63 16.19,56.1 10.73,10.48 28.83,14.77 54.56,13.07 27.86,-1.84 46.67,-8.31 56.46,-19.69 9.76,-11.38 14.77,-31.93 14.77,-61.7l0 -73.37c0,-22.14 -1.45,-38.73 -4.3,-49.27 -2.62,-10.56 -7.39,-19.76 -13.83,-27.66 -15.94,-18.01 -52.39,-31.57 -109.57,-40.18 -26.18,-4 -46.44,-7.41 -60.73,-10.77 -67.17,-14.6 -113.13,-38.25 -138.4,-70.89 -24.99,-32.64 -37.62,-85.65 -37.62,-159.25l0 -95.76c0,-92.89 18.1,-158.87 54.07,-198.19 35.97,-39.05 98.38,-61.51 187.21,-67.35l71.46 -4.74c55.75,-3.67 101.48,-1.93 137.46,5.22 35.72,7.18 63.83,20.57 84.3,40.18 16.45,15.11 27.63,35.09 34.32,59.92 6.43,24.55 9.76,64.61 9.76,119.88l0 80.26 -214.13 14.14 0 -64.78c0,-32.64 -4.3,-54.05 -12.87,-64.19 -8.82,-10.14 -26.21,-14.23 -52.9,-12.47 -25.7,1.7 -43.09,7.86 -52.14,18.44 -9.07,10.62 -13.6,29.5 -13.6,57.13l0 66.91c0,50.75 43.37,84.08 130.06,100.27 24.53,5.07 44.08,9.01 58.6,12.34 66.45,14.19 112.19,37.38 136.97,69.1 25.02,31.92 37.4,84.22 37.4,156.87l0 139.59c0,86.7 -20.49,150.24 -61.7,191.3 -41.21,40.81 -108.38,64.32 -201.27,70.46l-64.32 4.23c-102.42,6.77 -172.69,-5.99 -211.05,-38.47 -38.34,-32.24 -57.63,-95.53 -57.63,-189.62l0 -112.9 222.47 -14.68zm-7206.67 577.39l0 -546.43c0,-28.83 -4.29,-47.83 -12.86,-57.03 -8.57,-9.19 -25.48,-13.09 -50.98,-11.41 -25.95,1.71 -43.34,7.87 -51.93,18.2 -8.57,10.33 -12.84,29.92 -12.84,58.75l0 546.42c0,29.31 4.27,48.54 12.84,57.51 8.59,8.95 25.98,12.57 51.93,10.85 25.5,-1.67 42.41,-7.56 50.98,-17.64 8.57,-10.1 12.86,-29.91 12.86,-59.22zm247.26 -50.39c0,71.23 -4.05,122.22 -11.93,153.25 -7.85,31.01 -21.66,57.64 -41.2,79.91 -20.95,24.24 -47.16,41.92 -78.84,53.06 -31.45,11.13 -91.24,19.61 -179.36,25.42 -88.36,5.84 -148.41,5.28 -179.83,-1.7 -31.7,-6.96 -58.14,-21.18 -79.09,-42.66 -19.53,-20.17 -33.35,-45.69 -41.69,-76.59 -8.34,-30.86 -12.61,-80.62 -12.61,-149.46l0 -479.01c0,-68.84 4.04,-119.14 12.13,-150.86 8.1,-31.74 22.39,-58.89 42.17,-81.62 21.43,-24.79 49.78,-42.85 84.79,-54.43 35.26,-11.63 93.37,-20.22 174.13,-25.56 80.52,-5.3 138.15,-4.36 172.7,2.66 34.78,7 62.87,21.33 84.32,43.26 19.76,20.14 34.05,45.4 42.15,76.07 8.11,30.65 12.16,80.41 12.16,149.25l0 479.01z"/>
   <path class="fil4" d="M13189.8 11744.27l0 -57.06c0,-15.99 -2.21,-26.5 -6.5,-31.41 -4.29,-4.92 -13,-6.95 -26.25,-6.07 -13,0.86 -21.45,4.01 -25.74,9.37 -4.15,5.34 -6.23,16.13 -6.23,32.38l0 298.14c0,16.25 2.08,26.77 6.23,31.57 4.29,4.77 12.74,6.82 25.74,5.96 13.25,-0.88 21.96,-4.05 26.25,-9.52 4.29,-5.49 6.5,-16.29 6.5,-32.28l0 -77.33 120.09 -7.93 0 58.62c0,38.21 -1.95,65.76 -5.85,82.92 -4.03,17.15 -10.66,31.89 -20.01,44.21 -9.88,13.12 -22.62,22.67 -38.21,28.64 -15.73,5.98 -44.19,10.33 -85.52,13.05 -48.22,3.19 -80.97,2.88 -98.26,-0.92 -17.15,-3.81 -31.58,-11.57 -43.02,-23.28 -10.65,-11 -18.19,-24.93 -22.74,-41.78 -4.55,-16.86 -6.89,-44 -6.89,-81.69l0 -261.23c0,-37.56 2.21,-65 6.63,-82.31 4.42,-17.32 12.09,-32.13 23,-44.54 11.7,-13.51 27.17,-23.37 46.27,-29.71 19.24,-6.33 50.82,-11.01 95.01,-13.93 37.82,-2.49 65.24,-1.83 82.4,1.96 17.15,3.81 30.67,11.63 40.55,23.46 9.61,11.06 16.5,25.16 20.53,42.31 4.03,17.02 6.11,44.31 6.11,81.61l0 38.86 -120.09 7.93z"/>
   <path id="_1_0" class="fil4" d="M13374.48 11541.02l131.79 -8.7 0 430.58c0,15.73 2.34,26.1 6.88,31.13 4.55,5.03 13.91,7.14 28.21,6.19 14.03,-0.92 23.39,-4.26 28.07,-9.9 4.68,-5.64 7.02,-16.32 7.02,-32.05l0 -430.58 126.33 -8.34 0 383.02c0,44.19 -2.34,76.7 -6.89,97.4 -4.55,20.71 -12.09,38.62 -22.75,53.49 -11.43,15.57 -27.03,27 -46.65,34.4 -19.63,7.41 -49.13,12.35 -88.38,14.94 -40.16,2.65 -69.79,1.61 -89.03,-3.23 -19.36,-4.83 -34.57,-14.23 -45.75,-28.3 -10.39,-12.96 -17.8,-29.36 -22.22,-49.22 -4.42,-19.72 -6.63,-52.32 -6.63,-97.81l0 -383.02z"/>
   <path id="_2_1" class="fil4" d="M13912.68 11837.69l59.78 -3.94 -28.85 -264.79 -30.93 268.73zm-159.21 243.67l84.22 -570.92 210.67 -13.9 86.43 559.65 -134.91 8.91 -15.59 -137.77 -83.44 5.5 -15.6 139.83 -131.78 8.7z"/>
   <polygon id="_3" class="fil4" points="14187.82,12052.69 14187.82,11487.33 14373.41,11475.08 14475.44,11915.31 14467.77,11468.85 14587.08,11460.98 14587.08,12026.34 14402.26,12038.54 14298.42,11586.22 14307.13,12044.82 "/>
   <path id="_4" class="fil4" d="M14669.87 12020.87l0 -565.36 166.88 -11.01c67.06,-4.43 112.29,4.42 135.68,26.66 23.4,22.24 35.09,68.13 35.09,137.66l0 214.19c0,69.53 -11.69,116.96 -35.09,142.28 -23.39,25.33 -68.62,40.14 -135.68,44.57l-166.88 11.01zm201.97 -152.39l0 -286.45c0,-15.47 -2.34,-25.57 -6.89,-30.34 -4.55,-4.77 -13.91,-6.76 -28.2,-5.81l-35.09 2.31 0 363.39 35.09 -2.31c14.03,-0.93 23.39,-4.15 28.07,-9.66 4.68,-5.5 7.02,-15.93 7.02,-31.13z"/>
   <path id="_5" class="fil4" d="M15281.88 11847.26l0 -298.14c0,-15.73 -2.34,-26.1 -7.02,-31.12 -4.68,-5.02 -13.91,-7.14 -27.81,-6.23 -14.17,0.94 -23.66,4.3 -28.34,9.94 -4.67,5.63 -7.01,16.31 -7.01,32.04l0 298.14c0,15.99 2.34,26.49 7.01,31.39 4.68,4.88 14.17,6.85 28.34,5.91 13.9,-0.91 23.13,-4.12 27.81,-9.62 4.68,-5.51 7.02,-16.32 7.02,-32.31zm134.9 -27.49c0,38.86 -2.21,66.69 -6.49,83.61 -4.29,16.91 -11.83,31.45 -22.49,43.59 -11.44,13.23 -25.73,22.88 -43.02,28.96 -17.15,6.08 -49.77,10.7 -97.86,13.87 -48.22,3.19 -80.97,2.88 -98.13,-0.93 -17.28,-3.8 -31.71,-11.56 -43.15,-23.27 -10.65,-11 -18.19,-24.93 -22.74,-41.78 -4.55,-16.86 -6.89,-44 -6.89,-81.56l0 -261.36c0,-37.56 2.21,-65 6.63,-82.31 4.42,-17.32 12.22,-32.14 23,-44.54 11.7,-13.51 27.17,-23.37 46.27,-29.71 19.24,-6.33 50.95,-11.02 95.01,-13.93 43.93,-2.9 75.38,-2.37 94.22,1.44 18.98,3.82 34.31,11.65 46.01,23.62 10.79,10.98 18.59,24.76 23.01,41.5 4.41,16.73 6.62,43.88 6.62,81.44l0 261.36z"/>
   <polygon id="_6" class="fil4" points="15687.25,11953.72 15687.25,11388.36 15819.04,11379.66 15819.04,11843.65 15943.8,11835.42 15943.8,11936.79 "/>
   <polygon id="_7" class="fil4" points="15986.56,11933.96 15986.56,11368.6 16235.19,11352.19 16235.19,11453.57 16118.35,11461.28 16118.35,11586.05 16227.91,11578.82 16227.91,11676.29 16118.35,11683.52 16118.35,11823.89 16246.23,11815.45 16246.23,11916.82 "/>
   <polygon id="_8" class="fil4" points="16556.6,11896.34 16556.6,11432.36 16467.7,11438.22 16467.7,11336.84 16777.28,11316.41 16777.28,11417.79 16688.38,11423.66 16688.38,11887.64 "/>
   <path id="_9" class="fil4" d="M17023.05 11732.33l0 -298.14c0,-15.73 -2.34,-26.1 -7.02,-31.12 -4.68,-5.02 -13.91,-7.14 -27.81,-6.22 -14.17,0.93 -23.66,4.29 -28.34,9.93 -4.67,5.64 -7.01,16.31 -7.01,32.04l0 298.14c0,15.99 2.34,26.5 7.01,31.39 4.68,4.88 14.17,6.85 28.34,5.92 13.9,-0.92 23.13,-4.13 27.81,-9.63 4.68,-5.51 7.02,-16.32 7.02,-32.31zm134.9 -27.49c0,38.86 -2.21,66.69 -6.49,83.61 -4.29,16.92 -11.83,31.45 -22.49,43.6 -11.44,13.22 -25.73,22.87 -43.02,28.96 -17.15,6.07 -49.77,10.69 -97.86,13.87 -48.22,3.18 -80.97,2.87 -98.13,-0.94 -17.28,-3.8 -31.71,-11.55 -43.15,-23.27 -10.65,-11 -18.19,-24.93 -22.74,-41.78 -4.55,-16.86 -6.89,-43.99 -6.89,-81.55l0 -261.36c0,-37.56 2.21,-65.01 6.63,-82.32 4.42,-17.32 12.22,-32.14 23,-44.54 11.7,-13.51 27.17,-23.37 46.27,-29.7 19.24,-6.33 50.95,-11.03 95.01,-13.93 43.93,-2.9 75.38,-2.38 94.22,1.44 18.98,3.81 34.31,11.64 46.01,23.61 10.79,10.98 18.59,24.76 23.01,41.5 4.41,16.73 6.62,43.88 6.62,81.44l0 261.36z"/>
   <path id="_10" class="fil4" d="M17426.86 11464.59l0 -57.06c0,-15.99 -2.21,-26.49 -6.5,-31.41 -4.29,-4.91 -13,-6.94 -26.25,-6.06 -13,0.85 -21.45,4.01 -25.74,9.36 -4.15,5.35 -6.23,16.14 -6.23,32.39l0 298.14c0,16.25 2.08,26.77 6.23,31.56 4.29,4.78 12.74,6.82 25.74,5.97 13.25,-0.88 21.96,-4.05 26.25,-9.53 4.29,-5.48 6.5,-16.29 6.5,-32.28l0 -77.33 120.09 -7.92 0 58.62c0,38.21 -1.95,65.76 -5.85,82.91 -4.03,17.16 -10.66,31.9 -20.01,44.21 -9.88,13.13 -22.62,22.68 -38.21,28.65 -15.73,5.97 -44.19,10.32 -85.52,13.05 -48.22,3.18 -80.97,2.88 -98.26,-0.92 -17.15,-3.81 -31.58,-11.57 -43.02,-23.28 -10.65,-11 -18.19,-24.93 -22.74,-41.78 -4.55,-16.86 -6.89,-44 -6.89,-81.69l0 -261.23c0,-37.56 2.21,-65 6.63,-82.32 4.42,-17.32 12.09,-32.12 23,-44.53 11.7,-13.52 27.17,-23.38 46.27,-29.71 19.24,-6.33 50.82,-11.01 95.01,-13.93 37.82,-2.5 65.24,-1.84 82.4,1.96 17.15,3.81 30.67,11.63 40.55,23.46 9.61,11.06 16.5,25.16 20.53,42.31 4.03,17.01 6.11,44.31 6.11,81.61l0 38.86 -120.09 7.92z"/>
   <path id="_11" class="fil4" d="M17765.16 11583.4l59.78 -3.94 -28.85 -264.79 -30.93 268.73zm-159.21 243.67l84.22 -570.92 210.67 -13.9 86.43 559.65 -134.91 8.91 -15.59 -137.77 -83.44 5.5 -15.6 139.83 -131.78 8.7z"/>
   <path id="_12" class="fil4" d="M18108.14 11616.91l0 -55.24c0,-20.8 2.6,-37.47 7.67,-49.63 5.07,-12.29 13.78,-23.26 25.99,-33.04l6.37 -5.36c27.03,-21.53 43.93,-36.17 51.08,-43.79 4.03,-4.55 6.89,-9.81 8.58,-15.9 1.69,-6.09 2.47,-15.89 2.47,-29.41l0 -38.6c0,-15.72 -2.21,-26.1 -6.63,-31.27 -4.42,-5.17 -13.13,-7.32 -26.13,-6.47 -12.73,0.84 -21.18,4 -25.47,9.62 -4.29,5.61 -6.5,16.41 -6.5,32.39l0 45.1 -120.09 7.93 0 -17.02c0,-62.78 10.79,-105.73 32.23,-128.85 21.45,-23.12 63.43,-36.67 125.81,-40.79 59.79,-3.95 100.73,2.05 122.95,18.13 22.23,16.09 33.27,47.72 33.27,94.64l0 59.26c0,30.15 -3.77,52.89 -11.17,68.19 -7.54,15.18 -21.45,30.4 -41.72,45.38 -3.51,2.57 -8.71,6.16 -15.6,10.91 -27.16,18.17 -40.68,37.77 -40.68,59.08l0 36.66 -122.43 8.08zm0.78 176.96l0 -124.77 121.65 -8.03 0 124.77 -121.65 8.03z"/>
   <polygon class="fil4" points="14163.03,11231.48 13978.35,11462.63 13894.48,11468.17 14010.81,11241.53 "/>
  </g>
  <rect class="fil5" x="9380.72" y="9338.61" width="9178.56" height="2912.78"/>
 </g>
</svg>
