<?xml version="1.0" ?><!DOCTYPE svg  PUBLIC '-//W3C//DTD SVG 1.1//EN'  'http://www.w3.org/Graphics/SVG/1.1/DTD/svg11.dtd'><svg enable-background="new 0 0 48 48" height="48px" id="_x3C_Layer_x3E_" version="1.1" viewBox="0 0 48 48" width="48px" xml:space="preserve" xmlns="http://www.w3.org/2000/svg" xmlns:xlink="http://www.w3.org/1999/xlink"><g id="puzzle_x2C__expansion"><path d="M33.5,46H22c-0.276,0-0.5-0.224-0.5-0.5v-1.055c0-0.178,0.095-0.343,0.249-0.432   C22.845,43.375,23.5,42.249,23.5,41c0-1.074-0.483-2.074-1.325-2.742c-0.842-0.67-1.945-0.909-3.021-0.659   c-1.243,0.289-2.242,1.276-2.545,2.517c-0.383,1.564,0.262,3.094,1.643,3.898c0.154,0.089,0.249,0.254,0.249,0.432V45.5   c0,0.276-0.224,0.5-0.5,0.5H6.5C4.019,46,2,43.981,2,41.5V30c0-0.276,0.224-0.5,0.5-0.5h1.055c0.178,0,0.343,0.095,0.432,0.249   C4.625,30.845,5.751,31.5,7,31.5c1.074,0,2.074-0.483,2.742-1.325c0.669-0.842,0.91-1.943,0.659-3.021   c-0.289-1.243-1.276-2.242-2.517-2.545c-1.564-0.383-3.094,0.262-3.898,1.643C3.897,26.405,3.733,26.5,3.555,26.5H2.5   C2.224,26.5,2,26.276,2,26V15.5C2,13.019,4.019,11,6.5,11h11v-0.278c-1.241-0.833-2-2.234-2-3.722c0-1.381,0.621-2.666,1.703-3.525   c1.083-0.859,2.493-1.171,3.87-0.85c1.606,0.373,2.898,1.649,3.29,3.253c0.459,1.878-0.286,3.788-1.863,4.844V11h11   c2.481,0,4.5,2.019,4.5,4.5V26h0.278c1.056-1.577,2.964-2.324,4.844-1.863l0,0c1.604,0.392,2.88,1.684,3.253,3.29   c0.32,1.376,0.01,2.787-0.85,3.87C44.666,32.379,43.381,33,42,33c-1.488,0-2.888-0.759-3.722-2H38v10.5   C38,43.981,35.981,46,33.5,46z M22.5,45h11c1.93,0,3.5-1.57,3.5-3.5v-11c0-0.276,0.224-0.5,0.5-0.5h1.055   c0.178,0,0.343,0.095,0.432,0.249C39.625,31.345,40.751,32,42,32c1.074,0,2.074-0.483,2.742-1.325   c0.669-0.842,0.91-1.943,0.659-3.021c-0.289-1.243-1.276-2.242-2.517-2.545l0,0c-1.563-0.383-3.094,0.262-3.898,1.643   C38.897,26.905,38.733,27,38.555,27H37.5c-0.276,0-0.5-0.224-0.5-0.5v-11c0-1.93-1.57-3.5-3.5-3.5H22c-0.276,0-0.5-0.224-0.5-0.5   v-1.055c0-0.178,0.095-0.343,0.249-0.432c1.38-0.804,2.025-2.333,1.643-3.898c-0.303-1.24-1.302-2.228-2.545-2.517   c-1.074-0.25-2.178-0.01-3.021,0.659C16.983,4.926,16.5,5.926,16.5,7c0,1.249,0.655,2.375,1.751,3.013   c0.154,0.089,0.249,0.254,0.249,0.432V11.5c0,0.276-0.224,0.5-0.5,0.5H6.5C4.57,12,3,13.57,3,15.5v10h0.278   c1.056-1.577,2.965-2.323,4.844-1.863c1.604,0.392,2.88,1.684,3.253,3.29c0.32,1.376,0.01,2.787-0.85,3.87   C9.666,31.879,8.381,32.5,7,32.5c-1.488,0-2.888-0.759-3.722-2H3v11C3,43.43,4.57,45,6.5,45h11v-0.278   c-1.577-1.056-2.322-2.966-1.863-4.844c0.392-1.604,1.684-2.88,3.29-3.253c1.377-0.322,2.787-0.01,3.87,0.85   C23.879,38.334,24.5,39.619,24.5,41c0,1.488-0.759,2.888-2,3.722V45z" fill="#546E7A"/></g></svg>