<?xml version="1.0" ?>
<!-- Uploaded to: SVG Repo, www.svgrepo.com, Generator: SVG Repo Mixer Tools -->
<svg width="800px" height="800px" viewBox="0 0 512 512" xmlns="http://www.w3.org/2000/svg">
<defs>
<style>.e{fill:#f4f4f4;}.f{fill:#f2c34e;}.g{fill:#cecece;}.h{fill:#bebebe;}.i{fill:#dfdfdf;}.j{fill:#41a08e;}.k{fill:#365650;}.l{fill:#54aa9a;}.m{fill:#75bbad;}</style>
</defs>
<g id="a"/>
<g id="b"/>
<g id="c">
<g>
<path class="l" d="M488,232c0-44.1828-35.81738-80-80-80s-80,35.8172-80,80,35.81738,80,80,80c7.78711,0,15.31494-1.11267,22.43213-3.18768l57.56787,19.18768-20.99023-41.98199c13.03564-14.23273,20.99023-33.19641,20.99023-54.01801Z"/>
<path class="m" d="M162.6272,223.45093l-18.6272-7.45093v-.00006c10.24463-10.24457,16-24.13928,16-38.62732v-1.37268c0-13.25482-10.74512-23.99994-24-23.99994s-24,10.74512-24,23.99994v1.37268c0,14.48804,5.75537,28.38275,16,38.62732v.00006l-18.6272,7.45093c-12.90845,5.16333-21.3728,17.66541-21.3728,31.56818v40.9809h96v-40.9809c0-13.90277-8.46436-26.40485-21.3728-31.56818Z"/>
<path class="m" d="M98.6272,223.45093l-18.6272-7.45093v-.00006c10.24463-10.24457,16-24.13928,16-38.62732v-1.37268c0-13.25482-10.74512-23.99994-24-23.99994s-24,10.74512-24,23.99994v1.37268c0,14.48804,5.75537,28.38275,16,38.62732v.00006l-18.6272,7.45093c-12.90845,5.16333-21.3728,17.66541-21.3728,31.56818v40.9809H120v-40.9809c0-13.90277-8.46436-26.40485-21.3728-31.56818Z"/>
<polygon class="i" points="368 268 260 268 260 224 252 224 252 268 144 268 144 276 252 276 252 456 260 456 260 276 368 276 368 268"/>
<path class="j" d="M130.6272,223.45093l-18.6272-7.45093v-.00006c10.24463-10.24457,16-24.13928,16-38.62732v-1.37268c0-13.25482-10.74512-23.99994-24-23.99994s-24,10.74512-24,23.99994v1.37268c0,14.48804,5.75537,28.38275,16,38.62732v.00006l-18.6272,7.45093c-12.90845,5.16333-21.3728,17.66541-21.3728,31.56818v40.9809h96v-40.9809c0-13.90277-8.46436-26.40485-21.3728-31.56818Z"/>
<g>
<path class="e" d="M472,196h-36v-12h-8v12h-36v8h12.72119l.4165,2.08203c3.09277,15.46588,10.50342,29.61871,21.10547,40.94409-3.30225,2.86536-6.85107,5.47388-10.64746,7.75171l-9.65332,5.79199,4.11523,6.86035,9.65332-5.79199c4.39746-2.63843,8.49316-5.67914,12.28906-9.0282,3.7959,3.34906,7.8916,6.38977,12.28906,9.0282l9.65332,5.79199,4.11523-6.86035-9.65332-5.79199c-3.79639-2.27783-7.34521-4.88635-10.64746-7.75171,10.60205-11.32532,18.0127-25.47809,21.10547-40.9436l.4165-2.08252h12.72119v-8Zm-20.98145,8.51367c-2.79102,13.95435-9.46826,26.72687-19.01855,36.95953-9.55029-10.23267-16.22754-23.00537-19.01855-36.96002l-.10254-.51318h38.24219l-.10254,.51367Z"/>
<path class="e" d="M376,196c-1.66699,0-3.16016,1.03418-3.74512,2.5957l-24,64,7.49023,2.80859,8.02686-21.4043h24.45605l8.02686,21.4043,7.49023-2.80859-24-64c-.58496-1.56152-2.07812-2.5957-3.74512-2.5957Zm-9.22803,40l9.22803-24.60791,9.22803,24.60791h-18.45605Z"/>
</g>
<path class="f" d="M220,128c0-15.43945-12.56055-28-28-28s-28,12.56055-28,28c0,14.08112,10.44922,25.76251,24,27.70978v24.29022h-20v8h20v20h8v-20h20v-8h-20v-24.29022c13.55078-1.94727,24-13.62866,24-27.70978Zm-48,0c0-11.02783,8.97168-20,20-20s20,8.97217,20,20-8.97168,20-20,20-20-8.97217-20-20Z"/>
<path class="f" d="M344,116h-40v8h30.34326l-29.5835,29.5835c-4.67578-3.50488-10.47949-5.5835-16.75977-5.5835-15.43945,0-28,12.56055-28,28s12.56055,28,28,28,28-12.56055,28-28c0-6.28021-2.07861-12.0838-5.5835-16.75977l29.5835-29.5835v30.34326h8v-40c0-2.20898-1.79102-4-4-4Zm-56,80c-11.02832,0-20-8.97217-20-20s8.97168-20,20-20,20,8.97217,20,20-8.97168,20-20,20Z"/>
<path class="f" d="M260,160v-20h20v-8h-20v-24.29022c13.55078-1.94727,24-13.62866,24-27.70978,0-6.28021-2.07861-12.0838-5.5835-16.75977l29.5835-29.5835v30.34326h8V24c0-2.20898-1.79102-4-4-4h-40v8h30.34326l-29.5835,29.5835c-4.67578-3.50488-10.47949-5.5835-16.75977-5.5835s-12.08374,2.07861-16.75977,5.5835l-5.5835-5.58356,14.14209-14.14203-5.65625-5.65723-14.14258,14.14252-18.34277-18.3432h30.34277v-8h-40c-2.20898,0-4,1.79102-4,4v40h8v-30.34369l18.34326,18.34363-14.14209,14.14215,5.65625,5.65723,14.14258-14.14264,5.5835,5.58356c-3.50488,4.67596-5.5835,10.47955-5.5835,16.75977,0,14.08112,10.44922,25.76251,24,27.70978v24.29022h-20v8h20v20h8Zm-24-80c0-11.02783,8.97168-20,20-20s20,8.97217,20,20-8.97168,20-20,20-20-8.97217-20-20Z"/>
<path class="h" d="M272,456h-32c-13.25488,0-24,10.74518-24,24v8h80v-8c0-13.25482-10.74512-24-24-24Z"/>
<circle class="h" cx="256" cy="272" r="24"/>
<path class="g" d="M128,416c0,13.25482,10.74512,24,24,24h48c13.25488,0,24-10.74518,24-24v-8h-96v8Z"/>
<path class="g" d="M288,408v8c0,13.25482,10.74512,24,24,24h48c13.25488,0,24-10.74518,24-24v-8h-96Z"/>
<path class="i" d="M109.51562,441.04736c-43.18555-34.23096-73.17969-82.60938-84.45801-136.22412l7.82812-1.64648c10.89551,51.79102,39.87402,98.52783,81.59863,131.60107l-4.96875,6.26953Z"/>
<path class="i" d="M399.76562,443.17041l-4.87695-6.34082c32.89746-25.30615,58.27539-59.00684,73.38867-97.45898l7.44531,2.92676c-15.64355,39.80176-41.90918,74.68311-75.95703,100.87305Z"/>
<path class="i" d="M459.86621,153.79541c-27.17969-54.10742-75.69531-95.87842-133.10645-114.60352l2.48047-7.60547c59.42676,19.38184,109.64355,62.6167,137.77441,118.61816l-7.14844,3.59082Z"/>
<path class="i" d="M59.44629,140.3833l-6.89258-4.0625c29.30566-49.71191,75.54688-86.90723,130.20605-104.73438l2.48047,7.60547c-52.80469,17.22266-97.47949,53.15967-125.79395,101.19141Z"/>
<path class="k" d="M28,255.01904c0-12.33838,7.40234-23.27197,18.8584-27.85449l18.62695-7.45068c1.24902-.49951,2.16309-1.59229,2.43262-2.90967,.27051-1.31689-.13867-2.68213-1.08984-3.63281-9.56152-9.56152-14.82812-22.27539-14.82812-35.79883v-1.37256c0-11.02783,8.97168-20,20-20,3.5481,0,6.99951,.94794,10.01489,2.69165-3.76147,4.7677-6.01489,10.77795-6.01489,17.30835v1.37256c0,13.66357,4.6416,26.61279,13.18066,37.04736l-13.29297,5.31689c-14.51172,5.8042-23.8877,19.65332-23.8877,35.28223v40.98096h8v-40.98096c0-12.33838,7.40234-23.27197,18.8584-27.85449l18.62695-7.45068c1.24902-.49951,2.16309-1.59229,2.43262-2.90967,.27051-1.31689-.13867-2.68213-1.08984-3.63281-9.56152-9.56152-14.82812-22.27539-14.82812-35.79883v-1.37256c0-11.02783,8.97168-20,20-20s20,8.97217,20,20v1.37256c0,13.52344-5.2666,26.2373-14.82812,35.79883-.95117,.95068-1.36035,2.31592-1.08984,3.63281,.26953,1.31738,1.18359,2.41016,2.43262,2.90967l18.62695,7.45068c11.45605,4.58252,18.8584,15.51611,18.8584,27.85449v.98096h8v-.98096c0-15.62891-9.37598-29.47803-23.8877-35.28223l-13.29297-5.31689c8.53906-10.43457,13.18066-23.38379,13.18066-37.04736v-1.37256c0-6.52686-2.25073-12.53412-6.00879-17.3006,3.02124-1.74927,6.46143-2.6994,10.00879-2.6994,11.02832,0,20,8.97217,20,20v1.37256c0,13.52344-5.2666,26.2373-14.82812,35.79883-.95117,.95068-1.36035,2.31592-1.08984,3.63281,.26953,1.31738,1.18359,2.41016,2.43262,2.90967l18.62695,7.45068c11.45605,4.58252,18.8584,15.51611,18.8584,27.85449v.98096h8v-.98096c0-15.62891-9.37598-29.47803-23.8877-35.28223l-13.29297-5.31689c8.53906-10.43457,13.18066-23.38379,13.18066-37.04736v-1.37256c0-15.43945-12.56055-28-28-28-5.76392,0-11.33545,1.77258-16.00977,5.03461-4.53711-3.16876-10.04834-5.03461-15.99023-5.03461-5.94434,0-11.45776,1.86755-15.99609,5.03882-4.6582-3.24316-10.2373-5.03882-16.00391-5.03882-15.43945,0-28,12.56055-28,28v1.37256c0,13.66357,4.6416,26.61279,13.18066,37.04736l-13.29297,5.31689c-14.51172,5.8042-23.8877,19.65332-23.8877,35.28223v40.98096h8v-40.98096Z"/>
<path class="k" d="M471.79688,286.64697c13.04883-15.21777,20.20312-34.51416,20.20312-54.64697,0-46.31787-37.68262-84-84-84s-84,37.68213-84,84c0,8.59326,1.29395,17.07129,3.8457,25.19824l7.63281-2.39648c-2.30859-7.35059-3.47852-15.02246-3.47852-22.80176,0-41.90674,34.09375-76,76-76s76,34.09326,76,76c0,19.05273-7.08105,37.27734-19.94043,51.31641-1.11914,1.22217-1.36914,3.0083-.62793,4.49023l16.67188,33.34521-48.40723-16.13428c-.77148-.25732-1.60449-.27246-2.38379-.04541-6.89258,2.00928-14.0625,3.02783-21.3125,3.02783-10.56934,0-20.79688-2.12695-30.39844-6.32227l-3.20312,7.33105c10.61816,4.63916,21.92285,6.99121,33.60156,6.99121,7.58301,0,15.09082-1.00977,22.33594-3.00293l56.39941,18.79785c.41504,.13818,.8418,.20508,1.26367,.20508,1.13965,0,2.25-.48779,3.02246-1.37939,1.06055-1.22217,1.2793-2.9624,.55664-4.40918l-19.78125-39.56445Z"/>
<path class="k" d="M428,184v12h-36v8h12.72119l.4165,2.08203c3.09277,15.46588,10.50342,29.61871,21.10547,40.94409-3.30225,2.86536-6.85107,5.47388-10.64746,7.75171l-9.65332,5.79199,4.11523,6.86035,9.65332-5.79199c4.39746-2.63843,8.49316-5.67914,12.28906-9.0282,3.7959,3.34906,7.8916,6.38977,12.28906,9.0282l9.65332,5.79199,4.11523-6.86035-9.65332-5.79199c-3.79639-2.27783-7.34521-4.88635-10.64746-7.75171,10.60205-11.32532,18.0127-25.47809,21.10547-40.9436l.4165-2.08252h12.72119v-8h-36v-12h-8Zm23.01855,20.51367c-2.79102,13.95435-9.46826,26.72687-19.01855,36.95953-9.55029-10.23267-16.22754-23.00537-19.01855-36.96002l-.10254-.51318h38.24219l-.10254,.51367Z"/>
<path class="k" d="M376,196c-1.66699,0-3.16016,1.03418-3.74512,2.5957l-24,64,7.49023,2.80859,8.02686-21.4043h24.45605l8.02686,21.4043,7.49023-2.80859-24-64c-.58496-1.56152-2.07812-2.5957-3.74512-2.5957Zm-9.22803,40l9.22803-24.60791,9.22803,24.60791h-18.45605Z"/>
<path class="k" d="M164,128c0,14.08112,10.44922,25.76251,24,27.70978v24.29022h-20v8h20v20h8v-20h20v-8h-20v-24.29022c13.55078-1.94727,24-13.62866,24-27.70978,0-15.43945-12.56055-28-28-28s-28,12.56055-28,28Zm28-20c11.02832,0,20,8.97217,20,20s-8.97168,20-20,20-20-8.97217-20-20,8.97168-20,20-20Z"/>
<path class="k" d="M348,160v-40c0-2.20898-1.79102-4-4-4h-40v8h30.34326l-29.5835,29.5835c-4.67578-3.50488-10.47949-5.5835-16.75977-5.5835-15.43945,0-28,12.56055-28,28s12.56055,28,28,28,28-12.56055,28-28c0-6.28021-2.07861-12.0838-5.5835-16.75977l29.5835-29.5835v30.34326h8Zm-60,36c-11.02832,0-20-8.97217-20-20s8.97168-20,20-20,20,8.97217,20,20-8.97168,20-20,20Z"/>
<path class="k" d="M204,33.65631l18.34326,18.34363-14.14209,14.14215,5.65625,5.65723,14.14258-14.14264,5.5835,5.58356c-3.50488,4.67596-5.5835,10.47955-5.5835,16.75977,0,14.08112,10.44922,25.76251,24,27.70978v24.29022h-20v8h20v20h8v-20h20v-8h-20v-24.29022c13.55078-1.94727,24-13.62866,24-27.70978,0-6.28021-2.07861-12.0838-5.5835-16.75977l29.5835-29.5835v30.34326h8V24c0-2.20898-1.79102-4-4-4h-40v8h30.34326l-29.5835,29.5835c-4.67578-3.50488-10.47949-5.5835-16.75977-5.5835s-12.08374,2.07861-16.75977,5.5835l-5.5835-5.58356,14.14209-14.14203-5.65625-5.65723-14.14258,14.14252-18.34277-18.3432h30.34277v-8h-40c-2.20898,0-4,1.79102-4,4v40h8v-30.34369Zm72,46.34369c0,11.02783-8.97168,20-20,20s-20-8.97217-20-20,8.97168-20,20-20,20,8.97217,20,20Z"/>
<path class="k" d="M387.77246,406.66895l-46.11865-130.66895h26.34619v-8h-84.29004c-1.75977-12.24353-11.46631-21.95038-23.70996-23.70978v-20.29022h-8v20.29022c-12.24365,1.7594-21.95044,11.46625-23.70972,23.70978h-84.29028v8h26.34595l-46.11841,130.66895,.01514,.00531c-.14746,.41681-.24268,.85852-.24268,1.32574v8c0,15.43945,12.56055,28,28,28h48c15.43945,0,28-12.56055,28-28v-8c0-.46722-.09521-.90894-.24268-1.32574l.01514-.00531-46.11841-130.66895h46.63623c1.75928,12.24353,11.46606,21.95038,23.70972,23.70978v152.29022h-12c-15.43945,0-28,12.56055-28,28v8c0,2.20898,1.79102,4,4,4h80c2.20898,0,4-1.79102,4-4v-8c0-15.43945-12.56055-28-28-28h-12v-152.29022c12.24365-1.7594,21.9502-11.46625,23.70996-23.70978h46.63623l-46.11865,130.66895,.01514,.00531c-.14746,.41681-.24268,.85852-.24268,1.32574v8c0,15.43945,12.56055,28,28,28h48c15.43945,0,28-12.56055,28-28v-8c0-.46722-.09521-.90894-.24268-1.32574l.01514-.00531Zm-95.77246,73.33105v4h-72v-4c0-11.02783,8.97168-20,20-20h32c11.02832,0,20,8.97217,20,20Zm86.34619-76h-84.69238l42.34619-119.98029,42.34619,119.98029Zm-202.34619-119.98029l42.34595,119.98029h-84.69189l42.34595-119.98029Zm44,131.98029c0,11.02783-8.97168,20-20,20h-48c-11.02832,0-20-8.97217-20-20v-4h88v4Zm36-124c-11.02832,0-20-8.97217-20-20s8.97168-20,20-20,20,8.97217,20,20-8.97168,20-20,20Zm124,124c0,11.02783-8.97168,20-20,20h-48c-11.02832,0-20-8.97217-20-20v-4h88v4Z"/>
<path class="k" d="M32.88574,303.17676l-7.82812,1.64648c11.27832,53.61475,41.27246,101.99316,84.45801,136.22412l4.96875-6.26953c-41.72461-33.07324-70.70312-79.81006-81.59863-131.60107Z"/>
<path class="k" d="M394.88867,436.82959l4.87695,6.34082c34.04785-26.18994,60.31348-61.07129,75.95703-100.87305l-7.44531-2.92676c-15.11328,38.45215-40.49121,72.15283-73.38867,97.45898Z"/>
<path class="k" d="M459.86621,153.79541l7.14844-3.59082c-28.13086-56.00146-78.34766-99.23633-137.77441-118.61816l-2.48047,7.60547c57.41113,18.7251,105.92676,60.49609,133.10645,114.60352Z"/>
<path class="k" d="M185.24023,39.19189l-2.48047-7.60547c-54.65918,17.82715-100.90039,55.02246-130.20605,104.73438l6.89258,4.0625c28.31445-48.03174,72.98926-83.96875,125.79395-101.19141Z"/>
</g>
</g>
<g id="d"/>
</svg>