<?xml version="1.0" encoding="iso-8859-1"?>
<!-- Uploaded to: SVG Repo, www.svgrepo.com, Generator: SVG Repo Mixer Tools -->
<svg version="1.1" id="Layer_1" xmlns="http://www.w3.org/2000/svg" xmlns:xlink="http://www.w3.org/1999/xlink" 
	 viewBox="0 0 512.001 512.001" xml:space="preserve">
<path style="fill:#288FD9;" d="M113.684,512H7.839V263.774c0-21.895,17.749-39.645,39.645-39.645h66.201l20.916,143.935L113.684,512
	z"/>
<path style="fill:#0079CE;" d="M504.162,512H398.316L377.4,368.065l20.916-143.935h66.201c21.895,0,39.645,17.749,39.645,39.645V512
	z"/>
<polygon style="fill:#288FD9;" points="398.316,130.433 256,130.433 235.084,327.354 256,491.101 301.197,512 398.316,512 "/>
<polygon style="fill:#8BCBF1;" points="113.684,130.433 113.684,512 210.803,512 256,491.101 256,130.433 "/>
<g>
	<rect x="145.039" y="167.013" style="fill:#FBE27B;" width="37.009" height="31.348"/>
	<rect x="206.68" y="167.013" style="fill:#FBE27B;" width="37.009" height="31.348"/>
</g>
<g>
	<rect x="268.31" y="167.013" style="fill:#F7C02D;" width="37.009" height="31.348"/>
	<rect x="329.962" y="167.013" style="fill:#F7C02D;" width="37.009" height="31.348"/>
</g>
<g>
	<rect x="145.039" y="219.26" style="fill:#FBE27B;" width="37.009" height="31.348"/>
	<rect x="206.68" y="219.26" style="fill:#FBE27B;" width="37.009" height="31.348"/>
</g>
<g>
	<rect x="268.31" y="219.26" style="fill:#F7C02D;" width="37.009" height="31.348"/>
	<rect x="329.962" y="219.26" style="fill:#F7C02D;" width="37.009" height="31.348"/>
</g>
<g>
	<rect x="145.039" y="271.507" style="fill:#FBE27B;" width="37.009" height="31.348"/>
	<rect x="206.68" y="271.507" style="fill:#FBE27B;" width="37.009" height="31.348"/>
</g>
<g>
	<rect x="268.31" y="271.507" style="fill:#F7C02D;" width="37.009" height="31.348"/>
	<rect x="329.962" y="271.507" style="fill:#F7C02D;" width="37.009" height="31.348"/>
</g>
<g>
	<rect x="145.039" y="323.765" style="fill:#FBE27B;" width="37.009" height="31.348"/>
	<rect x="206.68" y="323.765" style="fill:#FBE27B;" width="37.009" height="31.348"/>
</g>
<g>
	<rect x="268.31" y="323.765" style="fill:#F7C02D;" width="37.009" height="31.348"/>
	<rect x="329.962" y="323.765" style="fill:#F7C02D;" width="37.009" height="31.348"/>
</g>
<g>
	<rect x="145.039" y="376.012" style="fill:#FBE27B;" width="37.009" height="31.348"/>
	<rect x="206.68" y="376.012" style="fill:#FBE27B;" width="37.009" height="31.348"/>
</g>
<g>
	<rect x="268.31" y="376.012" style="fill:#F7C02D;" width="37.009" height="31.348"/>
	<rect x="329.962" y="376.012" style="fill:#F7C02D;" width="37.009" height="31.348"/>
</g>
<polygon style="fill:#F39624;" points="301.198,435.197 256,435.197 235.084,477.516 256,512 301.198,512 "/>
<g>
	<rect x="210.807" y="435.198" style="fill:#F7C02D;" width="45.194" height="76.803"/>
	<polygon style="fill:#F7C02D;" points="99.726,34.739 81.806,34.739 81.806,0 50.458,0 50.458,100.827 81.806,100.827 
		81.806,66.087 99.726,66.087 99.726,100.827 131.074,100.827 131.074,0 99.726,0 	"/>
	<path style="fill:#F7C02D;" d="M139.137,100.825h74.57V0.001h-74.57L139.137,100.825L139.137,100.825z M170.485,31.349h11.874
		v38.128h-11.874V31.349z"/>
</g>
<g>
	<polygon style="fill:#F39624;" points="310.456,100.825 384.132,100.825 384.132,69.477 341.804,69.477 341.804,66.087 
		366.644,66.087 366.644,34.739 341.804,34.739 341.804,31.349 384.132,31.349 384.132,0.001 310.456,0.001 	"/>
	<polygon style="fill:#F39624;" points="424.441,69.477 424.441,0 393.092,0 393.092,100.825 466.768,100.825 466.768,69.477 	"/>
</g>
<polygon style="fill:#F7C02D;" points="222.669,0.001 222.669,31.349 246.41,31.349 246.41,100.827 258.613,100.827 258.613,0.001 
	"/>
<polygon style="fill:#F39624;" points="258.613,100.827 277.758,100.827 277.758,31.349 301.496,31.349 301.496,0.001 
	258.613,0.001 "/>
</svg>