<?xml version="1.0" encoding="utf-8"?>
<!-- Generator: Adobe Illustrator 23.0.0, SVG Export Plug-In . SVG Version: 6.00 Build 0)  -->
<svg version="1.1" id="Capa_1" xmlns:xodm="http://www.corel.com/coreldraw/odm/2003"
	 xmlns="http://www.w3.org/2000/svg" xmlns:xlink="http://www.w3.org/1999/xlink" x="0px" y="0px" viewBox="0 0 203.6 224.1"
	 style="enable-background:new 0 0 203.6 224.1;" xml:space="preserve">
<style type="text/css">
	.st0{fill:#1A6396;enable-background:new    ;}
</style>
<path class="st0" d="M102.6,90.8c-3.1,0-5.6-2.5-5.6-5.6c0-3.1,2.5-5.6,5.6-5.6c2.9,0,5.3,2.2,5.6,5c-0.1,0.5-0.1,1,0,1.6
	C107.7,88.7,105.4,90.8,102.6,90.8L102.6,90.8z M176,196.6l-42.9-42.9l42.9-42.9V196.6L176,196.6z M37.1,204.5l45.2-45.2h40.5
	l45.2,45.2H37.1z M29.1,196.6v-85.7L72,153.7L29.1,196.6L29.1,196.6z M40.4,106.2l-9-9l9-9V106.2z M153.4,34.3v40.3c0,0,0,0,0,0
	v42.9L122.8,148H82.3l-30.6-30.6V74.6c0,0,0,0,0,0V34.3H153.4L153.4,34.3z M173.7,97.2l-9,9V88.2L173.7,97.2z M187.3,97.2
	c0-1.5-0.6-2.9-1.7-4l-20.9-20.9V28.6c0-3.1-2.5-5.6-5.6-5.6h-113c-3.1,0-5.7,2.5-5.7,5.6v43.6L19.5,93.2c0,0,0,0-0.1,0.1
	c-1.1,1.1-1.6,2.5-1.6,3.9c0,0,0,0,0,0v101.7c0,9.4,7.6,16.9,16.9,16.9h135.6c9.4,0,17-7.6,17-16.9L187.3,97.2
	C187.3,97.2,187.3,97.2,187.3,97.2L187.3,97.2z M81.3,118.5c11.7,7.5,26,8.3,39.3,2.1c2.8-1.3,4.1-4.7,2.8-7.5
	c-1.3-2.8-4.7-4.1-7.5-2.8c-9.7,4.5-20.1,4-28.5-1.4c-8.2-5.2-13.1-14.1-13.1-23.8c0-15.6,12.7-28.2,28.2-28.2
	c15.6,0,28.2,12.7,28.2,28.2c0,3.1-2.5,5.6-5.6,5.6c-2.8,0-5.5-2.2-5.6-5.6c0,0,0-0.1,0-0.1c0-9.3-7.6-17-17-17s-16.9,7.6-16.9,17
	s7.6,16.9,16.9,16.9c4.3,0,8.3-1.6,11.3-4.3c3,2.7,7,4.3,11.3,4.3c9.3,0,16.9-7.6,16.9-16.9c0-21.8-17.7-39.6-39.5-39.6
	C80.8,45.6,63,63.3,63,85.2C63,98.7,69.9,111.1,81.3,118.5L81.3,118.5z"/>
</svg>
