<?xml version="1.0" encoding="utf-8"?>
<!-- Generator: Adobe Illustrator 23.0.0, SVG Export Plug-In . SVG Version: 6.00 Build 0)  -->
<svg version="1.1" id="Capa_1" xmlns:xodm="http://www.corel.com/coreldraw/odm/2003"
	 xmlns="http://www.w3.org/2000/svg" xmlns:xlink="http://www.w3.org/1999/xlink" x="0px" y="0px" viewBox="0 0 203.6 224.1"
	 style="enable-background:new 0 0 203.6 224.1;" xml:space="preserve">
<style type="text/css">
	.st0{fill:#1A6396;enable-background:new    ;}
</style>
<path class="st0" d="M184.9,111.5c-2,2.3-5.5,2.6-7.8,0.6l-70.5-60.4c-2.1-1.8-5.1-1.8-7.2,0c-1.5,1.3-71,60.2-71.3,60.5
	c-2.3,2-5.8,1.7-7.8-0.6c-2-2.3-1.7-5.8,0.6-7.8l78.5-66.6c2.1-1.8,5.1-1.8,7.2,0l77.7,66.6C186.6,105.7,186.9,109.2,184.9,111.5z
	 M108.5,180.9c3.1,0,5.6-2.5,5.6-5.6c0-3.1-2.5-5.6-5.6-5.6c-3.1,0-5.6,2.5-5.6,5.6C103,178.4,105.4,180.9,108.5,180.9z
	 M114.1,124.6h-23v-22.2h23V124.6z M119.6,91.3H85.5c-3.1,0-5.5,2.5-5.5,5.6v33.3c0,3.1,2.4,5.6,5.5,5.6h34.1c3.1,0,5.6-2.5,5.6-5.6
	V96.8C125.2,93.8,122.7,91.3,119.6,91.3z M136.3,203.1v-50c0-3.1-2.5-5.6-5.6-5.6H74.4c-3.1,0-5.5,2.5-5.5,5.6v50H41.1v-87.4
	l61.8-52.4l61.2,52.4v87.5H136.3z M125.2,203.1H80v-44.5h45.2V203.1z M152.9,46.8h11.2v24.9l-11.2-9.5V46.8z M197.3,106.7
	c-0.3-4.4-2.4-8.5-5.8-11.4l-16.4-14.1V41.3c0-3.1-2.5-5.6-5.6-5.6h-22.2c-3.1,0-5.5,2.5-5.5,5.6v11.4l-28.1-24
	c-6.3-5.4-15.4-5.4-21.7,0L13.6,95.3c-6.9,5.9-7.8,16.4-1.8,23.5c4.6,5.4,12,7.1,18.3,4.9v85c0,3.1,2.4,5.6,5.5,5.6h134
	c3.1,0,5.6-2.5,5.6-5.6v-85c6.5,2.3,13.7,0.4,18.2-4.9C196.2,115.4,197.6,111.1,197.3,106.7L197.3,106.7z"/>
</svg>
