<?xml version="1.0" encoding="UTF-8"?>
<!DOCTYPE svg PUBLIC "-//W3C//DTD SVG 1.1//EN" "http://www.w3.org/Graphics/SVG/1.1/DTD/svg11.dtd">
<!-- Creator: CorelDRAW 2021 (64-Bit) -->
<svg xmlns="http://www.w3.org/2000/svg" xml:space="preserve" width="215.9mm" height="279.4mm" version="1.1" style="shape-rendering:geometricPrecision; text-rendering:geometricPrecision; image-rendering:optimizeQuality; fill-rule:evenodd; clip-rule:evenodd"
viewBox="0 0 21590 27940"
 xmlns:xlink="http://www.w3.org/1999/xlink"
 xmlns:xodm="http://www.corel.com/coreldraw/odm/2003">
 <defs>
  <style type="text/css">
   <![CDATA[
    .str0 {stroke:#B14527;stroke-width:7.62;stroke-miterlimit:22.9256}
    .fil0 {fill:none}
    .fil2 {fill:none;fill-rule:nonzero}
    .fil5 {fill:white}
    .fil6 {fill:#B14527;fill-rule:nonzero}
    .fil4 {fill:white;fill-rule:nonzero}
    .fil1 {fill:#E35932}
    .fil3 {fill:url(#id9);fill-rule:nonzero}
   ]]>
  </style>
   <clipPath id="id0">
    <path d="M-38392.4 45434.64l18364.19 0 0 8009.46 -18364.19 0 0 -8009.46z"/>
   </clipPath>
    <clipPath id="id1">
     <path d="M-38392.4 45434.64l18364.19 0 0 8009.46 -18364.19 0 0 -8009.46z"/>
    </clipPath>
    <clipPath id="id2">
     <path d="M-38392.4 45434.64l18364.19 0 0 8009.46 -18364.19 0 0 -8009.46z"/>
    </clipPath>
   <clipPath id="id3">
    <path d="M-38392.39 45439.38l18364.19 0 0 7999.99 -18364.19 0 0 -7999.99z"/>
   </clipPath>
   <clipPath id="id4">
    <path d="M-38392.39 45439.38l18364.19 0 0 7999.99 -18364.19 0 0 -7999.99z"/>
   </clipPath>
    <clipPath id="id5" style="clip-rule:nonzero">
     <path d="M-21141.05 53439.37l1112.85 -3120.89 0 -4879.1 -5475.42 0 -2850.53 7999.99 7213.1 0z"/>
    </clipPath>
     <clipPath id="id6">
      <path d="M-21141.05 53439.37l1112.85 -3120.89 0 -4879.1 -5475.42 0 -1489.93 4181.48 0 3818.51 5852.5 0z"/>
     </clipPath>
     <clipPath id="id7">
      <path d="M-21141.05 53439.37l1112.85 -3120.89 0 -4879.1 -5475.42 0 -2850.53 7999.99 7213.1 0z"/>
     </clipPath>
    <clipPath id="id8" style="clip-rule:nonzero">
     <path d="M-38392.39 45439.38l18364.19 0 0 7999.99 -18364.19 0 0 -7999.99z"/>
    </clipPath>
  <linearGradient id="id9" gradientUnits="userSpaceOnUse" x1="-26451.47" y1="49300.92" x2="-29092.66" y2="55826.04">
   <stop offset="0" style="stop-opacity:1; stop-color:#FEC133"/>
   <stop offset="0.266667" style="stop-opacity:1; stop-color:#F29333"/>
   <stop offset="0.760784" style="stop-opacity:1; stop-color:#E66432"/>
   <stop offset="1" style="stop-opacity:1; stop-color:#E35932"/>
  </linearGradient>
 </defs>
 <g id="Capa_x0020_1">
  <metadata id="CorelCorpID_0Corel-Layer"/>
  <g>
  </g>
  <g style="clip-path:url(#id0)">
   <g>
   </g>
   <g style="clip-path:url(#id1)">
    <image x="-43047.53" y="40818.7" width="25821.75" height="16807.06" xlink:href="Juan Pablo Cano_Pieza home web 05_1ddeFebrero2023_Images\Juan Pablo Cano_Pieza home web 05_1ddeFebrero2023_ImgID1.png"/>
   </g>
   <g style="clip-path:url(#id2)">
   </g>
  </g>
  <polygon class="fil0" points="-38392.4,45434.64 -20028.21,45434.64 -20028.21,53444.1 -38392.4,53444.1 "/>
  <g style="clip-path:url(#id3)">
   <polygon class="fil1" points="-38392.39,45439.38 -20028.2,45439.38 -20028.2,53439.37 -38392.39,53439.37 "/>
  </g>
  <g style="clip-path:url(#id4)">
   <g>
    <g>
    </g>
   </g>
   <g style="clip-path:url(#id5)">
    <g>
    </g>
    <g style="clip-path:url(#id6)">
     <image x="-26993.55" y="44490.7" width="8314.14" height="11072.74" xlink:href="Juan Pablo Cano_Pieza home web 05_1ddeFebrero2023_Images\Juan Pablo Cano_Pieza home web 05_1ddeFebrero2023_ImgID2.png"/>
    </g>
    <g style="clip-path:url(#id7)">
    </g>
   </g>
   <g style="clip-path:url(#id8)">
    <path class="fil2" d="M-24080.29 61682.24l5280.28 -14808.12c47.84,-132.81 18.31,-279.87 -66.68,-399.29l-1846.22 -2863.91c-15.67,-23.98 -32.84,-46.8 -51.93,-67.81 -101.53,-118.03 -229.62,-205.99 -368.82,-261.24 -153.77,-60.44 -319.2,-79.92 -474.3,-53.19 -21.51,3.48 -42.05,8.73 -61.91,14.96l-3157.76 835.08c-137.05,35.84 -234.3,128.28 -275.81,243.9l-1.98 -0.8 -4819.23 13525.15c-7.39,-0.4 -12.04,12.17 -13.68,38.14 -607.96,1222.9 -1494.43,1831.9 -2659.3,1826.96l3168.91 1282.71 7.06 2.86 37.82 15.3 36 14.55 34.26 13.89 32.62 13.21 30.78 12.43 28.98 11.73 27.25 11.03 25.55 10.37 23.77 9.59 21.92 8.87 20.25 8.23 18.45 7.47 16.69 6.76 14.94 6.01 13.19 5.37 11.48 4.65 9.59 3.88 7.97 3.2 6.2 2.54 4.37 1.76 2.64 1.07 0.88 0.36 3031.18 1226.93c193.4,78.29 391.56,117.49 584.5,121.57 196.36,3.97 388.03,-29.81 563.52,-97.38 171.11,-66.24 326.23,-165.61 454.1,-294.14 123.78,-124.54 221.05,-273.78 282.47,-444.65z"/>
    <path class="fil3" d="M-27821.77 55964.8l2018.16 -5728.44c12.17,-33.77 4.66,-71.16 -16.95,-101.53l-469.43 -728.17c-3.98,-6.1 -8.35,-11.91 -13.2,-17.25 -25.82,-30.01 -58.39,-52.37 -93.78,-66.42 -39.1,-15.37 -81.16,-20.32 -120.59,-13.52 -5.47,0.88 -10.7,2.22 -15.75,3.8l-802.89 212.33c-34.85,9.12 -59.58,32.62 -70.13,62.02l-0.5 -0.2 -1900.94 5402.23c-1.88,-0.1 -3.06,3.1 -3.47,9.7 -154.58,310.95 -379.97,465.79 -676.16,464.53l805.74 326.14 1.79 0.72 9.61 3.9 9.16 3.7 8.72 3.53 8.28 3.35 7.83 3.17 7.37 2.98 6.93 2.81 6.49 2.63 6.04 2.44 5.58 2.26 5.15 2.09 4.68 1.89 4.26 1.72 3.79 1.54 3.36 1.36 2.92 1.18 2.44 0.99 2.02 0.82 1.58 0.63 1.11 0.45 0.67 0.28 0.22 0.09 770.71 311.96c49.18,19.9 99.56,29.87 148.62,30.9 49.93,1.01 98.66,-7.58 143.29,-24.76 43.5,-16.84 82.94,-42.11 115.46,-74.79 31.46,-31.66 56.2,-69.6 71.81,-113.06z"/>
   </g>
  </g>
  <polygon class="fil0" points="-38392.39,45439.38 -20028.2,45439.38 -20028.2,53439.37 -38392.39,53439.37 "/>
  <path class="fil4" d="M-33061.77 50358.72l3205.11 -209.87c0.85,-0.04 1.6,0.38 2.06,1.07l11.76 15.58c0.11,0.13 0.19,0.26 0.27,0.41 0.42,0.79 0.62,1.69 0.61,2.58 0,0.98 -0.28,1.98 -0.76,2.83 -0.07,0.12 -0.15,0.22 -0.24,0.32l-11.72 16.77c-0.51,0.73 -1.25,1.13 -1.98,1.17l0 0.01 -3205.11 209.88c-1.1,0.06 -2.14,-0.11 -3.1,-0.51 -1.02,-0.41 -1.91,-1.03 -2.66,-1.82 -0.78,-0.82 -1.39,-1.79 -1.82,-2.89 -0.41,-1.07 -0.62,-2.25 -0.62,-3.5l0 -22.38c0,-1.25 0.21,-2.47 0.62,-3.58 0.43,-1.14 1.04,-2.18 1.82,-3.09 0.75,-0.87 1.64,-1.59 2.66,-2.11 0.96,-0.5 2,-0.81 3.1,-0.87z"/>
  <path class="fil4" d="M-36022.52 51590.09l2297.51 -151.21c0.85,-0.05 1.6,0.38 2.08,1.07l11.75 15.58c0.09,0.13 0.18,0.27 0.26,0.41 0.42,0.8 0.63,1.68 0.62,2.58 -0.01,0.99 -0.28,1.98 -0.77,2.82 -0.07,0.12 -0.14,0.24 -0.22,0.34l-11.74 16.77c-0.51,0.73 -1.24,1.13 -1.98,1.17l0 0.01 -2297.51 151.21c-1.09,0.06 -2.13,-0.13 -3.1,-0.52 -1.01,-0.41 -1.91,-1.03 -2.66,-1.82 -0.77,-0.81 -1.38,-1.79 -1.81,-2.88 -0.41,-1.08 -0.63,-2.25 -0.63,-3.51l0 -22.38c0,-1.25 0.22,-2.46 0.63,-3.58 0.43,-1.14 1.04,-2.19 1.81,-3.09 0.75,-0.87 1.65,-1.59 2.66,-2.11 0.97,-0.49 2.01,-0.8 3.1,-0.86z"/>
  <path class="fil5" d="M-34549.66 50054.74l0 0.83 0 279.81 0 0.08 0 0.24 0 0.41 0 0.57 0 0.73 0 0.89 0 1.06 0 1.21 0 1.39 0 1.54 0 1.7 0 1.87 0 2.03 0 2.19 0 2.35 0 2.52 0 2.68 0 2.84 0 3 0 3.17 0 3.33 0 3.48 0 0.65 0 292.53c37.01,-96.64 113.77,-155.86 230.29,-177.67 2.11,0.47 3.25,0.38 3.46,-0.24l1038.02 -73.43 0 -0.18c10.51,-0.74 20.96,-6.64 28.2,-17.15l167.62 -242.14c1.13,-1.5 2.2,-3.08 3.17,-4.79 7.1,-12.22 10.86,-26.38 11.01,-40.53 0.09,-12.83 -2.78,-25.5 -8.87,-36.66 -1.07,-2.08 -2.32,-4.03 -3.72,-5.89l-167.88 -219.86c-6.74,-9.83 -17.46,-15.71 -29.53,-14.85l-1154.58 81.66c-15.52,1.1 -30.49,5.68 -44.33,13.02 -14.31,7.59 -27.17,18.12 -37.92,30.75 -10.98,12.97 -19.82,28.07 -25.81,44.42 -5.79,15.84 -9.03,32.87 -9.13,50.44z"/>
  <path class="fil6" d="M-34153.3 49977.52l0 92.66 -90.34 6.39 0 -92.66 90.34 -6.39zm0.58 131.42l0 41.21c0,15.44 -1.93,27.84 -5.69,37.08 -3.77,9.14 -10.24,17.43 -19.31,24.63 -3.57,3.05 -8.59,7.17 -15.25,12.37 -14.48,11.35 -23.84,19.35 -27.98,23.69 -2.8,3.29 -4.83,6.91 -5.89,11.04 -1.16,4.14 -1.74,11.7 -1.74,22.61l0 28.86c0,11.87 1.54,19.68 4.63,23.41 3.19,3.73 9.46,5.32 19.11,4.64 9.65,-0.68 16.12,-3.17 19.4,-7.45 3.28,-4.29 4.92,-12.32 4.92,-24l0 -32.82 89.19 -6.31 0 12.16c0,46.43 -8.02,78.37 -23.94,95.61 -15.92,17.24 -47.1,27.56 -93.43,30.83 -44.3,3.14 -74.8,-1.27 -91.3,-13.13 -16.51,-11.86 -24.71,-35.22 -24.71,-70.16l0 -44.2c0,-22.2 2.8,-38.9 8.3,-50.01 5.59,-11.11 15.92,-22.36 30.98,-33.85 2.61,-1.63 6.27,-4.2 11,-7.53 20.56,-14.1 30.79,-29.1 30.79,-45.13l0 -27.12 90.92 -6.43zm166.2 276.64l0 -136 -86.86 -277.71 99.03 -7 40.44 187.08 37.93 -192.63 92.46 -6.53 -85.13 289.87 0 135.99 -97.87 6.93zm453.53 -205.24l44.4 -3.14 -21.43 -196.53 -22.97 199.67zm-118.23 181.52l62.54 -424.27 156.46 -11.07 64.18 415.31 -100.18 7.09 -11.59 -102.26 -61.96 4.38 -11.58 103.9 -97.87 6.92z"/>
  <path class="fil5" d="M-36031.06 51397.31l0 -724.96 213.98 -14.12c86,-5.69 144,5.66 174,34.17 30,28.53 45,87.38 45,176.52l0 274.67c0,89.15 -15,149.97 -45,182.45 -30,32.47 -88,51.46 -174,57.15l-213.98 14.12zm258.98 -195.43l0 -367.3c0,-19.83 -3,-32.79 -8.84,-38.92 -5.83,-6.11 -17.82,-8.66 -36.16,-7.44l-45 2.96 0 465.98 45 -2.96c18,-1.19 30.01,-5.32 36,-12.37 6,-7.07 9,-20.44 9,-39.95zm939.28 -125.66l0 70.33c0,18.84 3.84,31.93 11.33,39.26 7.5,7.34 20.17,10.34 38.17,9.16 19.5,-1.29 32.66,-5.84 39.5,-13.78 6.83,-7.96 10.34,-22.36 10.34,-43.18l0 -51.34c0,-15.49 -1.01,-27.09 -3.01,-34.46 -1.83,-7.39 -5.18,-13.82 -9.67,-19.36 -11.16,-12.61 -36.66,-22.09 -76.67,-28.12 -18.32,-2.78 -32.49,-5.17 -42.49,-7.52 -46.99,-10.23 -79.15,-26.77 -96.83,-49.6 -17.49,-22.84 -26.33,-59.93 -26.33,-111.43l0 -67c0,-65 12.67,-111.15 37.84,-138.65 25.17,-27.32 68.83,-43.04 130.98,-47.14l50 -3.3c39.01,-2.58 71.01,-1.36 96.17,3.65 24.99,5.01 44.66,14.39 58.99,28.1 11.5,10.58 19.33,24.55 24,41.92 4.51,17.19 6.84,45.21 6.84,83.87l0 56.16 -149.82 9.9 0 -45.33c0,-22.84 -3.01,-37.8 -9,-44.9 -6.18,-7.11 -18.34,-9.96 -37.01,-8.73 -17.99,1.18 -30.16,5.49 -36.49,12.91 -6.34,7.42 -9.51,20.62 -9.51,39.96l0 46.81c0,35.51 30.34,58.85 91,70.17 17.16,3.54 30.83,6.31 40.99,8.64 46.5,9.92 78.5,26.15 95.84,48.33 17.5,22.35 26.16,58.93 26.16,109.77l0 97.67c0,60.65 -14.33,105.09 -43.16,133.83 -28.84,28.56 -75.83,45.01 -140.83,49.29l-45 2.97c-71.66,4.74 -120.82,-4.19 -147.66,-26.91 -26.83,-22.55 -40.33,-66.85 -40.33,-132.68l0 -78.99 155.66 -10.28zm635.81 -71.8l0 -281.31c0,-20.17 -3.34,-33.45 -10,-39.84 -6.67,-6.4 -20.33,-8.99 -40.66,-7.66 -20.84,1.39 -34.67,5.81 -41.34,13.08 -6.67,7.27 -9.99,20.99 -9.99,41.16l0 382.31c0,20.17 3.32,33.45 9.99,39.84 6.67,6.39 20.5,8.97 41.34,7.6 18.16,-1.19 30.67,-4.53 37.66,-9.99 7,-5.62 10.99,-14.89 12,-27.95l-78 -99.85 49.17 -59.41 29.83 42.02zm164.99 66.27l0 23.84c0,25.17 -1.18,44.93 -3.5,59.57 -2.17,14.64 -6.17,28.57 -11.67,41.6l38.17 51.14 -58.17 57.18 -33.67 -46.12c-11.66,8.61 -28.49,15.22 -50.49,19.68 -22.01,4.61 -62.49,8.78 -121.33,12.66 -77.5,5.12 -129.66,-4.93 -156.33,-30.18 -26.66,-25.24 -39.98,-78.86 -39.98,-160.52l0 -335.14c0,-48.17 2.83,-83.36 8.48,-105.55 5.68,-22.21 15.67,-41.21 29.51,-57.11 15,-17.34 34.83,-29.98 59.32,-38.08 24.67,-8.14 65.33,-14.15 121.84,-17.89 56.33,-3.71 96.65,-3.04 120.83,1.87 24.33,4.89 43.98,14.92 59,30.27 13.82,14.08 23.81,31.76 29.49,53.22 5.67,21.45 8.5,56.25 8.5,104.42l0 335.14zm93.83 -536.48l168.99 -11.15 0 552.13c0,20.16 2.99,33.45 8.82,39.9 5.84,6.47 17.84,9.16 36.18,7.95 17.98,-1.19 29.99,-5.47 35.98,-12.71 6.01,-7.23 9,-20.92 9,-41.07l0 -552.14 162.01 -10.7 0 491.13c0,56.67 -3.01,98.37 -8.84,124.92 -5.84,26.54 -15.5,49.52 -29.17,68.58 -14.66,19.96 -34.66,34.62 -59.82,44.12 -25.17,9.49 -63,15.82 -113.34,19.15 -51.49,3.4 -89.49,2.06 -114.16,-4.14 -24.83,-6.18 -44.32,-18.23 -58.66,-36.29 -13.34,-16.62 -22.84,-37.66 -28.5,-63.1 -5.66,-25.3 -8.49,-67.11 -8.49,-125.45l0 -491.13zm523.98 690.36l0 -724.95 318.81 -21.04 0 129.99 -149.83 9.88 0 159.99 140.49 -9.26 0 124.99 -140.49 9.26 0 180 163.99 -10.82 0 129.99 -332.97 21.97zm580.95 -466.31l47 -3.09c21,-1.4 34.83,-5.97 41.67,-13.59 6.83,-7.63 10.34,-21.53 10.34,-41.69l0 -64.83c0,-20.33 -3.51,-33.76 -10.34,-40.65 -6.84,-6.87 -20.67,-9.63 -41.67,-8.24l-47 3.1 0 168.99zm0 111.99l0 176.9 -92.29 6.1 -73.9 143.94 -0.79 0.06 0 -724.95 225.81 -14.92c83.01,-5.46 138.33,1.71 165.83,21.73 27.49,20.02 41.33,58.92 41.33,116.59l0 63.5c0,40 -8.84,70.75 -26.5,92.26 -17.5,21.48 -46.99,37.08 -88.49,46.99 41,-0.71 71.49,10.12 91.65,32.79 20.17,22.5 30.33,57.15 30.33,103.98l0 82c0,58 -13.48,98.56 -40.66,121.68 -27.16,23.11 -82.32,37.44 -165.15,42.9l-89.84 5.93 76.74 -96.05 3.81 -4.75 0 -31.65c16.88,-1.87 28.43,-6.25 34.62,-13.14 7,-7.8 10.49,-21.71 10.49,-42.04l0 -83.99c0,-20.17 -3.49,-33.76 -10.65,-40.79 -7.17,-7.02 -21.01,-9.78 -41.34,-8.43l-51 3.36zm577.32 -319.08l-41.18 2.71 0 223.99 41.18 -2.71c21.82,-1.45 36.49,-6.08 43.82,-13.91 7.33,-7.81 11,-21.55 11,-41.38l0 -120.16c0,-20.16 -3.67,-33.59 -11,-40.45 -7.33,-6.84 -22,-9.54 -43.82,-8.09zm52.82 410.32c0,-25 -4.66,-41.86 -13.83,-50.76 -9.33,-8.88 -26.83,-12.38 -52.17,-10.72l-28 1.85 0 248.99 -168.98 11.15 0 -724.96 175.82 -11.61c104.33,-6.89 173.16,1.73 206.82,25.86 33.5,24.27 50.33,72 50.33,143.15l0 83.01c0,41.99 -9.16,74.59 -27.34,97.79 -18.32,23.05 -47.99,39.83 -89.32,50.06 38.33,2.98 66.82,14.1 85.16,33.38 18.34,19.28 27.66,47.68 27.66,85.02l0 189.98 -166.15 10.96 0 -183.15zm435.31 -144.56l76.65 -5.07 -36.99 -339.54 -39.66 344.61zm-204.16 312.46l108 -732.09 270.14 -17.84 110.84 717.65 -173 11.42 -19.99 -176.68 -107.01 7.07 -19.99 179.31 -168.99 11.16zm556.98 -36.77l0 -724.96 213.97 -14.13c86,-5.67 144,5.68 174,34.19 30,28.52 44.99,87.36 44.99,176.51l0 274.66c0,89.15 -14.99,149.99 -44.99,182.47 -30,32.46 -88,51.46 -174,57.13l-213.97 14.13zm258.97 -195.42l0 -367.3c0,-19.83 -3,-32.81 -8.84,-38.93 -5.83,-6.1 -17.82,-8.65 -36.16,-7.45l-45 2.98 0 465.98 45 -2.98c18,-1.19 30.01,-5.32 36,-12.37 6,-7.07 9,-20.42 9,-39.93zm436.98 -149.5l76.66 -5.05 -37 -339.56 -39.66 344.61zm-204.16 312.46l108 -732.09 270.15 -17.84 110.83 717.65 -173 11.42 -19.99 -176.68 -107.01 7.07 -19.99 179.31 -168.99 11.16zm719.12 -289.46l0 70.33c0,18.84 3.84,31.93 11.34,39.26 7.5,7.33 20.16,10.33 38.16,9.15 19.5,-1.3 32.66,-5.82 39.5,-13.79 6.84,-7.96 10.34,-22.34 10.34,-43.16l0 -51.34c0,-15.49 -1.01,-27.1 -3,-34.47 -1.84,-7.39 -5.18,-13.82 -9.68,-19.35 -11.16,-12.61 -36.66,-22.09 -76.66,-28.12 -18.33,-2.8 -32.5,-5.18 -42.49,-7.53 -47,-10.22 -79.16,-26.77 -96.84,-49.6 -17.48,-22.84 -26.32,-59.93 -26.32,-111.42l0 -67c0,-64.99 12.66,-111.15 37.83,-138.67 25.17,-27.32 68.84,-43.03 130.98,-47.12l50.01 -3.31c39,-2.57 71,-1.35 96.16,3.64 25,5.04 44.67,14.4 58.99,28.12 11.51,10.57 19.33,24.55 24.01,41.92 4.5,17.18 6.83,45.21 6.83,83.87l0 56.16 -149.82 9.89 0 -45.32c0,-22.84 -3,-37.82 -9,-44.91 -6.17,-7.1 -18.34,-9.95 -37.01,-8.72 -17.99,1.19 -30.15,5.49 -36.49,12.9 -6.34,7.43 -9.51,20.64 -9.51,39.97l0 46.82c0,35.5 30.35,58.82 91,70.15 17.16,3.55 30.84,6.3 41,8.64 46.49,9.92 78.49,26.14 95.83,48.34 17.5,22.33 26.17,58.92 26.17,109.76l0 97.66c0,60.66 -14.34,105.12 -43.17,133.84 -28.83,28.56 -75.83,45.01 -140.82,49.3l-45 2.96c-71.66,4.74 -120.83,-4.19 -147.67,-26.91 -26.82,-22.56 -40.32,-66.84 -40.32,-132.67l0 -78.99 155.65 -10.28zm-5042.22 403.98l0 -382.31c0,-20.17 -3,-33.47 -9,-39.9 -5.99,-6.44 -17.82,-9.16 -35.66,-7.99 -18.16,1.2 -30.33,5.51 -36.34,12.74 -5.99,7.22 -8.98,20.93 -8.98,41.1l0 382.31c0,20.51 2.99,33.96 8.98,40.24 6.01,6.26 18.18,8.79 36.34,7.59 17.84,-1.17 29.67,-5.29 35.66,-12.34 6,-7.07 9,-20.94 9,-41.44zm173 -35.25c0,49.83 -2.83,85.51 -8.34,107.22 -5.5,21.69 -15.16,40.32 -28.84,55.9 -14.65,16.97 -32.99,29.33 -55.16,37.13 -21.99,7.79 -63.83,13.73 -125.48,17.79 -61.83,4.09 -103.84,3.69 -125.82,-1.19 -22.18,-4.87 -40.68,-14.82 -55.34,-29.85 -13.66,-14.11 -23.34,-31.97 -29.17,-53.59 -5.83,-21.59 -8.82,-56.4 -8.82,-104.56l0 -335.15c0,-48.17 2.83,-83.36 8.49,-105.55 5.66,-22.21 15.66,-41.21 29.5,-57.11 14.99,-17.34 34.83,-29.98 59.32,-38.08 24.67,-8.14 65.33,-14.15 121.84,-17.89 56.33,-3.7 96.65,-3.04 120.83,1.87 24.33,4.89 43.99,14.92 58.99,30.26 13.82,14.09 23.83,31.77 29.49,53.23 5.68,21.44 8.51,56.26 8.51,104.42l0 335.15z"/>
  <path class="fil4" d="M-33482.41 51433.11l0 -39.91c0,-11.18 -1.54,-18.54 -4.54,-21.97 -3,-3.44 -9.1,-4.86 -18.37,-4.25 -9.09,0.6 -15,2.81 -18,6.56 -2.91,3.73 -4.36,11.28 -4.36,22.65l0 208.56c0,11.37 1.45,18.73 4.36,22.08 3,3.35 8.91,4.78 18,4.18 9.27,-0.61 15.37,-2.84 18.37,-6.67 3,-3.83 4.54,-11.39 4.54,-22.57l0 -54.1 84.01 -5.55 0 41.01c0,26.73 -1.36,46 -4.09,58 -2.82,12.01 -7.45,22.31 -14,30.93 -6.91,9.18 -15.82,15.86 -26.73,20.04 -11,4.17 -30.91,7.22 -59.83,9.13 -33.72,2.23 -56.64,2.01 -68.73,-0.65 -12,-2.66 -22.09,-8.09 -30.09,-16.28 -7.46,-7.7 -12.73,-17.44 -15.91,-29.23 -3.19,-11.79 -4.82,-30.78 -4.82,-57.14l0 -182.75c0,-26.27 1.54,-45.47 4.63,-57.58 3.09,-12.12 8.46,-22.47 16.1,-31.15 8.18,-9.46 19,-16.35 32.36,-20.78 13.46,-4.43 35.55,-7.71 66.46,-9.75 26.46,-1.75 45.65,-1.29 57.65,1.38 12,2.66 21.45,8.13 28.36,16.4 6.73,7.74 11.55,17.6 14.37,29.59 2.82,11.91 4.27,31 4.27,57.09l0 27.19 -84.01 5.54zm129.2 -142.17l92.18 -6.09 0 301.21c0,11 1.64,18.26 4.82,21.78 3.19,3.51 9.73,4.99 19.74,4.33 9.82,-0.65 16.36,-2.99 19.63,-6.93 3.28,-3.94 4.91,-11.42 4.91,-22.42l0 -301.21 88.38 -5.83 0 267.93c0,30.92 -1.64,53.66 -4.82,68.15 -3.19,14.48 -8.46,27.01 -15.92,37.41 -8,10.89 -18.91,18.88 -32.63,24.07 -13.73,5.18 -34.37,8.63 -61.83,10.45 -28.09,1.85 -48.82,1.13 -62.28,-2.26 -13.54,-3.38 -24.18,-9.95 -32,-19.8 -7.27,-9.07 -12.45,-20.54 -15.54,-34.43 -3.1,-13.8 -4.64,-36.61 -4.64,-68.43l0 -267.93zm376.49 207.53l41.82 -2.76 -20.19 -185.23 -21.63 187.99zm-111.38 170.46l58.92 -399.38 147.38 -9.72 60.46 391.49 -94.38 6.23 -10.91 -96.38 -58.37 3.86 -10.91 97.81 -92.19 6.09zm303.85 -20.06l0 -395.49 129.83 -8.57 71.37 307.96 -5.36 -312.31 83.46 -5.51 0 395.49 -129.29 8.53 -72.64 -316.42 6.09 320.81 -83.46 5.51zm337.21 -22.25l0 -395.49 116.73 -7.71c46.92,-3.1 78.56,3.09 94.93,18.64 16.36,15.56 24.54,47.66 24.54,96.3l0 149.83c0,48.64 -8.18,81.83 -24.54,99.54 -16.37,17.72 -48.01,28.08 -94.93,31.18l-116.73 7.71zm141.29 -106.61l0 -200.38c0,-10.82 -1.64,-17.89 -4.82,-21.24 -3.19,-3.33 -9.73,-4.72 -19.74,-4.06l-24.54 1.63 0 254.2 24.54 -1.62c9.82,-0.65 16.37,-2.9 19.65,-6.75 3.27,-3.85 4.91,-11.15 4.91,-21.78zm286.84 -14.84l0 -208.57c0,-11 -1.64,-18.25 -4.91,-21.77 -3.27,-3.51 -9.73,-4.99 -19.46,-4.35 -9.9,0.65 -16.54,3 -19.81,6.95 -3.28,3.94 -4.91,11.41 -4.91,22.42l0 208.56c0,11.18 1.63,18.53 4.91,21.95 3.27,3.42 9.91,4.8 19.81,4.14 9.73,-0.64 16.19,-2.89 19.46,-6.74 3.27,-3.85 4.91,-11.41 4.91,-22.59zm94.37 -19.23c0,27.18 -1.54,46.65 -4.54,58.48 -3,11.84 -8.27,22.01 -15.73,30.5 -8,9.25 -18.01,16 -30.1,20.26 -12,4.24 -34.82,7.48 -68.46,9.7 -33.73,2.23 -56.64,2.01 -68.64,-0.65 -12.09,-2.66 -22.18,-8.08 -30.19,-16.28 -7.45,-7.7 -12.72,-17.44 -15.9,-29.23 -3.19,-11.79 -4.82,-30.77 -4.82,-57.05l0 -182.84c0,-26.27 1.54,-45.47 4.63,-57.58 3.09,-12.11 8.55,-22.47 16.09,-31.15 8.19,-9.46 19.01,-16.35 32.37,-20.78 13.46,-4.43 35.64,-7.71 66.46,-9.75 30.73,-2.03 52.74,-1.66 65.92,1.01 13.27,2.67 24,8.15 32.18,16.52 7.55,7.68 13.01,17.32 16.1,29.03 3.09,11.7 4.63,30.69 4.63,56.97l0 182.84zm189.2 93.7l0 -395.49 92.19 -6.08 0 324.57 87.28 -5.76 0 70.91 -179.47 11.85zm209.39 -13.82l0 -395.49 173.92 -11.48 0 70.91 -81.74 5.4 0 87.28 76.65 -5.06 0 68.19 -76.65 5.06 0 98.19 89.47 -5.91 0 70.92 -181.65 11.99zm398.76 -26.33l0 -324.57 -62.19 4.11 0 -70.92 216.56 -14.29 0 70.91 -62.19 4.11 0 324.57 -92.18 6.08zm326.3 -114.72l0 -208.56c0,-11.01 -1.64,-18.26 -4.91,-21.78 -3.27,-3.51 -9.73,-4.99 -19.46,-4.35 -9.91,0.66 -16.54,3 -19.82,6.95 -3.27,3.94 -4.91,11.42 -4.91,22.42l0 208.56c0,11.19 1.64,18.53 4.91,21.95 3.28,3.42 9.91,4.8 19.82,4.15 9.73,-0.65 16.19,-2.89 19.46,-6.74 3.27,-3.86 4.91,-11.42 4.91,-22.6zm94.37 -19.23c0,27.18 -1.54,46.65 -4.54,58.48 -3,11.84 -8.28,22.01 -15.73,30.5 -8.01,9.26 -18.01,16.01 -30.1,20.26 -12,4.25 -34.82,7.48 -68.46,9.7 -33.73,2.23 -56.64,2.01 -68.64,-0.65 -12.09,-2.66 -22.19,-8.08 -30.19,-16.28 -7.45,-7.69 -12.72,-17.44 -15.9,-29.22 -3.19,-11.79 -4.82,-30.78 -4.82,-57.06l0 -182.83c0,-26.28 1.54,-45.47 4.63,-57.58 3.09,-12.12 8.55,-22.48 16.09,-31.16 8.18,-9.45 19.01,-16.35 32.37,-20.78 13.46,-4.43 35.64,-7.71 66.46,-9.75 30.73,-2.03 52.74,-1.66 65.92,1.01 13.27,2.68 24,8.15 32.18,16.52 7.55,7.69 13,17.33 16.1,29.03 3.09,11.71 4.63,30.69 4.63,56.97l0 182.84zm188.11 -168.07l0 -39.91c0,-11.18 -1.55,-18.54 -4.55,-21.97 -3,-3.44 -9.09,-4.86 -18.36,-4.25 -9.09,0.6 -15.01,2.81 -18.01,6.55 -2.91,3.74 -4.36,11.29 -4.36,22.66l0 208.57c0,11.36 1.45,18.71 4.36,22.07 3,3.35 8.92,4.77 18.01,4.18 9.27,-0.62 15.36,-2.84 18.36,-6.67 3,-3.84 4.55,-11.39 4.55,-22.57l0 -54.1 84.01 -5.55 0 41.01c0,26.73 -1.37,46 -4.1,58 -2.82,12 -7.45,22.31 -14,30.93 -6.91,9.18 -15.81,15.86 -26.72,20.03 -11.01,4.19 -30.92,7.23 -59.83,9.14 -33.73,2.22 -56.64,2.01 -68.73,-0.65 -12.01,-2.67 -22.1,-8.09 -30.1,-16.29 -7.45,-7.69 -12.72,-17.44 -15.91,-29.22 -3.18,-11.79 -4.81,-30.78 -4.81,-57.14l0 -182.75c0,-26.28 1.54,-45.47 4.63,-57.58 3.09,-12.11 8.46,-22.47 16.09,-31.16 8.18,-9.45 19,-16.35 32.37,-20.77 13.46,-4.44 35.55,-7.71 66.46,-9.75 26.46,-1.75 45.64,-1.28 57.64,1.37 12,2.66 21.46,8.14 28.37,16.4 6.72,7.74 11.54,17.61 14.36,29.6 2.82,11.91 4.28,31 4.28,57.09l0 27.19 -84.01 5.54zm236.66 83.12l41.82 -2.77 -20.19 -185.22 -21.63 187.99zm-111.38 170.45l58.92 -399.37 147.38 -9.73 60.46 391.5 -94.38 6.23 -10.91 -96.38 -58.37 3.85 -10.91 97.82 -92.19 6.08zm351.31 -147.01l0 -38.64c0,-14.55 1.82,-26.22 5.36,-34.72 3.55,-8.6 9.64,-16.28 18.18,-23.12l4.46 -3.74c18.91,-15.07 30.73,-25.31 35.73,-30.63 2.82,-3.19 4.82,-6.87 6,-11.13 1.18,-4.26 1.73,-11.12 1.73,-20.57l0 -27.01c0,-11 -1.55,-18.26 -4.64,-21.87 -3.09,-3.62 -9.18,-5.12 -18.27,-4.53 -8.91,0.59 -14.82,2.8 -17.82,6.73 -3,3.92 -4.55,11.48 -4.55,22.67l0 31.54 -84.01 5.55 0 -11.92c0,-43.91 7.55,-73.95 22.55,-90.13 15.01,-16.17 44.37,-25.65 88.01,-28.53 41.82,-2.76 70.46,1.44 86.01,12.68 15.55,11.25 23.27,33.38 23.27,66.2l0 41.46c0,21.09 -2.63,36.99 -7.81,47.7 -5.28,10.62 -15.01,21.26 -29.19,31.75 -2.46,1.79 -6.09,4.31 -10.91,7.63 -19,12.71 -28.46,26.43 -28.46,41.34l0 25.63 -85.64 5.66zm0.54 123.79l0 -87.29 85.1 -5.61 0 87.28 -85.1 5.62z"/>
  <polygon class="fil4" points="-32801.49,51074.39 -32930.69,51236.09 -32989.37,51239.96 -32907.98,51081.42 "/>
  <path class="fil4" d="M-32532.11 49430.24l0 441.57 -362.25 19.25 0 -1554.04 364.39 -19.37c222.57,-11.83 370.11,8.91 442.64,61.85 72.16,52.97 108.24,155.37 108.24,307.56l0 314.74c0,149.33 -35.37,255.17 -105.74,317.14 -70.74,62 -199.71,98.14 -387.62,108.13l-59.66 3.17zm188.63 -406.93l0 -329.38c0,-43.23 -7.51,-72.13 -22.15,-87.07 -14.65,-14.94 -43.23,-21.28 -85.74,-19.02l-80.74 4.3 0 553.02 80.74 -4.29c42.51,-2.27 71.09,-11.64 85.74,-28.14 14.64,-16.5 22.15,-46.19 22.15,-89.42zm920.28 497.68l0 -117.18c0,-23.94 -6.79,-41.8 -20.37,-54.29 -13.93,-12.48 -32.87,-18.26 -57.15,-16.97 -24.66,1.31 -43.59,9.11 -56.81,23.03 -13.22,13.92 -20,32.5 -20,56.44l0 117.18c0,24.29 6.78,42.86 20,55.02 13.22,12.16 32.15,17.58 56.81,16.27 24.28,-1.29 43.22,-8.73 57.15,-22.33 13.58,-13.58 20.37,-32.88 20.37,-57.17zm16.79 290.98l0 -87.88c-23.94,39.85 -53.95,68.96 -90.03,87.31 -36.44,18.37 -85.02,29.17 -145.76,32.4 -92.17,4.9 -156.47,-13.48 -193.27,-54.75 -36.8,-41.27 -55.02,-117.82 -55.02,-229.64l0 -132.9c0,-91.46 21.08,-160.1 62.88,-206.26 41.8,-45.81 107.17,-71.08 195.77,-75.79 38.59,-2.05 75.74,1.34 111.11,10.53 35.72,8.82 68.23,22.81 97.53,42.33l0 -162.55c0,-44.3 -5,-73.33 -15.37,-87.07 -10,-13.76 -30.72,-19.8 -62.15,-18.13 -30.38,1.61 -50.02,9.8 -60.03,24.63 -9.64,14.8 -14.64,44.36 -14.64,88.66l-280.8 14.92 0 -79.3c0,-100.39 24.29,-169.92 73.23,-208.96 48.95,-38.68 149.69,-62.26 302.59,-70.39 151.84,-8.07 252.23,4.81 301.17,38.3 48.94,33.83 73.24,100.78 73.24,201.17l0 857.4 -300.45 15.97zm823.11 -806.48l0 430.84c0,44.66 5.35,73.66 16.07,87.03 10.72,13.37 31.8,19.39 63.24,17.72 30.72,-1.64 51.09,-9.86 61.44,-24.35 10.37,-14.48 15.72,-44.06 15.72,-88.72l0 -430.84c0,-44.66 -5.35,-73.66 -15.72,-87.41 -10.35,-13.74 -30.72,-19.8 -61.44,-18.17 -31.44,1.67 -52.52,9.94 -63.24,25.16 -10.72,15.21 -16.07,44.8 -16.07,88.74zm-12.51 763.39l-304.73 16.2 0 -1581.91 317.24 -16.86 0 596.25c25.72,-46.02 58.59,-81 97.88,-104.16 39.3,-23.53 87.53,-36.81 145.05,-39.86 87.88,-4.68 150.04,18.46 186.48,69.75 36.8,50.92 55.02,142.48 55.02,273.59l0 423.7c0,132.54 -17.86,226.02 -53.23,280.42 -35.72,54.41 -96.46,83.72 -182.2,88.28 -56.45,3 -104.67,-6.58 -145.05,-28.38 -40.01,-22.16 -78.95,-60.82 -116.46,-116.35l0 139.33zm1008.88 -53.62l-319.38 16.97 0 -1581.91 319.38 -16.97 0 1581.91zm501.94 -789.42l0 430.85c0,43.22 6.07,71.84 17.86,85.86 11.79,14.02 35.73,20.25 72.17,18.32 35.01,-1.86 58.23,-10.6 70.02,-25.88 11.79,-15.27 17.86,-44.53 17.86,-87.76l0 -430.84c0,-43.94 -5.71,-72.94 -17.15,-86.98 -11.78,-14.01 -35.01,-19.93 -70.73,-18.03 -35.73,1.9 -59.66,10.67 -71.81,26.32 -12.15,15.66 -18.22,44.92 -18.22,88.14zm-325.81 96.99c0,-168.98 28.58,-285.18 85.74,-348.24 57.52,-63.07 167.55,-98.93 330.1,-107.57 162.19,-8.62 271.86,15.56 329.38,72.52 57.52,56.96 86.46,170.1 86.46,339.08l0 271.87c0,167.55 -28.58,282.67 -85.74,345.37 -57.52,62.72 -167.55,98.58 -330.1,107.22 -162.55,8.64 -272.58,-15.16 -330.1,-71.41 -57.16,-56.26 -85.74,-168.71 -85.74,-336.97l0 -271.87z"/>
  <path class="fil4" d="M-36314.3 49250.09l0 255.44c0,23.57 3.58,39.46 11.08,46.92 7.15,7.84 21.43,11.01 42.51,9.89 20.37,-1.08 33.94,-5.73 41.09,-13.62 6.78,-8.22 10.36,-24.49 10.36,-48.78l0 -1241.45 364.4 -19.37 0 1163.93c0,158.62 -28.94,267.69 -86.46,328.26 -57.52,60.22 -162.55,94.39 -314.74,102.48 -146.83,7.8 -247.93,-11.12 -303.67,-56.75 -56.08,-45.24 -83.95,-135.93 -83.95,-271.33l0 -238.64 319.38 -16.98zm1472.95 -607.74l0 1097.48 -298.3 15.85 0 -139.33c-31.44,58.48 -67.88,101.14 -109.32,127.64 -41.44,26.85 -93.6,41.77 -156.48,45.12 -85.74,4.55 -145.75,-15.84 -180.05,-60.82 -33.94,-44.99 -51.09,-131.97 -51.09,-261.29l0 -782.39 319.39 -16.97 0 765.59c0,38.94 5.71,65.07 16.79,78.42 11.07,13.35 31.08,19.43 60.37,17.87 30.01,-1.59 50.73,-9.84 62.16,-24.74 11.44,-14.9 17.15,-41.64 17.15,-79.86l0 -765.6 319.38 -16.97zm636.63 771.76l0 -117.18c0,-23.94 -6.79,-41.79 -20.37,-54.29 -13.93,-12.48 -32.86,-18.26 -57.15,-16.97 -24.66,1.31 -43.59,9.11 -56.81,23.03 -13.22,13.92 -20,32.5 -20,56.44l0 117.18c0,24.29 6.78,42.86 20,55.02 13.22,12.16 32.15,17.58 56.81,16.27 24.29,-1.29 43.22,-8.73 57.15,-22.32 13.58,-13.59 20.37,-32.89 20.37,-57.18zm16.79 290.98l0 -87.88c-23.94,39.85 -53.95,68.96 -90.03,87.31 -36.44,18.37 -85.02,29.17 -145.76,32.4 -92.17,4.9 -156.47,-13.48 -193.27,-54.75 -36.8,-41.27 -55.02,-117.82 -55.02,-229.64l0 -132.9c0,-91.46 21.08,-160.1 62.88,-206.26 41.8,-45.81 107.17,-71.08 195.77,-75.78 38.59,-2.06 75.74,1.33 111.11,10.52 35.72,8.82 68.23,22.81 97.53,42.33l0 -162.55c0,-44.3 -5,-73.33 -15.36,-87.06 -10.01,-13.76 -30.73,-19.81 -62.16,-18.14 -30.37,1.62 -50.02,9.8 -60.03,24.63 -9.64,14.8 -14.64,44.36 -14.64,88.66l-280.8 14.93 0 -79.31c0,-100.39 24.29,-169.92 73.23,-208.96 48.95,-38.68 149.69,-62.26 302.6,-70.38 151.83,-8.08 252.22,4.81 301.16,38.29 48.94,33.84 73.24,100.78 73.24,201.17l0 857.4 -300.45 15.97zm499.44 -26.55l0 -1097.48 296.16 -15.74 0 141.84c32.15,-58.88 68.95,-101.91 110.39,-129.48 41.44,-27.21 93.24,-42.47 155.4,-45.77 85.74,-4.56 145.76,15.82 180.06,61.16 33.94,45 51.09,131.97 51.09,260.22l0 783.1 -317.24 16.86 0 -765.59c0,-38.94 -5.72,-65.07 -17.15,-78.4 -11.43,-13.32 -32.15,-19.37 -62.16,-17.77 -30.01,1.6 -50.73,9.84 -62.16,24.38 -11.44,14.54 -17.15,41.28 -17.15,80.22l0 765.59 -317.24 16.86z"/>
  <path class="fil4 str0" d="M-35001.63 47247.58c12.46,12.47 14.02,26.11 4.67,40.91 -9.35,14.81 -22.59,21.43 -39.73,19.87 -28.06,-10.91 -61.95,-21.43 -101.7,-31.55 -39.73,-10.13 -81.42,-17.92 -125.06,-23.38 -43.64,-5.46 -87.28,-7.41 -130.91,-5.85 -43.64,1.56 -84.55,8.18 -122.73,19.87 -38.18,11.69 -71.29,30 -99.35,54.94 -28.05,24.93 -47.53,57.66 -58.44,98.18 -14.02,56.11 -15.2,101.69 -3.51,136.76 11.69,35.06 31.56,63.12 59.61,84.15 28.05,21.04 62.73,36.63 104.03,46.75 41.3,10.14 84.55,18.32 129.74,24.55 45.2,6.24 90,12.08 134.42,17.53 44.41,5.46 85.32,14.42 122.72,26.89 90.4,29.61 147.67,68.57 171.82,116.88 24.16,48.31 26.5,98.57 7.02,150.78 -19.48,52.21 -55.33,102.47 -107.54,150.78 -52.2,48.31 -109.86,86.49 -172.98,114.55 -63.12,28.05 -126.63,42.46 -190.53,43.24 -63.89,0.78 -116.1,-19.87 -156.62,-61.94 -14.03,-15.59 -32.34,-36.63 -54.93,-63.12 -22.6,-26.49 -40.13,-53.77 -52.6,-81.82 -12.47,-28.05 -17.14,-54.16 -14.03,-78.32 3.12,-24.15 23.38,-40.9 60.78,-50.25 9.35,7.79 15.2,16.36 17.53,25.71 2.34,9.35 3.9,19.48 4.68,30.39 0.78,10.91 1.56,22.99 2.34,36.24 0.78,13.24 4.28,27.66 10.52,43.24 10.9,26.49 29.22,50.26 54.93,71.3 25.72,21.04 52.6,35.46 80.65,43.25 34.29,9.35 72.08,10.52 113.38,3.5 41.3,-7.01 81.82,-19.48 121.56,-37.4 39.74,-17.92 76.36,-40.13 109.87,-66.62 33.51,-26.5 59.61,-55.33 78.31,-86.49 26.5,-45.2 38.18,-82.99 35.06,-113.38 -3.11,-30.39 -16.36,-54.94 -39.73,-73.64 -23.38,-18.7 -53.77,-33.51 -91.17,-44.42 -37.41,-10.9 -77.15,-19.86 -119.22,-26.88 -42.08,-7.01 -84.16,-12.86 -126.24,-17.53 -42.08,-4.68 -78.7,-11.69 -109.87,-21.04 -54.54,-15.59 -99.74,-31.17 -135.59,-46.75 -35.84,-15.59 -63.11,-35.85 -81.81,-60.78 -18.71,-24.94 -29.61,-56.5 -32.73,-94.68 -3.12,-38.18 0.78,-87.66 11.69,-148.44 21.81,-76.36 61.95,-132.08 120.39,-167.14 58.44,-35.07 123.9,-56.11 196.36,-63.12 72.47,-7.01 146.11,-3.51 220.91,10.52 74.81,14.02 139.48,31.95 194.03,53.76zm205.72 656.89c12.47,-3.12 28.83,-3.9 49.09,-2.34 20.26,1.56 40.91,4.68 61.95,9.35 21.03,4.68 40.91,10.91 59.61,18.7 18.7,7.8 32.72,17.15 42.07,28.06 34.29,45.19 48.71,89.99 43.25,134.41 -5.45,44.42 -22.6,82.21 -51.43,113.38 -28.83,31.17 -65.84,52.6 -111.04,64.28 -45.19,11.69 -90.39,6.63 -135.58,-15.19 -12.47,-6.23 -24.55,-11.69 -36.24,-16.36 -11.69,-4.68 -22.2,-11.69 -31.55,-21.04 -15.59,-15.59 -22.99,-40.91 -22.21,-75.98 0.78,-35.06 7.01,-70.13 18.7,-105.19 11.69,-35.06 27.66,-65.85 47.92,-92.34 20.26,-26.49 42.08,-39.74 65.46,-39.74zm116.88 84.15c-35.84,-20.25 -67.79,-23.37 -95.85,-9.34 -28.04,14.02 -50.65,32.72 -67.79,56.1 -3.11,3.12 -6.62,10.52 -10.52,22.21 -3.89,11.69 -7.79,24.15 -11.68,37.4 -3.9,13.25 -5.85,26.5 -5.85,39.74 0,13.25 3.9,22.99 11.69,29.22 26.49,23.38 53.76,37.41 81.82,42.08 28.05,4.67 53.76,3.51 77.14,-3.51 23.38,-7.01 43.25,-19.09 59.61,-36.23 16.37,-17.14 26.89,-36.24 31.56,-57.27 4.67,-21.04 1.56,-42.08 -9.35,-63.12 -10.91,-21.04 -31.17,-40.13 -60.78,-57.28zm229.09 -105.19c6.24,-7.79 12.86,-13.24 19.87,-16.36 7.02,-3.12 13.64,-3.51 19.87,-1.17 6.24,2.34 10.52,6.62 12.86,12.86 2.34,6.23 1.95,14.8 -1.17,25.71 -17.14,26.49 -26.49,57.27 -28.05,92.34 -1.56,35.06 3.9,68.18 16.36,99.35 12.47,31.17 31.17,57.27 56.11,78.31 24.93,21.04 56.1,31.56 93.5,31.56 35.85,-1.56 65.46,-11.69 88.84,-30.39 23.37,-18.7 42.07,-41.69 56.1,-68.96 14.03,-27.28 24.15,-55.32 30.39,-84.16 6.23,-28.83 10.13,-53.38 11.69,-73.63l0 -16.37c0,-4.67 0.78,-8.57 2.33,-11.68 0,-1.57 0.4,-2.73 1.17,-3.51 0.78,-0.78 1.18,-1.95 1.18,-3.51 3.11,-3.12 4.67,-5.45 4.67,-7.01l7.01 -7.02 14.03 -7.01c10.91,-3.11 18.7,0 23.37,9.35 3.12,3.12 4.68,7.02 4.68,11.69 0,1.56 0.39,2.34 1.17,2.34 0.78,0 1.17,0.78 1.17,2.33l0 2.35c0,54.54 7.4,115.32 22.21,182.33 14.8,67.02 28.05,135.98 39.74,206.89 11.69,70.91 18.31,142.98 19.87,216.23 1.56,73.25 -11.69,144.16 -39.75,212.73 -10.9,26.49 -35.45,48.31 -73.63,65.45 -38.18,17.15 -78.7,27.67 -121.56,31.56 -42.86,3.9 -83.37,0.39 -121.56,-10.52 -38.18,-10.9 -62.73,-30.39 -73.63,-58.44 -3.12,-9.35 -2.35,-18.31 2.33,-26.88 4.68,-8.57 10.13,-14.81 16.37,-18.7 6.23,-3.9 12.85,-5.07 19.86,-3.51 7.02,1.56 12.87,7.79 17.54,18.7 29.61,9.35 60.78,16.75 93.5,22.21 32.73,5.45 63.51,5.45 92.34,0 28.84,-5.46 53.77,-17.53 74.81,-36.24 21.04,-18.7 35.45,-46.75 43.25,-84.15 7.79,-42.08 11.3,-85.72 10.52,-130.91 -0.78,-45.2 -4.68,-90.78 -11.69,-136.76 -7.01,-45.97 -15.2,-91.55 -24.55,-136.75 -9.35,-45.19 -18.7,-88.05 -28.05,-128.57 -20.26,48.31 -48.31,89.22 -84.15,122.73 -35.85,33.51 -80.27,47.92 -133.25,43.25 -46.76,-4.68 -86.5,-20.26 -119.22,-46.76 -32.73,-26.49 -57.28,-58.83 -73.64,-97.01 -16.37,-38.18 -23.77,-79.09 -22.21,-122.73 1.56,-43.64 14.03,-84.15 37.4,-121.56z"/>
 </g>
</svg>
