<?xml version="1.0" encoding="UTF-8"?>
<!DOCTYPE svg PUBLIC "-//W3C//DTD SVG 1.1//EN" "http://www.w3.org/Graphics/SVG/1.1/DTD/svg11.dtd">
<!-- Creator: CorelDRAW 2021 (64-Bit) -->
<svg xmlns="http://www.w3.org/2000/svg" xml:space="preserve" width="215.9mm" height="279.4mm" version="1.1" style="shape-rendering:geometricPrecision; text-rendering:geometricPrecision; image-rendering:optimizeQuality; fill-rule:evenodd; clip-rule:evenodd"
viewBox="0 0 21590 27940"
 xmlns:xlink="http://www.w3.org/1999/xlink"
 xmlns:xodm="http://www.corel.com/coreldraw/odm/2003">
 <defs>
  <style type="text/css">
   <![CDATA[
    .str0 {stroke:#1A6396;stroke-width:7.62;stroke-miterlimit:22.9256}
    .fil2 {fill:none}
    .fil4 {fill:none;fill-rule:nonzero}
    .fil1 {fill:#1A6396}
    .fil3 {fill:white;fill-rule:nonzero}
    .fil0 {fill:url(#id8);fill-opacity:0.501961}
   ]]>
  </style>
   <clipPath id="id0">
    <path d="M27515.68 26882.39l18357.1 0 0 7999.99 -18357.1 0 0 -7999.99z"/>
   </clipPath>
   <clipPath id="id1">
    <path d="M27515.68 26882.39l18357.1 0 0 7999.99 -18357.1 0 0 -7999.99z"/>
   </clipPath>
    <clipPath id="id2">
     <path d="M28447.06 26882.39l17425.72 0 0 7999.99 -17425.72 0 0 -7999.99z"/>
    </clipPath>
    <clipPath id="id3">
     <path d="M27515.68 26882.39l18357.1 0 0 7999.99 -18357.1 0 0 -7999.99z"/>
    </clipPath>
     <mask id="id4">
  <linearGradient id="id5" gradientUnits="userSpaceOnUse" x1="42634.53" y1="30882.27" x2="37853.96" y2="30882.27">
   <stop offset="0" style="stop-opacity:0; stop-color:white"/>
   <stop offset="1" style="stop-opacity:1; stop-color:white"/>
  </linearGradient>
      <rect style="fill:url(#id5)" x="27505.68" y="26872.39" width="14890.52" height="8019.99"/>
     </mask>
    <clipPath id="id6">
     <path d="M45872.78 27121.15l0 7761.23 -6828.03 0 0 -7761.23 6828.03 0z"/>
    </clipPath>
    <clipPath id="id7">
     <path d="M27515.68 26882.39l18357.1 0 0 7999.99 -18357.1 0 0 -7999.99z"/>
    </clipPath>
  <linearGradient id="id8" gradientUnits="userSpaceOnUse" x1="27677.85" y1="29610.17" x2="45710.61" y2="32154.6">
   <stop offset="0" style="stop-opacity:1; stop-color:#E6E6E6"/>
   <stop offset="0.129412" style="stop-opacity:1; stop-color:#FBFBFB"/>
   <stop offset="0.509804" style="stop-opacity:1; stop-color:white"/>
   <stop offset="0.831373" style="stop-opacity:1; stop-color:#FCFCFC"/>
   <stop offset="1" style="stop-opacity:1; stop-color:#E6E6E6"/>
  </linearGradient>
 </defs>
 <g id="Capa_x0020_1">
  <metadata id="CorelCorpID_0Corel-Layer"/>
  <g style="clip-path:url(#id0)">
   <polygon class="fil0" points="27515.68,26882.39 45872.78,26882.39 45872.78,34882.38 27515.68,34882.38 "/>
  </g>
  <g style="clip-path:url(#id1)">
   <g id="_1517400873536">
   </g>
   <g style="clip-path:url(#id2)">
    <image x="28447.06" y="23491.56" width="17500.46" height="11390.82" xlink:href="Juan Pablo Cano_Pieza home web 04_1ddeFebrero2023_Images\Juan Pablo Cano_Pieza home web 04_1ddeFebrero2023_ImgID1.png"/>
   </g>
   <g style="clip-path:url(#id3)">
    <polygon class="fil1" style="mask:url(#id4)" points="27515.68,26882.39 42386.2,26882.39 42386.2,34882.38 27515.68,34882.38 "/>
   </g>
   <g style="clip-path:url(#id6)">
    <image x="39044.75" y="27121.16" width="6828.02" height="8102.37" xlink:href="Juan Pablo Cano_Pieza home web 04_1ddeFebrero2023_Images\Juan Pablo Cano_Pieza home web 04_1ddeFebrero2023_ImgID2.png"/>
   </g>
   <g style="clip-path:url(#id7)">
   </g>
  </g>
  <polygon class="fil2" points="27515.68,26882.39 45872.78,26882.39 45872.78,34882.38 27515.68,34882.38 "/>
  <path class="fil3" d="M33223.79 31567.79l0 451.18 -370.14 19.68 0 -1587.9 372.33 -19.79c227.42,-12.09 378.18,9.1 452.28,63.21 73.74,54.12 110.61,158.75 110.61,314.25l0 321.6c0,152.58 -36.14,260.73 -108.05,324.05 -72.28,63.34 -204.06,100.28 -396.06,110.48l-60.97 3.24zm192.74 -415.79l0 -336.56c0,-44.17 -7.66,-73.71 -22.63,-88.97 -14.97,-15.26 -44.17,-21.74 -87.61,-19.43l-82.5 4.38 0 565.07 82.5 -4.38c43.44,-2.31 72.64,-11.89 87.61,-28.75 14.97,-16.86 22.63,-47.19 22.63,-91.36z"/>
  <path id="_1" class="fil3" d="M34356.86 31660.51l0 -119.73c0,-24.46 -6.94,-42.71 -20.81,-55.47 -14.23,-12.75 -33.58,-18.66 -58.4,-17.35 -25.19,1.34 -44.54,9.31 -58.04,23.54 -13.51,14.22 -20.44,33.21 -20.44,57.67l0 119.73c0,24.82 6.93,43.8 20.44,56.22 13.5,12.42 32.85,17.96 58.04,16.62 24.82,-1.31 44.17,-8.91 58.4,-22.81 13.87,-13.88 20.81,-33.6 20.81,-58.42zm17.16 297.32l0 -89.8c-24.46,40.73 -55.12,70.46 -91.99,89.21 -37.23,18.78 -86.88,29.81 -148.94,33.11 -94.17,5 -159.88,-13.77 -197.48,-55.93 -37.6,-42.18 -56.21,-120.41 -56.21,-234.66l0 -135.79c0,-93.45 21.53,-163.58 64.24,-210.75 42.71,-46.81 109.51,-72.62 200.04,-77.43 39.42,-2.1 77.39,1.35 113.53,10.75 36.5,9.01 69.72,23.31 99.65,43.25l0 -166.09c0,-45.27 -5.11,-74.92 -15.7,-88.96 -10.22,-14.06 -31.39,-20.23 -63.51,-18.53 -31.03,1.65 -51.11,10.02 -61.33,25.16 -9.85,15.13 -14.96,45.33 -14.96,90.6l-286.92 15.25 0 -81.04c0,-102.57 24.82,-173.62 74.83,-213.51 50.01,-39.52 152.95,-63.61 309.19,-71.91 155.13,-8.25 257.71,4.91 307.72,39.12 50.01,34.57 74.83,102.98 74.83,205.55l0 876.08 -306.99 16.32z"/>
  <path id="_2" class="fil3" d="M35215.05 31133.78l0 440.23c0,45.63 5.47,75.28 16.43,88.92 10.95,13.66 32.48,19.82 64.61,18.11 31.39,-1.67 52.2,-10.08 62.78,-24.88 10.59,-14.79 16.06,-45.02 16.06,-90.65l0 -440.23c0,-45.63 -5.47,-75.27 -16.06,-89.31 -10.58,-14.04 -31.39,-20.23 -62.78,-18.56 -32.13,1.71 -53.66,10.15 -64.61,25.7 -10.96,15.55 -16.43,45.77 -16.43,90.67zm-12.78 780.03l-311.37 16.55 0 -1616.37 324.15 -17.23 0 609.24c26.28,-47.03 59.86,-82.75 100.02,-106.43 40.15,-24.03 89.43,-37.6 148.2,-40.73 89.8,-4.77 153.32,18.86 190.55,71.27 37.6,52.03 56.21,145.59 56.21,279.55l0 432.93c0,135.43 -18.25,230.94 -54.39,286.52 -36.5,55.6 -98.55,85.55 -186.16,90.2 -57.68,3.07 -106.96,-6.72 -148.21,-28.99 -40.88,-22.65 -80.67,-62.14 -119,-118.87l0 142.36z"/>
  <polygon id="_3" class="fil3" points="36233.13,31859.01 35906.79,31876.36 35906.79,30259.99 36233.13,30242.64 "/>
  <path id="_4" class="fil3" d="M36746 31052.4l0 440.23c0,44.17 6.2,73.41 18.25,87.74 12.04,14.32 36.5,20.69 73.74,18.71 35.77,-1.9 59.5,-10.83 71.54,-26.43 12.05,-15.61 18.25,-45.51 18.25,-89.68l0 -440.23c0,-44.9 -5.84,-74.52 -17.52,-88.86 -12.04,-14.33 -35.77,-20.37 -72.27,-18.43 -36.51,1.94 -60.96,10.9 -73.38,26.9 -12.41,15.99 -18.61,45.88 -18.61,90.05zm-332.91 99.1c0,-172.66 29.2,-291.39 87.6,-355.82 58.78,-64.45 171.21,-101.08 337.3,-109.91 165.72,-8.81 277.79,15.89 336.56,74.09 58.77,58.21 88.33,173.81 88.33,346.47l0 277.79c0,171.2 -29.2,288.84 -87.6,352.9 -58.77,64.08 -171.2,100.72 -337.29,109.55 -166.09,8.83 -278.52,-15.5 -337.3,-72.96 -58.4,-57.5 -87.6,-172.39 -87.6,-344.32l0 -277.79z"/>
  <path class="fil3" d="M29359.17 31383.71l0 261c0,24.09 3.65,40.32 11.32,47.95 7.3,8 21.9,11.25 43.44,10.1 20.8,-1.1 34.68,-5.86 41.98,-13.91 6.93,-8.41 10.58,-25.02 10.58,-49.84l0 -1268.5 372.34 -19.79 0 1189.28c0,162.08 -29.57,273.52 -88.34,335.41 -58.77,61.54 -166.09,96.44 -321.6,104.71 -150.02,7.97 -253.33,-11.36 -310.27,-57.98 -57.31,-46.22 -85.79,-138.89 -85.79,-277.24l0 -243.84 326.34 -17.35z"/>
  <path id="_1_0" class="fil3" d="M30864.2 30762.73l0 1121.38 -304.8 16.21 0 -142.36c-32.12,59.74 -69.36,103.33 -111.7,130.4 -42.34,27.44 -95.64,42.69 -159.88,46.1 -87.61,4.66 -148.94,-16.17 -183.98,-62.13 -34.68,-45.98 -52.2,-134.84 -52.2,-266.98l0 -799.42 326.34 -17.35 0 782.26c0,39.79 5.84,66.5 17.16,80.13 11.31,13.64 31.75,19.85 61.69,18.26 30.66,-1.63 51.83,-10.06 63.51,-25.28 11.68,-15.22 17.52,-42.55 17.52,-81.61l0 -782.26 326.34 -17.35z"/>
  <path id="_2_1" class="fil3" d="M31514.69 31551.31l0 -119.73c0,-24.46 -6.94,-42.71 -20.81,-55.48 -14.23,-12.75 -33.58,-18.66 -58.4,-17.34 -25.19,1.34 -44.54,9.31 -58.04,23.53 -13.51,14.22 -20.44,33.21 -20.44,57.67l0 119.73c0,24.82 6.93,43.8 20.44,56.22 13.5,12.43 32.85,17.97 58.04,16.63 24.82,-1.32 44.17,-8.92 58.4,-22.82 13.87,-13.87 20.81,-33.59 20.81,-58.41zm17.16 297.32l0 -89.8c-24.46,40.73 -55.12,70.46 -91.99,89.2 -37.23,18.78 -86.88,29.81 -148.94,33.11 -94.17,5.01 -159.88,-13.77 -197.48,-55.93 -37.6,-42.17 -56.21,-120.4 -56.21,-234.65l0 -135.79c0,-93.45 21.53,-163.59 64.24,-210.76 42.71,-46.81 109.51,-72.62 200.04,-77.43 39.42,-2.1 77.39,1.36 113.53,10.75 36.5,9.01 69.72,23.31 99.65,43.26l0 -166.09c0,-45.27 -5.11,-74.93 -15.7,-88.97 -10.22,-14.05 -31.39,-20.23 -63.51,-18.52 -31.03,1.65 -51.11,10.01 -61.33,25.16 -9.85,15.12 -14.96,45.32 -14.96,90.59l-286.92 15.25 0 -81.04c0,-102.57 24.82,-173.62 74.83,-213.5 50.01,-39.53 152.95,-63.61 309.19,-71.92 155.13,-8.24 257.71,4.91 307.72,39.12 50.01,34.58 74.83,102.99 74.83,205.56l0 876.08 -306.99 16.32z"/>
  <path id="_3_2" class="fil3" d="M32042.16 31821.5l0 -1121.38 302.61 -16.09 0 144.92c32.85,-60.15 70.45,-104.13 112.8,-132.3 42.34,-27.8 95.27,-43.39 158.79,-46.76 87.6,-4.66 148.93,16.17 183.97,62.49 34.68,45.98 52.2,134.84 52.2,265.89l0 800.15 -324.15 17.23 0 -782.27c0,-39.79 -5.84,-66.49 -17.52,-80.09 -11.68,-13.62 -32.85,-19.8 -63.51,-18.17 -30.67,1.63 -51.84,10.06 -63.52,24.92 -11.68,14.85 -17.52,42.17 -17.52,81.96l0 782.27 -324.15 17.23z"/>
  <path class="fil3" d="M30700.44 29337.56c12.74,12.74 14.34,26.67 4.78,41.8 -9.55,15.13 -23.09,21.9 -40.61,20.3 -28.66,-11.14 -63.29,-21.89 -103.9,-32.24 -40.61,-10.35 -83.2,-18.31 -127.79,-23.89 -44.59,-5.57 -89.18,-7.56 -133.76,-5.97 -44.59,1.59 -86.39,8.36 -125.4,20.3 -39.02,11.95 -72.86,30.66 -101.52,56.14 -28.66,25.47 -48.57,58.92 -59.72,100.32 -14.33,57.32 -15.52,103.9 -3.58,139.73 11.94,35.83 32.25,64.49 60.91,85.99 28.66,21.5 64.1,37.42 106.29,47.77 42.2,10.35 86.39,18.71 132.57,25.08 46.18,6.37 91.96,12.35 137.35,17.92 45.38,5.57 87.18,14.73 125.4,27.47 92.36,30.25 150.88,70.06 175.56,119.43 24.68,49.36 27.07,100.72 7.17,154.06 -19.91,53.35 -56.53,104.7 -109.88,154.07 -53.34,49.36 -112.26,88.38 -176.76,117.04 -64.49,28.66 -129.38,43.39 -194.67,44.19 -65.29,0.8 -118.63,-20.3 -160.03,-63.3 -14.34,-15.92 -33.05,-37.42 -56.14,-64.49 -23.09,-27.07 -41,-54.94 -53.74,-83.6 -12.74,-28.67 -17.52,-55.34 -14.33,-80.02 3.18,-24.68 23.88,-41.8 62.1,-51.36 9.56,7.97 15.53,16.72 17.92,26.28 2.39,9.55 3.98,19.9 4.77,31.05 0.8,11.15 1.6,23.49 2.39,37.02 0.8,13.54 4.38,28.27 10.75,44.19 11.15,27.07 29.86,51.36 56.13,72.86 26.28,21.49 53.75,36.22 82.41,44.19 35.03,9.55 73.65,10.74 115.85,3.58 42.2,-7.17 83.6,-19.91 124.21,-38.22 40.6,-18.31 78.02,-41 112.26,-68.07 34.24,-27.08 60.91,-56.54 80.02,-88.38 27.07,-46.18 39.01,-84.8 35.83,-115.85 -3.19,-31.05 -16.72,-56.13 -40.61,-75.24 -23.88,-19.11 -54.94,-34.24 -93.15,-45.39 -38.22,-11.14 -78.83,-20.3 -121.82,-27.46 -43,-7.17 -85.99,-13.14 -128.99,-17.92 -42.99,-4.78 -80.41,-11.94 -112.26,-21.5 -55.74,-15.92 -101.92,-31.84 -138.54,-47.77 -36.63,-15.92 -64.49,-36.62 -83.6,-62.1 -19.11,-25.48 -30.26,-57.73 -33.44,-96.74 -3.19,-39.02 0.79,-89.57 11.94,-151.68 22.29,-78.03 63.3,-134.95 123.01,-170.78 59.72,-35.83 126.6,-57.33 200.65,-64.5 74.04,-7.16 149.28,-3.58 225.72,10.75 76.43,14.33 142.52,32.65 198.25,54.94z"/>
  <path id="_1_3" class="fil3" d="M30910.64 30008.76c12.74,-3.18 29.46,-3.98 50.16,-2.39 20.7,1.59 41.8,4.78 63.3,9.56 21.49,4.77 41.8,11.14 60.91,19.1 19.11,7.97 33.44,17.52 42.99,28.67 35.03,46.18 49.76,91.96 44.19,137.34 -5.57,45.39 -23.09,84 -52.55,115.85 -29.46,31.85 -67.28,53.74 -113.46,65.69 -46.18,11.94 -92.36,6.77 -138.54,-15.53 -12.74,-6.37 -25.08,-11.94 -37.02,-16.72 -11.94,-4.78 -22.69,-11.94 -32.25,-21.5 -15.92,-15.92 -23.48,-41.8 -22.69,-77.63 0.8,-35.83 7.17,-71.65 19.11,-107.48 11.94,-35.83 28.27,-67.28 48.97,-94.35 20.7,-27.07 42.99,-40.61 66.88,-40.61zm119.43 85.99c-36.63,-20.7 -69.27,-23.89 -97.93,-9.55 -28.67,14.33 -51.76,33.44 -69.27,57.32 -3.19,3.19 -6.77,10.75 -10.75,22.69 -3.98,11.95 -7.96,24.69 -11.95,38.22 -3.98,13.54 -5.97,27.07 -5.97,40.61 0,13.53 3.98,23.49 11.95,29.86 27.07,23.88 54.93,38.21 83.6,42.99 28.66,4.78 54.93,3.58 78.82,-3.58 23.89,-7.17 44.19,-19.51 60.91,-37.03 16.72,-17.51 27.47,-37.02 32.25,-58.52 4.77,-21.49 1.59,-42.99 -9.56,-64.49 -11.14,-21.5 -31.85,-41 -62.1,-58.52z"/>
  <path id="_2_4" class="fil3" d="M31264.15 29987.26c6.37,-7.96 13.14,-13.53 20.31,-16.72 7.16,-3.18 13.93,-3.58 20.3,-1.19 6.37,2.39 10.75,6.77 13.14,13.14 2.39,6.36 1.99,15.12 -1.2,26.27 -17.51,27.07 -27.07,58.52 -28.66,94.35 -1.59,35.83 3.98,69.67 16.72,101.52 12.74,31.84 31.85,58.52 57.33,80.01 25.48,21.5 57.32,32.25 95.54,32.25 36.63,-1.59 66.88,-11.94 90.77,-31.05 23.89,-19.11 42.99,-42.6 57.33,-70.47 14.33,-27.86 24.68,-56.53 31.05,-85.99 6.37,-29.45 10.35,-54.54 11.94,-75.24l0 -16.72c0,-4.77 0.8,-8.75 2.39,-11.94 0,-1.59 0.4,-2.79 1.19,-3.58 0.8,-0.8 1.2,-1.99 1.2,-3.59 3.18,-3.18 4.78,-5.57 4.78,-7.16l7.16 -7.17 14.33 -7.16c11.15,-3.19 19.11,0 23.89,9.55 3.18,3.19 4.78,7.17 4.78,11.94 0,1.6 0.39,2.39 1.19,2.39 0.8,0 1.2,0.8 1.2,2.39l0 2.39c0,55.73 7.56,117.84 22.69,186.31 15.12,68.48 28.66,138.94 40.6,211.39 11.95,72.46 18.71,146.11 20.31,220.95 1.59,74.84 -11.95,147.3 -40.61,217.36 -11.15,27.07 -36.23,49.37 -75.24,66.88 -39.02,17.52 -80.42,28.27 -124.21,32.25 -43.79,3.98 -85.19,0.4 -124.21,-10.75 -39.01,-11.14 -64.09,-31.05 -75.24,-59.71 -3.18,-9.56 -2.39,-18.71 2.39,-27.47 4.78,-8.76 10.35,-15.13 16.72,-19.11 6.37,-3.98 13.14,-5.18 20.3,-3.58 7.17,1.59 13.14,7.96 17.92,19.11 30.25,9.55 62.1,17.11 95.54,22.69 33.44,5.57 64.89,5.57 94.35,0 29.46,-5.58 54.94,-17.92 76.44,-37.03 21.5,-19.11 36.23,-47.77 44.19,-85.99 7.96,-42.99 11.54,-87.58 10.75,-133.76 -0.8,-46.18 -4.78,-92.76 -11.95,-139.73 -7.16,-46.98 -15.52,-93.56 -25.08,-139.74 -9.55,-46.18 -19.11,-89.97 -28.66,-131.37 -20.7,49.36 -49.36,91.17 -85.99,125.4 -36.63,34.24 -82.01,48.97 -136.15,44.19 -47.77,-4.78 -88.38,-20.7 -121.82,-47.77 -33.44,-27.07 -58.52,-60.11 -75.24,-99.13 -16.72,-39.01 -24.29,-80.81 -22.69,-125.4 1.59,-44.59 14.33,-85.99 38.21,-124.21z"/>
  <path id="_3_5" class="fil4 str0" d="M30700.44 29337.56c12.74,12.74 14.34,26.67 4.78,41.8 -9.55,15.13 -23.09,21.9 -40.61,20.3 -28.66,-11.14 -63.29,-21.89 -103.9,-32.24 -40.61,-10.35 -83.2,-18.31 -127.79,-23.89 -44.59,-5.57 -89.18,-7.56 -133.76,-5.97 -44.59,1.59 -86.39,8.36 -125.4,20.3 -39.02,11.95 -72.86,30.66 -101.52,56.14 -28.66,25.47 -48.57,58.92 -59.72,100.32 -14.33,57.32 -15.52,103.9 -3.58,139.73 11.94,35.83 32.25,64.49 60.91,85.99 28.66,21.5 64.1,37.42 106.29,47.77 42.2,10.35 86.39,18.71 132.57,25.08 46.18,6.37 91.96,12.35 137.35,17.92 45.38,5.57 87.18,14.73 125.4,27.47 92.36,30.25 150.88,70.06 175.56,119.43 24.68,49.36 27.07,100.72 7.17,154.06 -19.91,53.35 -56.53,104.7 -109.88,154.07 -53.34,49.36 -112.26,88.38 -176.76,117.04 -64.49,28.66 -129.38,43.39 -194.67,44.19 -65.29,0.8 -118.63,-20.3 -160.03,-63.3 -14.34,-15.92 -33.05,-37.42 -56.14,-64.49 -23.09,-27.07 -41,-54.94 -53.74,-83.6 -12.74,-28.67 -17.52,-55.34 -14.33,-80.02 3.18,-24.68 23.88,-41.8 62.1,-51.36 9.56,7.97 15.53,16.72 17.92,26.28 2.39,9.55 3.98,19.9 4.77,31.05 0.8,11.15 1.6,23.49 2.39,37.02 0.8,13.54 4.38,28.27 10.75,44.19 11.15,27.07 29.86,51.36 56.13,72.86 26.28,21.49 53.75,36.22 82.41,44.19 35.03,9.55 73.65,10.74 115.85,3.58 42.2,-7.17 83.6,-19.91 124.21,-38.22 40.6,-18.31 78.02,-41 112.26,-68.07 34.24,-27.08 60.91,-56.54 80.02,-88.38 27.07,-46.18 39.01,-84.8 35.83,-115.85 -3.19,-31.05 -16.72,-56.13 -40.61,-75.24 -23.88,-19.11 -54.94,-34.24 -93.15,-45.39 -38.22,-11.14 -78.83,-20.3 -121.82,-27.46 -43,-7.17 -85.99,-13.14 -128.99,-17.92 -42.99,-4.78 -80.41,-11.94 -112.26,-21.5 -55.74,-15.92 -101.92,-31.84 -138.54,-47.77 -36.63,-15.92 -64.49,-36.62 -83.6,-62.1 -19.11,-25.48 -30.26,-57.73 -33.44,-96.74 -3.19,-39.02 0.79,-89.57 11.94,-151.68 22.29,-78.03 63.3,-134.95 123.01,-170.78 59.72,-35.83 126.6,-57.33 200.65,-64.5 74.04,-7.16 149.28,-3.58 225.72,10.75 76.43,14.33 142.52,32.65 198.25,54.94z"/>
  <path id="_4_6" class="fil4 str0" d="M30910.64 30008.76c12.74,-3.18 29.46,-3.98 50.16,-2.39 20.7,1.59 41.8,4.78 63.3,9.56 21.49,4.77 41.8,11.14 60.91,19.1 19.11,7.97 33.44,17.52 42.99,28.67 35.03,46.18 49.76,91.96 44.19,137.34 -5.57,45.39 -23.09,84 -52.55,115.85 -29.46,31.85 -67.28,53.74 -113.46,65.69 -46.18,11.94 -92.36,6.77 -138.54,-15.53 -12.74,-6.37 -25.08,-11.94 -37.02,-16.72 -11.94,-4.78 -22.69,-11.94 -32.25,-21.5 -15.92,-15.92 -23.48,-41.8 -22.69,-77.63 0.8,-35.83 7.17,-71.65 19.11,-107.48 11.94,-35.83 28.27,-67.28 48.97,-94.35 20.7,-27.07 42.99,-40.61 66.88,-40.61zm119.43 85.99c-36.63,-20.7 -69.27,-23.89 -97.93,-9.55 -28.67,14.33 -51.76,33.44 -69.27,57.32 -3.19,3.19 -6.77,10.75 -10.75,22.69 -3.98,11.95 -7.96,24.69 -11.95,38.22 -3.98,13.54 -5.97,27.07 -5.97,40.61 0,13.53 3.98,23.49 11.95,29.86 27.07,23.88 54.93,38.21 83.6,42.99 28.66,4.78 54.93,3.58 78.82,-3.58 23.89,-7.17 44.19,-19.51 60.91,-37.03 16.72,-17.51 27.47,-37.02 32.25,-58.52 4.77,-21.49 1.59,-42.99 -9.56,-64.49 -11.14,-21.5 -31.85,-41 -62.1,-58.52z"/>
  <path id="_5" class="fil4 str0" d="M31264.15 29987.26c6.37,-7.96 13.14,-13.53 20.31,-16.72 7.16,-3.18 13.93,-3.58 20.3,-1.19 6.37,2.39 10.75,6.77 13.14,13.14 2.39,6.36 1.99,15.12 -1.2,26.27 -17.51,27.07 -27.07,58.52 -28.66,94.35 -1.59,35.83 3.98,69.67 16.72,101.52 12.74,31.84 31.85,58.52 57.33,80.01 25.48,21.5 57.32,32.25 95.54,32.25 36.63,-1.59 66.88,-11.94 90.77,-31.05 23.89,-19.11 42.99,-42.6 57.33,-70.47 14.33,-27.86 24.68,-56.53 31.05,-85.99 6.37,-29.45 10.35,-54.54 11.94,-75.24l0 -16.72c0,-4.77 0.8,-8.75 2.39,-11.94 0,-1.59 0.4,-2.79 1.19,-3.58 0.8,-0.8 1.2,-1.99 1.2,-3.59 3.18,-3.18 4.78,-5.57 4.78,-7.16l7.16 -7.17 14.33 -7.16c11.15,-3.19 19.11,0 23.89,9.55 3.18,3.19 4.78,7.17 4.78,11.94 0,1.6 0.39,2.39 1.19,2.39 0.8,0 1.2,0.8 1.2,2.39l0 2.39c0,55.73 7.56,117.84 22.69,186.31 15.12,68.48 28.66,138.94 40.6,211.39 11.95,72.46 18.71,146.11 20.31,220.95 1.59,74.84 -11.95,147.3 -40.61,217.36 -11.15,27.07 -36.23,49.37 -75.24,66.88 -39.02,17.52 -80.42,28.27 -124.21,32.25 -43.79,3.98 -85.19,0.4 -124.21,-10.75 -39.01,-11.14 -64.09,-31.05 -75.24,-59.71 -3.18,-9.56 -2.39,-18.71 2.39,-27.47 4.78,-8.76 10.35,-15.13 16.72,-19.11 6.37,-3.98 13.14,-5.18 20.3,-3.58 7.17,1.59 13.14,7.96 17.92,19.11 30.25,9.55 62.1,17.11 95.54,22.69 33.44,5.57 64.89,5.57 94.35,0 29.46,-5.58 54.94,-17.92 76.44,-37.03 21.5,-19.11 36.23,-47.77 44.19,-85.99 7.96,-42.99 11.54,-87.58 10.75,-133.76 -0.8,-46.18 -4.78,-92.76 -11.95,-139.73 -7.16,-46.98 -15.52,-93.56 -25.08,-139.74 -9.55,-46.18 -19.11,-89.97 -28.66,-131.37 -20.7,49.36 -49.36,91.17 -85.99,125.4 -36.63,34.24 -82.01,48.97 -136.15,44.19 -47.77,-4.78 -88.38,-20.7 -121.82,-47.77 -33.44,-27.07 -58.52,-60.11 -75.24,-99.13 -16.72,-39.01 -24.29,-80.81 -22.69,-125.4 1.59,-44.59 14.33,-85.99 38.21,-124.21z"/>
 </g>
</svg>
