<?xml version="1.0" encoding="UTF-8"?>
<!DOCTYPE svg PUBLIC "-//W3C//DTD SVG 1.1//EN" "http://www.w3.org/Graphics/SVG/1.1/DTD/svg11.dtd">
<!-- Creator: CorelDRAW 2021 (64-Bit) -->
<svg xmlns="http://www.w3.org/2000/svg" xml:space="preserve" width="279.4mm" height="215.9mm" version="1.1" style="shape-rendering:geometricPrecision; text-rendering:geometricPrecision; image-rendering:optimizeQuality; fill-rule:evenodd; clip-rule:evenodd"
viewBox="0 0 27940 21590"
 xmlns:xlink="http://www.w3.org/1999/xlink"
 xmlns:xodm="http://www.corel.com/coreldraw/odm/2003">
 <defs>
  <style type="text/css">
   <![CDATA[
    .str0 {stroke:#E35932;stroke-width:7.62;stroke-miterlimit:22.9256}
    .fil7 {fill:none}
    .fil6 {fill:none;fill-rule:nonzero}
    .fil3 {fill:#1A6396}
    .fil4 {fill:#1A6396;fill-rule:nonzero}
    .fil5 {fill:#1A6396;fill-rule:nonzero}
    .fil0 {fill:#E35932;fill-rule:nonzero}
    .fil2 {fill:white;fill-rule:nonzero}
    .fil1 {fill:url(#id0);fill-rule:nonzero}
   ]]>
  </style>
  <linearGradient id="id0" gradientUnits="userSpaceOnUse" x1="26998.47" y1="-8148.56" x2="25370.07" y2="-8148.56">
   <stop offset="0" style="stop-opacity:1; stop-color:#FEC133"/>
   <stop offset="0.266667" style="stop-opacity:1; stop-color:#F29333"/>
   <stop offset="0.760784" style="stop-opacity:1; stop-color:#E66432"/>
   <stop offset="1" style="stop-opacity:1; stop-color:#E35932"/>
  </linearGradient>
 </defs>
 <g id="Capa_x0020_1">
  <metadata id="CorelCorpID_0Corel-Layer"/>
  <path class="fil0" d="M27005.2 -8022.18l3522.28 -230.64c0.93,-0.05 1.75,0.42 2.27,1.18l12.92 17.12c0.11,0.14 0.21,0.29 0.29,0.45 0.47,0.87 0.69,1.85 0.68,2.84 0,1.08 -0.31,2.17 -0.84,3.1 -0.08,0.13 -0.16,0.25 -0.26,0.36l-12.89 18.43c-0.56,0.8 -1.37,1.24 -2.17,1.29l0 0.01 -3522.28 230.65c-1.21,0.06 -2.35,-0.13 -3.42,-0.57 -1.11,-0.45 -2.09,-1.13 -2.91,-2 -0.86,-0.9 -1.53,-1.96 -2,-3.17 -0.45,-1.17 -0.69,-2.48 -0.69,-3.85l0 -24.6c0,-1.37 0.24,-2.7 0.69,-3.93 0.47,-1.25 1.14,-2.4 2,-3.4 0.82,-0.95 1.8,-1.74 2.91,-2.32 1.07,-0.54 2.21,-0.88 3.42,-0.95z"/>
  <path class="fil0" d="M23751.45 -6668.95l2524.88 -166.17c0.93,-0.06 1.75,0.41 2.27,1.17l12.92 17.12c0.1,0.14 0.2,0.3 0.28,0.45 0.47,0.87 0.69,1.85 0.69,2.84 -0.02,1.08 -0.31,2.17 -0.85,3.1 -0.08,0.13 -0.16,0.25 -0.24,0.37l-12.9 18.43c-0.56,0.8 -1.36,1.24 -2.17,1.28l0 0.02 -2524.88 166.17c-1.19,0.07 -2.34,-0.14 -3.41,-0.57 -1.1,-0.45 -2.09,-1.13 -2.92,-2 -0.84,-0.89 -1.52,-1.97 -1.98,-3.17 -0.45,-1.18 -0.7,-2.48 -0.7,-3.85l0 -24.6c0,-1.37 0.25,-2.7 0.7,-3.94 0.46,-1.25 1.14,-2.4 1.98,-3.38 0.83,-0.96 1.82,-1.76 2.92,-2.33 1.07,-0.54 2.22,-0.88 3.41,-0.94z"/>
  <path class="fil1" d="M25498.85 -8508.59l1268.84 -89.74c13.26,-0.94 25.05,5.51 32.45,16.32l184.5 241.62c1.53,2.04 2.91,4.19 4.08,6.47 6.7,12.27 9.85,26.19 9.75,40.28 -0.16,15.56 -4.3,31.12 -12.1,44.55 -1.06,1.87 -2.24,3.61 -3.49,5.26l-184.2 266.1c-7.96,11.56 -19.44,18.04 -30.99,18.85l0 0.2 -1140.74 80.69c-0.23,0.69 -1.49,0.79 -3.81,0.27 -128.04,23.97 -212.4,89.05 -253.07,195.25l0 -321.48 0 -0.71 0 -3.83 0 -3.66 0 -3.48 0 -3.3 0 -3.12 0 -2.94 0 -2.77 0 -2.58 0 -2.41 0 -2.23 0 -2.05 0 -1.88 0 -1.69 0 -1.52 0 -1.34 0 -1.16 0 -0.98 0 -0.8 0 -0.63 0 -0.44 0 -0.27 0 -0.09 0 -307.5c0,-19.62 3.57,-38.66 10.03,-56.34 6.58,-17.98 16.29,-34.56 28.37,-48.81 11.81,-13.88 25.94,-25.46 41.66,-33.8 15.22,-8.07 31.66,-13.1 48.72,-14.31z"/>
  <path class="fil2" d="M25805.68 -8441.16l0 101.84 -99.29 7.02 0 -101.84 99.29 -7.02zm0.64 144.43l0 45.3c0,16.97 -2.13,30.6 -6.26,40.76 -4.14,10.05 -11.25,19.14 -21.22,27.07 -3.92,3.34 -9.44,7.87 -16.76,13.59 -15.91,12.48 -26.2,21.26 -30.76,26.05 -3.08,3.61 -5.31,7.58 -6.48,12.13 -1.27,4.54 -1.9,12.86 -1.9,24.85l0 31.71c0,13.05 1.69,21.63 5.09,25.74 3.5,4.1 10.39,5.85 21,5.09 10.61,-0.75 17.72,-3.48 21.32,-8.19 3.61,-4.71 5.41,-13.54 5.41,-26.38l0 -36.06 98.03 -6.93 0 13.36c0,51.03 -8.81,86.13 -26.31,105.08 -17.51,18.96 -51.77,30.29 -102.69,33.89 -48.69,3.45 -82.22,-1.4 -100.36,-14.44 -18.14,-13.03 -27.15,-38.71 -27.15,-77.11l0 -48.58c0,-24.4 3.07,-42.75 9.12,-54.96 6.15,-12.21 17.5,-24.58 34.05,-37.2 2.87,-1.8 6.9,-4.63 12.1,-8.29 22.59,-15.49 33.84,-31.99 33.84,-49.6l0 -29.81 99.93 -7.07z"/>
  <polygon id="_1" class="fil2" points="25989,-7992.67 25989,-8142.14 25893.52,-8447.38 26002.36,-8455.07 26046.81,-8249.45 26088.5,-8461.17 26190.13,-8468.36 26096.56,-8149.75 26096.56,-8000.28 "/>
  <path id="_2" class="fil2" d="M26487.49 -8218.24l48.8 -3.45 -23.55 -216.03 -25.25 219.48zm-129.95 199.5l68.74 -466.32 171.96 -12.16 70.55 456.47 -110.12 7.79 -12.73 -112.4 -68.1 4.81 -12.73 114.2 -107.57 7.61z"/>
  <path class="fil3" d="M23742.07 -6880.82l0 -796.7 235.16 -15.51c94.51,-6.25 158.25,6.22 191.21,37.55 32.97,31.35 49.45,96.02 49.45,194l0 301.84c0,97.97 -16.48,164.81 -49.45,200.5 -32.96,35.69 -96.7,56.56 -191.21,62.81l-235.16 15.51zm284.61 -214.76l0 -403.65c0,-21.79 -3.3,-36.03 -9.71,-42.76 -6.41,-6.72 -19.59,-9.52 -39.74,-8.19l-49.46 3.26 0 512.09 49.46 -3.25c19.78,-1.31 32.97,-5.85 39.56,-13.6 6.59,-7.76 9.89,-22.45 9.89,-43.9zm1032.22 -138.09l0 77.28c0,20.7 4.23,35.09 12.46,43.14 8.24,8.07 22.16,11.38 41.94,10.07 21.43,-1.42 35.89,-6.41 43.42,-15.14 7.5,-8.75 11.35,-24.57 11.35,-47.46l0 -56.41c0,-17.03 -1.11,-29.77 -3.3,-37.87 -2.01,-8.12 -5.69,-15.19 -10.63,-21.28 -12.26,-13.85 -40.29,-24.28 -84.25,-30.9 -20.13,-3.06 -35.71,-5.68 -46.7,-8.26 -51.64,-11.24 -86.98,-29.43 -106.41,-54.51 -19.22,-25.1 -28.93,-65.87 -28.93,-122.46l0 -73.63c0,-71.43 13.92,-122.15 41.57,-152.37 27.66,-30.03 75.65,-47.3 143.95,-51.81l54.95 -3.62c42.86,-2.84 78.03,-1.5 105.69,4.01 27.46,5.51 49.08,15.82 64.82,30.88 12.64,11.63 21.24,26.98 26.38,46.07 4.95,18.89 7.51,49.68 7.51,92.17l0 61.71 -164.65 10.88 0 -49.81c0,-25.1 -3.3,-41.54 -9.89,-49.34 -6.78,-7.81 -20.15,-10.96 -40.67,-9.6 -19.77,1.3 -33.14,6.04 -40.1,14.19 -6.97,8.15 -10.45,22.66 -10.45,43.91l0 51.45c0,39.02 33.34,64.66 100,77.11 18.86,3.89 33.89,6.93 45.06,9.49 51.09,10.91 86.26,28.74 105.32,53.11 19.23,24.57 28.75,64.78 28.75,120.64l0 107.33c0,66.66 -15.75,115.5 -47.44,147.07 -31.69,31.4 -83.33,49.47 -154.76,54.18l-49.45 3.27c-78.75,5.2 -132.78,-4.61 -162.28,-29.58 -29.48,-24.79 -44.31,-73.47 -44.31,-145.81l0 -86.81 171.05 -11.29zm698.73 -78.9l0 -309.16c0,-22.17 -3.67,-36.76 -10.98,-43.78 -7.33,-7.03 -22.35,-9.88 -44.69,-8.41 -22.91,1.51 -38.1,6.38 -45.42,14.37 -7.33,7.99 -10.99,23.06 -10.99,45.23l0 420.14c0,22.17 3.66,36.76 10.99,43.79 7.32,7.02 22.51,9.86 45.42,8.34 19.96,-1.3 33.7,-4.98 41.38,-10.97 7.7,-6.18 12.09,-16.37 13.2,-30.72l-85.72 -109.73 54.03 -65.29 32.78 46.19zm181.32 72.82l0 26.19c0,27.66 -1.29,49.38 -3.85,65.47 -2.38,16.09 -6.78,31.4 -12.82,45.72l41.95 56.2 -63.92 62.84 -37 -50.69c-12.83,9.47 -31.32,16.73 -55.5,21.63 -24.18,5.07 -68.67,9.65 -133.33,13.92 -85.17,5.62 -142.5,-5.43 -171.8,-33.17 -29.3,-27.74 -43.94,-86.66 -43.94,-176.41l0 -368.3c0,-52.94 3.11,-91.61 9.32,-116 6.24,-24.41 17.22,-45.28 32.43,-62.76 16.48,-19.06 38.27,-32.94 65.19,-41.85 27.11,-8.94 71.8,-15.55 133.9,-19.65 61.9,-4.08 106.22,-3.35 132.78,2.04 26.74,5.38 48.34,16.4 64.84,33.27 15.19,15.48 26.17,34.9 32.41,58.49 6.23,23.56 9.34,61.82 9.34,114.75l0 368.31zm103.11 -589.57l185.72 -12.26 0 606.78c0,22.15 3.29,36.76 9.7,43.85 6.41,7.1 19.6,10.06 39.75,8.73 19.77,-1.31 32.96,-6.01 39.55,-13.97 6.6,-7.94 9.89,-22.99 9.89,-45.14l0 -606.78 178.03 -11.76 0 539.74c0,62.28 -3.3,108.11 -9.71,137.28 -6.41,29.17 -17.03,54.43 -32.06,75.37 -16.11,21.94 -38.08,38.05 -65.74,48.49 -27.65,10.42 -69.23,17.38 -124.55,21.04 -56.59,3.73 -98.34,2.27 -125.45,-4.55 -27.29,-6.8 -48.71,-20.04 -64.47,-39.88 -14.66,-18.27 -25.1,-41.39 -31.31,-69.35 -6.24,-27.8 -9.35,-73.75 -9.35,-137.86l0 -539.73zm575.84 758.68l0 -796.7 350.36 -23.12 0 142.86 -164.66 10.85 0 175.83 154.4 -10.18 0 137.36 -154.4 10.18 0 197.81 180.22 -11.89 0 142.85 -365.92 24.15zm638.45 -512.46l51.64 -3.4c23.09,-1.53 38.28,-6.56 45.8,-14.93 7.51,-8.38 11.36,-23.67 11.36,-45.82l0 -71.25c0,-22.34 -3.85,-37.09 -11.36,-44.67 -7.52,-7.55 -22.71,-10.58 -45.8,-9.05l-51.64 3.4 0 185.72zm0 123.07l0 194.41 -101.44 6.7 -81.2 158.19 -0.87 0.06 0 -796.7 248.15 -16.38c91.22,-6.01 152.02,1.87 182.24,23.87 30.22,22.01 45.42,64.76 45.42,128.13l0 69.78c0,43.97 -9.71,77.76 -29.12,101.39 -19.23,23.62 -51.64,40.76 -97.25,51.65 45.06,-0.78 78.56,11.11 100.73,36.03 22.17,24.73 33.33,62.81 33.33,114.28l0 90.11c0,63.74 -14.82,108.31 -44.69,133.72 -29.85,25.4 -90.46,41.14 -181.49,47.15l-98.73 6.5 84.33 -105.54 4.18 -5.22 0 -34.79c18.56,-2.05 31.26,-6.87 38.05,-14.44 7.7,-8.57 11.54,-23.85 11.54,-46.2l0 -92.3c0,-22.16 -3.84,-37.1 -11.71,-44.83 -7.88,-7.72 -23.09,-10.74 -45.43,-9.26l-56.04 3.69zm634.44 -350.66l-45.25 2.98 0 246.16 45.25 -2.98c23.98,-1.59 40.11,-6.69 48.16,-15.29 8.06,-8.58 12.08,-23.68 12.08,-45.47l0 -132.04c0,-22.17 -4.02,-36.93 -12.08,-44.46 -8.05,-7.53 -24.18,-10.49 -48.16,-8.9zm58.05 450.93c0,-27.48 -5.12,-46 -15.21,-55.78 -10.24,-9.76 -29.47,-13.61 -57.33,-11.78l-30.76 2.03 0 273.62 -185.7 12.26 0 -796.7 193.22 -12.76c114.64,-7.57 190.29,1.91 227.28,28.42 36.82,26.68 55.31,79.13 55.31,157.32l0 91.22c0,46.15 -10.06,81.98 -30.04,107.48 -20.14,25.32 -52.74,43.76 -98.17,55.01 42.13,3.27 73.44,15.49 93.6,36.68 20.15,21.18 30.39,52.4 30.39,93.43l0 208.78 -182.59 12.05 0 -201.28zm478.38 -158.86l84.25 -5.57 -40.66 -373.14 -43.59 378.71zm-224.36 343.37l118.69 -804.53 296.88 -19.6 121.8 788.66 -190.12 12.55 -21.97 -194.16 -117.59 7.77 -21.98 197.05 -185.71 12.26zm612.09 -40.4l0 -796.7 235.16 -15.53c94.51,-6.23 158.25,6.24 191.21,37.57 32.97,31.34 49.45,96 49.45,193.98l0 301.84c0,97.97 -16.48,164.82 -49.45,200.52 -32.96,35.68 -96.7,56.56 -191.21,62.79l-235.16 15.53zm284.61 -214.76l0 -403.65c0,-21.79 -3.3,-36.05 -9.71,-42.78 -6.41,-6.71 -19.59,-9.51 -39.74,-8.19l-49.46 3.27 0 512.1 49.46 -3.27c19.78,-1.31 32.97,-5.85 39.56,-13.6 6.59,-7.76 9.89,-22.44 9.89,-43.88zm480.22 -164.29l84.24 -5.56 -40.65 -373.16 -43.59 378.72zm-224.37 343.37l118.69 -804.53 296.89 -19.6 121.79 788.66 -190.11 12.55 -21.97 -194.16 -117.6 7.76 -21.97 197.06 -185.72 12.26zm790.29 -318.1l0 77.29c0,20.7 4.22,35.09 12.46,43.14 8.24,8.06 22.16,11.36 41.94,10.05 21.43,-1.41 35.89,-6.39 43.42,-15.14 7.5,-8.75 11.35,-24.55 11.35,-47.44l0 -56.41c0,-17.03 -1.11,-29.79 -3.3,-37.89 -2.01,-8.12 -5.69,-15.19 -10.63,-21.26 -12.26,-13.86 -40.29,-24.28 -84.25,-30.9 -20.14,-3.08 -35.71,-5.7 -46.7,-8.28 -51.64,-11.23 -86.99,-29.41 -106.41,-54.51 -19.22,-25.1 -28.93,-65.85 -28.93,-122.44l0 -73.63c0,-71.43 13.91,-122.16 41.57,-152.39 27.66,-30.03 75.65,-47.3 143.95,-51.79l54.95 -3.64c42.86,-2.82 78.03,-1.48 105.69,4.01 27.46,5.52 49.08,15.82 64.82,30.9 12.64,11.61 21.24,26.98 26.38,46.07 4.95,18.88 7.51,49.68 7.51,92.17l0 61.71 -164.65 10.88 0 -49.81c0,-25.1 -3.3,-41.56 -9.89,-49.36 -6.78,-7.8 -20.15,-10.94 -40.67,-9.58 -19.77,1.3 -33.14,6.04 -40.1,14.17 -6.97,8.17 -10.45,22.68 -10.45,43.93l0 51.45c0,39.02 33.34,64.64 100,77.1 18.86,3.89 33.89,6.92 45.06,9.48 51.09,10.91 86.26,28.74 105.32,53.13 19.23,24.55 28.75,64.76 28.75,120.62l0 107.33c0,66.66 -15.76,115.52 -47.44,147.09 -31.69,31.38 -83.33,49.46 -154.76,54.18l-49.45 3.25c-78.76,5.2 -132.78,-4.61 -162.28,-29.58 -29.48,-24.79 -44.31,-73.45 -44.31,-145.8l0 -86.8 171.05 -11.3zm-5541.19 443.96l0 -420.15c0,-22.16 -3.3,-36.77 -9.89,-43.85 -6.59,-7.07 -19.59,-10.06 -39.19,-8.78 -19.96,1.33 -33.33,6.06 -39.93,14 -6.59,7.94 -9.88,23.01 -9.88,45.17l0 420.15c0,22.53 3.29,37.32 9.88,44.22 6.6,6.87 19.97,9.66 39.93,8.34 19.6,-1.29 32.6,-5.82 39.19,-13.56 6.59,-7.77 9.89,-23.01 9.89,-45.54zm190.12 -38.74c0,54.76 -3.11,93.97 -9.17,117.83 -6.04,23.84 -16.66,44.32 -31.68,61.44 -16.11,18.64 -36.27,32.23 -60.62,40.8 -24.18,8.56 -70.15,15.08 -137.91,19.54 -67.94,4.5 -114.11,4.06 -138.27,-1.3 -24.38,-5.35 -44.71,-16.29 -60.81,-32.8 -15.02,-15.51 -25.65,-35.13 -32.06,-58.89 -6.41,-23.73 -9.7,-61.99 -9.7,-114.92l0 -368.31c0,-52.93 3.11,-91.61 9.33,-116 6.23,-24.4 17.22,-45.28 32.43,-62.76 16.47,-19.05 38.27,-32.94 65.19,-41.85 27.11,-8.94 71.79,-15.54 133.89,-19.65 61.91,-4.08 106.22,-3.35 132.79,2.05 26.74,5.38 48.34,16.39 64.83,33.26 15.19,15.48 26.18,34.91 32.41,58.49 6.24,23.57 9.35,61.82 9.35,114.76l0 368.31z"/>
  <path class="fil4" d="M26542.97 -6841.51l0 -43.87c0,-12.29 -1.7,-20.38 -5,-24.16 -3.3,-3.77 -9.99,-5.33 -20.19,-4.66 -9.99,0.66 -16.48,3.09 -19.78,7.2 -3.2,4.11 -4.8,12.41 -4.8,24.9l0 229.24c0,12.49 1.6,20.59 4.8,24.27 3.3,3.68 9.79,5.25 19.78,4.59 10.2,-0.67 16.89,-3.11 20.19,-7.33 3.3,-4.21 5,-12.52 5,-24.81l0 -59.46 92.33 -6.1 0 45.07c0,29.38 -1.5,50.57 -4.49,63.76 -3.1,13.19 -8.2,24.52 -15.39,33.99 -7.6,10.1 -17.39,17.43 -29.38,22.02 -12.09,4.6 -33.98,7.95 -65.76,10.05 -37.07,2.44 -62.26,2.2 -75.55,-0.72 -13.19,-2.93 -24.28,-8.89 -33.07,-17.91 -8.2,-8.44 -13.99,-19.15 -17.49,-32.11 -3.5,-12.96 -5.3,-33.83 -5.3,-62.81l0 -200.86c0,-28.88 1.7,-49.98 5.1,-63.3 3.4,-13.31 9.29,-24.69 17.69,-34.25 8.99,-10.38 20.88,-17.96 35.57,-22.82 14.79,-4.88 39.08,-8.48 73.05,-10.72 29.08,-1.92 50.17,-1.42 63.36,1.51 13.19,2.92 23.58,8.94 31.18,18.02 7.39,8.52 12.69,19.36 15.79,32.54 3.09,13.09 4.69,34.07 4.69,62.75l0 29.88 -92.33 6.1z"/>
  <path id="_1_0" class="fil4" d="M26684.97 -6997.79l101.33 -6.68 0 331.07c0,12.09 1.8,20.07 5.3,23.93 3.49,3.87 10.69,5.49 21.68,4.77 10.79,-0.72 17.99,-3.29 21.59,-7.63 3.59,-4.33 5.39,-12.55 5.39,-24.64l0 -331.07 97.14 -6.41 0 294.5c0,33.97 -1.8,58.98 -5.3,74.89 -3.5,15.92 -9.29,29.71 -17.49,41.14 -8.79,11.97 -20.78,20.75 -35.87,26.44 -15.09,5.7 -37.78,9.5 -67.96,11.49 -30.88,2.04 -53.66,1.24 -68.45,-2.48 -14.89,-3.72 -26.58,-10.94 -35.18,-21.76 -7.99,-9.97 -13.69,-22.59 -17.08,-37.85 -3.4,-15.17 -5.1,-40.24 -5.1,-75.21l0 -294.5z"/>
  <path id="_2_1" class="fil4" d="M27098.79 -6769.68l45.97 -3.03 -22.19 -203.6 -23.78 206.63zm-122.42 187.36l64.76 -438.97 161.99 -10.7 66.45 430.32 -103.73 6.84 -11.99 -105.93 -64.15 4.23 -12 107.52 -101.33 6.69z"/>
  <polygon id="_3" class="fil4" points="27310.35,-6604.36 27310.35,-7039.06 27453.05,-7048.48 27531.5,-6710 27525.6,-7053.27 27617.34,-7059.33 27617.34,-6624.63 27475.24,-6615.25 27395.39,-6963.04 27402.09,-6610.42 "/>
  <path id="_4" class="fil4" d="M27681 -6628.83l0 -434.7 128.31 -8.47c51.57,-3.4 86.34,3.39 104.33,20.49 17.99,17.11 26.98,52.38 26.98,105.84l0 164.69c0,53.47 -8.99,89.94 -26.98,109.41 -17.99,19.48 -52.76,30.87 -104.33,34.27l-128.31 8.47zm155.29 -117.18l0 -220.25c0,-11.89 -1.8,-19.66 -5.29,-23.33 -3.5,-3.67 -10.7,-5.19 -21.69,-4.47l-26.98 1.78 0 279.41 26.98 -1.78c10.79,-0.71 17.99,-3.19 21.59,-7.41 3.59,-4.24 5.39,-12.25 5.39,-23.95z"/>
  <path id="_5" class="fil4" d="M28151.57 -6762.32l0 -229.24c0,-12.09 -1.8,-20.07 -5.39,-23.93 -3.6,-3.86 -10.7,-5.49 -21.39,-4.78 -10.89,0.72 -18.19,3.3 -21.78,7.62 -3.6,4.34 -5.4,12.56 -5.4,24.65l0 229.24c0,12.29 1.8,20.37 5.4,24.12 3.59,3.77 10.89,5.29 21.78,4.57 10.69,-0.71 17.79,-3.18 21.39,-7.41 3.59,-4.23 5.39,-12.55 5.39,-24.84zm103.73 -21.14c0,29.88 -1.7,51.28 -4.99,64.29 -3.3,13.01 -9.1,24.18 -17.29,33.51 -8.8,10.18 -19.79,17.6 -33.08,22.28 -13.19,4.67 -38.27,8.22 -75.25,10.66 -37.07,2.45 -62.26,2.21 -75.45,-0.72 -13.29,-2.92 -24.38,-8.88 -33.17,-17.9 -8.2,-8.45 -13.99,-19.15 -17.49,-32.11 -3.5,-12.96 -5.3,-33.83 -5.3,-62.71l0 -200.96c0,-28.88 1.7,-49.98 5.1,-63.3 3.4,-13.31 9.39,-24.7 17.69,-34.25 8.99,-10.38 20.88,-17.96 35.57,-22.82 14.79,-4.88 39.18,-8.49 73.05,-10.73 33.78,-2.23 57.96,-1.82 72.45,1.12 14.59,2.93 26.38,8.95 35.38,18.15 8.29,8.45 14.29,19.04 17.69,31.91 3.39,12.87 5.09,33.74 5.09,62.62l0 200.96z"/>
  <polygon id="_6" class="fil4" points="28463.26,-6680.46 28463.26,-7115.16 28564.59,-7121.85 28564.59,-6765.1 28660.52,-6771.43 28660.52,-6693.48 "/>
  <polygon id="_7" class="fil4" points="28693.4,-6695.65 28693.4,-7130.35 28884.57,-7142.97 28884.57,-7065.03 28794.73,-7059.1 28794.73,-6963.16 28878.97,-6968.72 28878.97,-6893.77 28794.73,-6888.21 28794.73,-6780.29 28893.06,-6786.78 28893.06,-6708.83 "/>
  <polygon id="_8" class="fil4" points="29131.7,-6724.59 29131.7,-7081.35 29063.35,-7076.83 29063.35,-7154.77 29301.38,-7170.49 29301.38,-7092.55 29233.03,-7088.03 29233.03,-6731.27 "/>
  <path id="_9" class="fil4" d="M29490.35 -6850.69l0 -229.24c0,-12.09 -1.8,-20.07 -5.39,-23.93 -3.6,-3.85 -10.7,-5.49 -21.39,-4.78 -10.89,0.72 -18.19,3.3 -21.78,7.63 -3.6,4.33 -5.4,12.55 -5.4,24.64l0 229.24c0,12.29 1.8,20.37 5.4,24.13 3.59,3.76 10.89,5.28 21.78,4.56 10.69,-0.71 17.79,-3.17 21.39,-7.41 3.59,-4.23 5.39,-12.55 5.39,-24.84zm103.73 -21.14c0,29.88 -1.7,51.28 -4.99,64.29 -3.3,13.01 -9.1,24.18 -17.29,33.52 -8.8,10.18 -19.79,17.59 -33.08,22.27 -13.19,4.67 -38.27,8.23 -75.25,10.67 -37.07,2.44 -62.26,2.21 -75.45,-0.72 -13.29,-2.93 -24.38,-8.88 -33.17,-17.9 -8.2,-8.45 -13.99,-19.16 -17.49,-32.12 -3.5,-12.96 -5.3,-33.83 -5.3,-62.71l0 -200.96c0,-28.88 1.7,-49.98 5.1,-63.3 3.4,-13.31 9.39,-24.7 17.69,-34.24 8.99,-10.39 20.88,-17.97 35.57,-22.83 14.79,-4.88 39.18,-8.49 73.05,-10.72 33.78,-2.23 57.96,-1.83 72.45,1.11 14.59,2.93 26.38,8.95 35.38,18.15 8.29,8.45 14.29,19.05 17.69,31.91 3.39,12.87 5.09,33.74 5.09,62.62l0 200.96z"/>
  <path id="_10" class="fil4" d="M29800.84 -7056.55l0 -43.87c0,-12.29 -1.7,-20.38 -5,-24.16 -3.3,-3.77 -9.99,-5.33 -20.19,-4.66 -9.99,0.66 -16.48,3.09 -19.78,7.2 -3.2,4.11 -4.8,12.41 -4.8,24.9l0 229.24c0,12.49 1.6,20.59 4.8,24.27 3.3,3.68 9.79,5.25 19.78,4.59 10.2,-0.67 16.89,-3.11 20.19,-7.33 3.3,-4.21 5,-12.52 5,-24.81l0 -59.46 92.33 -6.1 0 45.07c0,29.38 -1.5,50.57 -4.49,63.76 -3.1,13.19 -8.2,24.52 -15.39,33.99 -7.6,10.1 -17.39,17.43 -29.38,22.02 -12.09,4.6 -33.98,7.95 -65.76,10.05 -37.07,2.44 -62.26,2.2 -75.55,-0.72 -13.19,-2.93 -24.28,-8.89 -33.07,-17.91 -8.2,-8.44 -13.99,-19.15 -17.49,-32.11 -3.5,-12.96 -5.3,-33.83 -5.3,-62.81l0 -200.86c0,-28.88 1.7,-49.98 5.1,-63.3 3.4,-13.31 9.29,-24.69 17.69,-34.25 8.99,-10.38 20.88,-17.96 35.57,-22.82 14.79,-4.88 39.08,-8.48 73.05,-10.72 29.08,-1.92 50.17,-1.42 63.36,1.51 13.19,2.92 23.58,8.94 31.18,18.02 7.39,8.52 12.69,19.36 15.79,32.54 3.09,13.09 4.69,34.07 4.69,62.75l0 29.88 -92.33 6.1z"/>
  <path id="_11" class="fil4" d="M30060.96 -6965.2l45.97 -3.04 -22.19 -203.59 -23.78 206.63zm-122.42 187.36l64.76 -438.98 161.99 -10.69 66.45 430.32 -103.73 6.84 -11.99 -105.94 -64.15 4.24 -12 107.52 -101.33 6.69z"/>
  <path id="_12" class="fil4" d="M30324.68 -6939.44l0 -42.47c0,-15.99 2,-28.81 5.9,-38.16 3.9,-9.46 10.59,-17.89 19.98,-25.41l4.9 -4.11c20.79,-16.56 33.78,-27.82 39.27,-33.67 3.1,-3.51 5.3,-7.55 6.6,-12.23 1.3,-4.68 1.9,-12.22 1.9,-22.61l0 -29.68c0,-12.09 -1.7,-20.07 -5.1,-24.05 -3.4,-3.97 -10.09,-5.63 -20.08,-4.97 -9.8,0.64 -16.29,3.07 -19.59,7.39 -3.3,4.32 -5,12.62 -5,24.91l0 34.68 -92.33 6.1 0 -13.09c0,-48.27 8.29,-81.3 24.78,-99.08 16.49,-17.77 48.77,-28.2 96.73,-31.37 45.97,-3.03 77.45,1.59 94.54,13.95 17.09,12.37 25.58,36.69 25.58,72.77l0 45.57c0,23.18 -2.9,40.66 -8.59,52.42 -5.8,11.68 -16.49,23.37 -32.08,34.9 -2.7,1.98 -6.7,4.73 -11.99,8.38 -20.89,13.97 -31.28,29.05 -31.28,45.44l0 28.18 -94.14 6.21zm0.6 136.07l0 -95.93 93.54 -6.17 0 95.93 -93.54 6.17z"/>
  <polygon class="fil4" points="27291.28,-7235.79 27149.28,-7058.06 27084.79,-7053.8 27174.24,-7228.06 "/>
  <g id="_2197637669360">
   <path class="fil0" d="M14051.53 11778.9l0 484.57 -397.54 21.13 0 -1705.41 399.89 -21.26c244.25,-12.98 406.16,9.77 485.75,67.88 79.19,58.12 118.79,170.5 118.79,337.52l0 345.39c0,163.88 -38.81,280.02 -116.05,348.04 -77.62,68.02 -219.15,107.69 -425.37,118.66l-65.47 3.48zm207 -446.58l0 -361.47c0,-47.43 -8.23,-79.14 -24.31,-95.53 -16.07,-16.4 -47.43,-23.36 -94.09,-20.88l-88.6 4.71 0 606.89 88.6 -4.71c46.66,-2.48 78.02,-12.77 94.09,-30.87 16.08,-18.11 24.31,-50.7 24.31,-98.14z"/>
   <path id="_1_2" class="fil0" d="M15268.44 11878.48l0 -128.6c0,-26.26 -7.45,-45.86 -22.35,-59.57 -15.29,-13.7 -36.07,-20.04 -62.73,-18.63 -27.05,1.44 -47.83,10 -62.33,25.28 -14.51,15.27 -21.96,35.66 -21.96,61.92l0 128.6c0,26.66 7.45,47.04 21.96,60.39 14.5,13.34 35.28,19.29 62.33,17.85 26.66,-1.41 47.44,-9.58 62.73,-24.5 14.9,-14.91 22.35,-36.08 22.35,-62.74zm18.42 319.32l0 -96.44c-26.26,43.74 -59.2,75.68 -98.79,95.81 -39.99,20.16 -93.31,32.01 -159.96,35.56 -101.15,5.37 -171.72,-14.79 -212.1,-60.08 -40.38,-45.29 -60.37,-129.3 -60.37,-252.02l0 -145.84c0,-100.36 23.13,-175.69 69,-226.35 45.87,-50.27 117.61,-78 214.84,-83.17 42.34,-2.25 83.12,1.46 121.93,11.56 39.2,9.68 74.88,25.03 107.03,46.45l0 -178.38c0,-48.62 -5.49,-80.47 -16.86,-95.55 -10.98,-15.1 -33.72,-21.73 -68.22,-19.9 -33.32,1.77 -54.88,10.76 -65.86,27.02 -10.59,16.26 -16.08,48.69 -16.08,97.31l-308.15 16.38 0 -87.04c0,-110.16 26.66,-186.46 80.37,-229.3 53.72,-42.46 164.27,-68.33 332.07,-77.24 166.62,-8.86 276.79,5.27 330.5,42.02 53.71,37.13 80.37,110.6 80.37,220.76l0 940.92 -329.72 17.52z"/>
   <path id="_2_3" class="fil0" d="M16190.14 11312.77l0 472.81c0,49 5.88,80.84 17.64,95.5 11.76,14.66 34.9,21.27 69.4,19.44 33.71,-1.79 56.06,-10.82 67.43,-26.71 11.37,-15.9 17.25,-48.36 17.25,-97.36l0 -472.81c0,-49.01 -5.88,-80.85 -17.25,-95.92 -11.37,-15.08 -33.72,-21.73 -67.43,-19.94 -34.5,1.83 -57.64,10.9 -69.4,27.6 -11.76,16.71 -17.64,49.16 -17.64,97.39zm-13.72 837.75l-334.42 17.77 0 -1735.99 348.14 -18.5 0 654.33c28.23,-50.51 64.3,-88.89 107.42,-114.31 43.13,-25.81 96.05,-40.39 159.17,-43.74 96.45,-5.13 164.66,20.25 204.65,76.54 40.38,55.88 60.38,156.36 60.38,300.24l0 464.97c0,145.45 -19.6,248.03 -58.42,307.72 -39.2,59.72 -105.85,91.88 -199.94,96.88 -61.94,3.29 -114.87,-7.22 -159.17,-31.14 -43.91,-24.32 -86.65,-66.74 -127.81,-127.67l0 152.9z"/>
   <polygon id="_3_4" class="fil0" points="17283.56,12091.67 16933.07,12110.3 16933.07,10374.31 17283.56,10355.68 "/>
   <path id="_4_5" class="fil0" d="M17834.39 11225.37l0 472.81c0,47.43 6.66,78.83 19.6,94.22 12.94,15.39 39.2,22.22 79.19,20.1 38.42,-2.05 63.91,-11.63 76.84,-28.4 12.94,-16.76 19.61,-48.87 19.61,-96.3l0 -472.81c0,-48.23 -6.28,-80.04 -18.82,-95.45 -12.94,-15.38 -38.42,-21.87 -77.63,-19.78 -39.2,2.08 -65.47,11.71 -78.8,28.88 -13.33,17.17 -19.99,49.29 -19.99,96.73zm-357.55 106.42c0,-185.44 31.36,-312.94 94.09,-382.15 63.12,-69.21 183.87,-108.56 362.25,-118.04 177.99,-9.47 298.35,17.07 361.47,79.57 63.12,62.52 94.88,186.67 94.88,372.11l0 298.35c0,183.87 -31.37,310.21 -94.1,379.02 -63.11,68.82 -183.87,108.17 -362.25,117.66 -178.38,9.48 -299.13,-16.64 -362.25,-78.37 -62.73,-61.74 -94.09,-185.14 -94.09,-369.8l0 -298.35z"/>
   <path class="fil5" d="M9900.95 11581.19l0 280.32c0,25.87 3.92,43.31 12.15,51.49 7.85,8.61 23.53,12.08 46.66,10.85 22.34,-1.18 37.24,-6.29 45.08,-14.94 7.45,-9.02 11.37,-26.87 11.37,-53.53l0 -1362.37 399.89 -21.25 0 1277.29c0,174.07 -31.75,293.76 -94.87,360.24 -63.12,66.08 -178.39,103.57 -345.4,112.45 -161.13,8.56 -272.08,-12.2 -333.24,-62.27 -61.55,-49.65 -92.13,-149.17 -92.13,-297.76l0 -261.89 350.49 -18.63z"/>
   <path id="_1_6" class="fil5" d="M11517.36 10914.26l0 1204.37 -327.36 17.4 0 -152.9c-34.5,64.17 -74.49,110.99 -119.96,140.07 -45.48,29.46 -102.72,45.84 -171.72,49.5 -94.09,5 -159.96,-17.36 -197.59,-66.72 -37.25,-49.38 -56.07,-144.83 -56.07,-286.75l0 -858.58 350.49 -18.63 0 840.16c0,42.73 6.28,71.4 18.43,86.05 12.15,14.64 34.11,21.31 66.26,19.6 32.93,-1.75 55.67,-10.79 68.21,-27.14 12.55,-16.35 18.82,-45.69 18.82,-87.64l0 -840.16 350.49 -18.63z"/>
   <path id="_2_7" class="fil5" d="M12216 11761.19l0 -128.6c0,-26.26 -7.45,-45.86 -22.35,-59.57 -15.29,-13.7 -36.07,-20.04 -62.73,-18.63 -27.05,1.44 -47.83,10 -62.33,25.28 -14.51,15.27 -21.96,35.66 -21.96,61.92l0 128.6c0,26.66 7.45,47.04 21.96,60.39 14.5,13.34 35.28,19.29 62.33,17.85 26.66,-1.41 47.44,-9.58 62.73,-24.5 14.9,-14.91 22.35,-36.08 22.35,-62.74zm18.42 319.32l0 -96.44c-26.26,43.74 -59.2,75.68 -98.79,95.81 -39.99,20.16 -93.31,32.01 -159.96,35.56 -101.15,5.37 -171.72,-14.79 -212.1,-60.08 -40.38,-45.29 -60.37,-129.3 -60.37,-252.02l0 -145.84c0,-100.36 23.13,-175.69 69,-226.35 45.87,-50.27 117.61,-78 214.84,-83.17 42.34,-2.25 83.12,1.46 121.93,11.56 39.2,9.68 74.88,25.03 107.03,46.45l0 -178.38c0,-48.62 -5.49,-80.47 -16.86,-95.55 -10.98,-15.1 -33.72,-21.73 -68.22,-19.9 -33.32,1.78 -54.88,10.76 -65.86,27.03 -10.59,16.25 -16.08,48.68 -16.08,97.3l-308.15 16.38 0 -87.04c0,-110.16 26.66,-186.46 80.37,-229.3 53.72,-42.46 164.27,-68.32 332.07,-77.24 166.62,-8.86 276.79,5.27 330.5,42.02 53.71,37.13 80.37,110.6 80.37,220.76l0 940.92 -329.72 17.52z"/>
   <path id="_3_8" class="fil5" d="M12782.51 12051.38l0 -1204.37 325 -17.28 0 155.64c35.29,-64.6 75.67,-111.83 121.15,-142.09 45.47,-29.85 102.32,-46.6 170.54,-50.22 94.09,-5 159.95,17.37 197.59,67.12 37.24,49.38 56.06,144.82 56.06,285.57l0 859.37 -348.14 18.5 0 -840.16c0,-42.73 -6.27,-71.41 -18.81,-86.03 -12.55,-14.62 -35.29,-21.26 -68.22,-19.51 -32.93,1.75 -55.67,10.81 -68.22,26.76 -12.54,15.96 -18.82,45.3 -18.82,88.03l0 840.16 -348.13 18.51z"/>
   <path class="fil0" d="M11341.47 9383.64c13.69,13.68 15.4,28.64 5.13,44.89 -10.26,16.25 -24.79,23.52 -43.61,21.81 -30.78,-11.98 -67.98,-23.52 -111.59,-34.64 -43.61,-11.11 -89.36,-19.66 -137.25,-25.65 -47.88,-5.99 -95.77,-8.12 -143.66,-6.41 -47.89,1.71 -92.78,8.98 -134.68,21.8 -41.9,12.83 -78.24,32.92 -109.03,60.29 -30.78,27.36 -52.16,63.28 -64.13,107.74 -15.4,61.57 -16.68,111.6 -3.85,150.08 12.83,38.48 34.63,69.26 65.42,92.35 30.78,23.09 68.83,40.19 114.16,51.31 45.32,11.12 92.78,20.09 142.37,26.94 49.6,6.84 98.77,13.25 147.51,19.24 48.74,5.98 93.64,15.82 134.68,29.5 99.2,32.49 162.05,75.25 188.56,128.27 26.51,53.01 29.07,108.17 7.69,165.46 -21.37,57.3 -60.71,112.45 -118,165.47 -57.3,53.02 -120.57,94.92 -189.84,125.7 -69.26,30.79 -138.96,46.61 -209.08,47.46 -70.12,0.86 -127.41,-21.8 -171.88,-67.98 -15.39,-17.1 -35.48,-40.19 -60.28,-69.27 -24.8,-29.07 -44.04,-59 -57.72,-89.78 -13.69,-30.79 -18.82,-59.44 -15.4,-85.94 3.42,-26.51 25.66,-44.9 66.7,-55.16 10.26,8.55 16.68,17.96 19.24,28.22 2.57,10.26 4.28,21.38 5.13,33.35 0.86,11.97 1.71,25.23 2.57,39.76 0.85,14.54 4.7,30.36 11.54,47.46 11.98,29.08 32.07,55.16 60.29,78.25 28.22,23.08 57.72,38.9 88.51,47.46 37.62,10.26 79.09,11.54 124.42,3.84 45.32,-7.69 89.78,-21.37 133.39,-41.04 43.62,-19.67 83.81,-44.04 120.58,-73.12 36.77,-29.07 65.41,-60.71 85.94,-94.91 29.07,-49.6 41.9,-91.08 38.48,-124.42 -3.42,-33.35 -17.96,-60.29 -43.61,-80.81 -25.66,-20.53 -59.01,-36.77 -100.05,-48.75 -41.05,-11.97 -84.66,-21.8 -130.84,-29.5 -46.17,-7.69 -92.35,-14.11 -138.53,-19.24 -46.17,-5.13 -86.36,-12.82 -120.57,-23.09 -59.86,-17.1 -109.46,-34.2 -148.79,-51.3 -39.34,-17.11 -69.27,-39.34 -89.79,-66.7 -20.52,-27.37 -32.49,-62 -35.91,-103.9 -3.42,-41.9 0.85,-96.2 12.82,-162.9 23.95,-83.8 67.99,-144.95 132.12,-183.43 64.13,-38.48 135.96,-61.56 215.49,-69.26 79.53,-7.7 160.34,-3.85 242.43,11.54 82.09,15.4 153.07,35.06 212.92,59.01z"/>
   <path id="_1_9" class="fil0" d="M11567.23 10104.51c13.68,-3.42 31.64,-4.28 53.87,-2.57 22.23,1.71 44.89,5.13 67.98,10.26 23.09,5.13 44.9,11.97 65.42,20.52 20.52,8.56 35.91,18.82 46.18,30.79 37.62,49.6 53.44,98.77 47.45,147.51 -5.98,48.74 -24.79,90.21 -56.43,124.42 -31.64,34.2 -72.26,57.72 -121.86,70.55 -49.6,12.82 -99.19,7.26 -148.79,-16.68 -13.68,-6.84 -26.94,-12.83 -39.76,-17.96 -12.83,-5.13 -24.37,-12.82 -34.64,-23.08 -17.1,-17.11 -25.22,-44.9 -24.37,-83.38 0.86,-38.48 7.7,-76.96 20.53,-115.44 12.82,-38.48 30.35,-72.26 52.59,-101.33 22.23,-29.08 46.17,-43.61 71.83,-43.61zm128.27 92.35c-39.34,-22.23 -74.4,-25.65 -105.18,-10.26 -30.79,15.39 -55.59,35.91 -74.4,61.57 -3.42,3.42 -7.27,11.54 -11.54,24.37 -4.28,12.82 -8.56,26.51 -12.83,41.04 -4.28,14.54 -6.42,29.08 -6.42,43.61 0,14.54 4.28,25.23 12.83,32.07 29.08,25.66 59.01,41.05 89.79,46.18 30.78,5.13 59,3.85 84.66,-3.85 25.65,-7.7 47.46,-20.95 65.41,-39.76 17.96,-18.82 29.51,-39.77 34.64,-62.85 5.13,-23.09 1.71,-46.18 -10.27,-69.27 -11.97,-23.09 -34.2,-44.04 -66.69,-62.85z"/>
   <path id="_2_10" class="fil0" d="M11946.9 10081.42c6.84,-8.55 14.11,-14.54 21.8,-17.96 7.7,-3.42 14.97,-3.85 21.81,-1.28 6.84,2.56 11.54,7.27 14.11,14.11 2.56,6.84 2.14,16.24 -1.29,28.22 -18.81,29.07 -29.07,62.85 -30.78,101.33 -1.71,38.48 4.28,74.82 17.96,109.03 13.68,34.2 34.2,62.85 61.57,85.94 27.36,23.08 61.57,34.63 102.61,34.63 39.34,-1.71 71.83,-12.83 97.49,-33.35 25.65,-20.52 46.17,-45.75 61.56,-75.68 15.4,-29.93 26.51,-60.71 33.35,-92.35 6.85,-31.64 11.12,-58.58 12.83,-80.81l0 -17.96c0,-5.13 0.86,-9.41 2.57,-12.83 0,-1.71 0.42,-2.99 1.28,-3.84 0.85,-0.86 1.28,-2.14 1.28,-3.85 3.42,-3.42 5.13,-5.99 5.13,-7.7l7.7 -7.69 15.39 -7.7c11.97,-3.42 20.52,0 25.65,10.26 3.43,3.42 5.14,7.7 5.14,12.83 0,1.71 0.42,2.56 1.28,2.56 0.85,0 1.28,0.86 1.28,2.57l0 2.56c0,59.86 8.12,126.56 24.37,200.1 16.25,73.54 30.79,149.22 43.61,227.04 12.83,77.81 20.1,156.91 21.81,237.29 1.71,80.39 -12.83,158.2 -43.61,233.45 -11.97,29.08 -38.91,53.02 -80.81,71.83 -41.9,18.82 -86.37,30.36 -133.4,34.64 -47.03,4.27 -91.5,0.42 -133.4,-11.55 -41.9,-11.97 -68.84,-33.35 -80.81,-64.13 -3.42,-10.26 -2.56,-20.1 2.57,-29.5 5.13,-9.41 11.11,-16.25 17.95,-20.53 6.84,-4.27 14.11,-5.56 21.81,-3.85 7.7,1.71 14.11,8.56 19.24,20.53 32.49,10.26 66.7,18.38 102.61,24.37 35.92,5.98 69.7,5.98 101.34,0 31.64,-5.99 59,-19.24 82.09,-39.76 23.09,-20.53 38.91,-51.31 47.46,-92.36 8.55,-46.17 12.4,-94.06 11.54,-143.66 -0.85,-49.6 -5.13,-99.62 -12.83,-150.07 -7.69,-50.46 -16.67,-100.48 -26.93,-150.08 -10.26,-49.59 -20.52,-96.63 -30.79,-141.09 -22.23,53.02 -53.01,97.91 -92.35,134.68 -39.33,36.77 -88.08,52.59 -146.23,47.46 -51.3,-5.13 -94.91,-22.23 -130.83,-51.31 -35.91,-29.07 -62.85,-64.56 -80.81,-106.46 -17.96,-41.9 -26.08,-86.8 -24.37,-134.68 1.71,-47.89 15.39,-92.36 41.05,-133.4z"/>
   <path id="_3_11" class="fil6 str0" d="M11341.47 9383.64c13.69,13.68 15.4,28.64 5.13,44.89 -10.26,16.25 -24.79,23.52 -43.61,21.81 -30.78,-11.98 -67.98,-23.52 -111.59,-34.64 -43.61,-11.11 -89.36,-19.66 -137.25,-25.65 -47.88,-5.99 -95.77,-8.12 -143.66,-6.41 -47.89,1.71 -92.78,8.98 -134.68,21.8 -41.9,12.83 -78.24,32.92 -109.03,60.29 -30.78,27.36 -52.16,63.28 -64.13,107.74 -15.4,61.57 -16.68,111.6 -3.85,150.08 12.83,38.48 34.63,69.26 65.42,92.35 30.78,23.09 68.83,40.19 114.16,51.31 45.32,11.12 92.78,20.09 142.37,26.94 49.6,6.84 98.77,13.25 147.51,19.24 48.74,5.98 93.64,15.82 134.68,29.5 99.2,32.49 162.05,75.25 188.56,128.27 26.51,53.01 29.07,108.17 7.69,165.46 -21.37,57.3 -60.71,112.45 -118,165.47 -57.3,53.02 -120.57,94.92 -189.84,125.7 -69.26,30.79 -138.96,46.61 -209.08,47.46 -70.12,0.86 -127.41,-21.8 -171.88,-67.98 -15.39,-17.1 -35.48,-40.19 -60.28,-69.27 -24.8,-29.07 -44.04,-59 -57.72,-89.78 -13.69,-30.79 -18.82,-59.44 -15.4,-85.94 3.42,-26.51 25.66,-44.9 66.7,-55.16 10.26,8.55 16.68,17.96 19.24,28.22 2.57,10.26 4.28,21.38 5.13,33.35 0.86,11.97 1.71,25.23 2.57,39.76 0.85,14.54 4.7,30.36 11.54,47.46 11.98,29.08 32.07,55.16 60.29,78.25 28.22,23.08 57.72,38.9 88.51,47.46 37.62,10.26 79.09,11.54 124.42,3.84 45.32,-7.69 89.78,-21.37 133.39,-41.04 43.62,-19.67 83.81,-44.04 120.58,-73.12 36.77,-29.07 65.41,-60.71 85.94,-94.91 29.07,-49.6 41.9,-91.08 38.48,-124.42 -3.42,-33.35 -17.96,-60.29 -43.61,-80.81 -25.66,-20.53 -59.01,-36.77 -100.05,-48.75 -41.05,-11.97 -84.66,-21.8 -130.84,-29.5 -46.17,-7.69 -92.35,-14.11 -138.53,-19.24 -46.17,-5.13 -86.36,-12.82 -120.57,-23.09 -59.86,-17.1 -109.46,-34.2 -148.79,-51.3 -39.34,-17.11 -69.27,-39.34 -89.79,-66.7 -20.52,-27.37 -32.49,-62 -35.91,-103.9 -3.42,-41.9 0.85,-96.2 12.82,-162.9 23.95,-83.8 67.99,-144.95 132.12,-183.43 64.13,-38.48 135.96,-61.56 215.49,-69.26 79.53,-7.7 160.34,-3.85 242.43,11.54 82.09,15.4 153.07,35.06 212.92,59.01z"/>
   <path id="_4_12" class="fil6 str0" d="M11567.23 10104.51c13.68,-3.42 31.64,-4.28 53.87,-2.57 22.23,1.71 44.89,5.13 67.98,10.26 23.09,5.13 44.9,11.97 65.42,20.52 20.52,8.56 35.91,18.82 46.18,30.79 37.62,49.6 53.44,98.77 47.45,147.51 -5.98,48.74 -24.79,90.21 -56.43,124.42 -31.64,34.2 -72.26,57.72 -121.86,70.55 -49.6,12.82 -99.19,7.26 -148.79,-16.68 -13.68,-6.84 -26.94,-12.83 -39.76,-17.96 -12.83,-5.13 -24.37,-12.82 -34.64,-23.08 -17.1,-17.11 -25.22,-44.9 -24.37,-83.38 0.86,-38.48 7.7,-76.96 20.53,-115.44 12.82,-38.48 30.35,-72.26 52.59,-101.33 22.23,-29.08 46.17,-43.61 71.83,-43.61zm128.27 92.35c-39.34,-22.23 -74.4,-25.65 -105.18,-10.26 -30.79,15.39 -55.59,35.91 -74.4,61.57 -3.42,3.42 -7.27,11.54 -11.54,24.37 -4.28,12.82 -8.56,26.51 -12.83,41.04 -4.28,14.54 -6.42,29.08 -6.42,43.61 0,14.54 4.28,25.23 12.83,32.07 29.08,25.66 59.01,41.05 89.79,46.18 30.78,5.13 59,3.85 84.66,-3.85 25.65,-7.7 47.46,-20.95 65.41,-39.76 17.96,-18.82 29.51,-39.77 34.64,-62.85 5.13,-23.09 1.71,-46.18 -10.27,-69.27 -11.97,-23.09 -34.2,-44.04 -66.69,-62.85z"/>
   <path id="_5_13" class="fil6 str0" d="M11946.9 10081.42c6.84,-8.55 14.11,-14.54 21.8,-17.96 7.7,-3.42 14.97,-3.85 21.81,-1.28 6.84,2.56 11.54,7.27 14.11,14.11 2.56,6.84 2.14,16.24 -1.29,28.22 -18.81,29.07 -29.07,62.85 -30.78,101.33 -1.71,38.48 4.28,74.82 17.96,109.03 13.68,34.2 34.2,62.85 61.57,85.94 27.36,23.08 61.57,34.63 102.61,34.63 39.34,-1.71 71.83,-12.83 97.49,-33.35 25.65,-20.52 46.17,-45.75 61.56,-75.68 15.4,-29.93 26.51,-60.71 33.35,-92.35 6.85,-31.64 11.12,-58.58 12.83,-80.81l0 -17.96c0,-5.13 0.86,-9.41 2.57,-12.83 0,-1.71 0.42,-2.99 1.28,-3.84 0.85,-0.86 1.28,-2.14 1.28,-3.85 3.42,-3.42 5.13,-5.99 5.13,-7.7l7.7 -7.69 15.39 -7.7c11.97,-3.42 20.52,0 25.65,10.26 3.43,3.42 5.14,7.7 5.14,12.83 0,1.71 0.42,2.56 1.28,2.56 0.85,0 1.28,0.86 1.28,2.57l0 2.56c0,59.86 8.12,126.56 24.37,200.1 16.25,73.54 30.79,149.22 43.61,227.04 12.83,77.81 20.1,156.91 21.81,237.29 1.71,80.39 -12.83,158.2 -43.61,233.45 -11.97,29.08 -38.91,53.02 -80.81,71.83 -41.9,18.82 -86.37,30.36 -133.4,34.64 -47.03,4.27 -91.5,0.42 -133.4,-11.55 -41.9,-11.97 -68.84,-33.35 -80.81,-64.13 -3.42,-10.26 -2.56,-20.1 2.57,-29.5 5.13,-9.41 11.11,-16.25 17.95,-20.53 6.84,-4.27 14.11,-5.56 21.81,-3.85 7.7,1.71 14.11,8.56 19.24,20.53 32.49,10.26 66.7,18.38 102.61,24.37 35.92,5.98 69.7,5.98 101.34,0 31.64,-5.99 59,-19.24 82.09,-39.76 23.09,-20.53 38.91,-51.31 47.46,-92.36 8.55,-46.17 12.4,-94.06 11.54,-143.66 -0.85,-49.6 -5.13,-99.62 -12.83,-150.07 -7.69,-50.46 -16.67,-100.48 -26.93,-150.08 -10.26,-49.59 -20.52,-96.63 -30.79,-141.09 -22.23,53.02 -53.01,97.91 -92.35,134.68 -39.33,36.77 -88.08,52.59 -146.23,47.46 -51.3,-5.13 -94.91,-22.23 -130.83,-51.31 -35.91,-29.07 -62.85,-64.56 -80.81,-106.46 -17.96,-41.9 -26.08,-86.8 -24.37,-134.68 1.71,-47.89 15.39,-92.36 41.05,-133.4z"/>
  </g>
  <rect class="fil7" x="9380.72" y="9095.05" width="9178.56" height="3399.9"/>
 </g>
</svg>
