<?xml version="1.0" encoding="iso-8859-1"?>
<!-- Uploaded to: SVGRepo, www.svgrepo.com, Transformed by: SVGRepo Tools -->
<svg fill="#000000" height="800px" width="800px" version="1.1" id="Capa_1" xmlns="http://www.w3.org/2000/svg" xmlns:xlink="http://www.w3.org/1999/xlink" 
	 viewBox="0 0 489.182 489.182" xml:space="preserve">
<g>
	<g>
		<path d="M32.391,489.182h424.3c15.8,0,28.6-12.8,28.6-28.6v-12.2c0-2.6-0.9-5.1-2.5-7.1l-21.4-26.3c-3.5-4.2-5.3-9.5-5.3-15v-24.8
			v-15.9v-45.8l0,0v-126.9c0-23.3-18.8-42.1-42.1-42.1h-3.1h-30.9l9.4,17c4.3,7.9,5.4,16.8,3.7,25h17.9h3.1c0.1,0,0.1,0.1,0.1,0.1
			v172.9v11.1v2.9l0,0v1.9v27.1h-213.3l35.7-19.6c10.3-4.5,27.4-12.2,43.7-21.6c10.8-4.9,21.9-10.9,29.7-17.6
			c26.3-22.7,7.4-39.4,7.4-39.4c9.4-20.9-8-31-8-31c6.1-22.7-14.8-27.5-14.8-27.5s1.1-16.3-13.8-19.9c-12.6-3.1-30.2,7.8-40.3,15.2
			l-24.6-26.4l21.2-11.6l-4.7-8.5c27.1-9.6,74.1-21.7,117.7-10.2c3.1,4.9,9.7,6.4,14.7,2.9c4.3-3.1,5.3-9.1,2.7-13.8l-29-52.7
			c9.2-10.7,11.3-26.3,4.1-39.3c-7.2-13-21.5-19.6-35.4-17.6l-28.6-52.3c-2.6-4.6-8.2-7.1-13.1-5.1c-5.6,2.3-7.9,8.7-5.4,13.9
			c-13.7,43-49.1,76.1-71.8,93.9l-4.7-8.5l-56.9,31.3c-11.3,6.2-15.4,20.4-9.2,31.7l5,9.1l-6.2,3.4c-3.8,2.1-5.2,6.8-3.1,10.6
			l14.1,25.7c2.1,3.8,6.8,5.2,10.6,3.1l6.2-3.4l4.3,7.9c6.2,11.3,20.4,15.4,31.7,9.2l5.2-2.9l19.8,21.6
			c-20.7,7.9-30.7,38.4-30.7,38.4c-1.5,5.7-1.5,11.2-1,15.3c0.1,1,0.3,2,0.4,2.8c0.1,1.3-0.3,3.4-1,5.8c-1.7,5.9-5.8,10.8-11.2,13.8
			l-86.3,46.8v-5.4v-11.1v-173l0.1-0.1h5h7c0.1-2.5,0.5-5,1.2-7.4c0.8-2.6,1.8-5.1,3.2-7.4c-2.7-8.8-2.8-18.1-0.3-27.2h-11h-5
			c-23.3,0-42.1,18.9-42.1,42.1v172.9v9.2v31c0,5.5-1.9,10.8-5.3,15l-21.7,26.7c-1.6,2-2.5,4.5-2.5,7.1v12.2
			C3.891,476.382,16.691,489.182,32.391,489.182z M169.491,212.082l-29.7-54l34.1-18.7l29.7,54L169.491,212.082z M199.091,444.482
			h91.2v3.1c0,8-6.5,14.5-14.5,14.5h-62.2c-8,0-14.5-6.5-14.5-14.5V444.482z"/>
		<path d="M357.291,73.882c2.6,4.8,8.7,6.5,13.5,3.9l35.6-19.6c4.8-2.6,6.5-8.7,3.9-13.5l-0.1-0.2c-2.6-4.8-8.7-6.5-13.5-3.9
			l-35.6,19.6c-4.8,2.6-6.5,8.7-3.9,13.5L357.291,73.882z"/>
		<path d="M352.391,48.082l26.4-31.9c3.3-4,3-9.9-0.8-13.5c-4.2-3.9-10.8-3.5-14.5,0.9l-26.3,31.9c-3.3,4-3,9.9,0.8,13.5
			C342.091,52.882,348.691,52.482,352.391,48.082z"/>
		<path d="M417.391,86.482l-41.1,5.1c-5.7,0.7-9.6,6.1-8.5,11.7c1,5.1,5.8,8.6,11,7.9l41.1-5.1c5.7-0.7,9.6-6.1,8.5-11.7
			C427.291,89.282,422.491,85.782,417.391,86.482z"/>
	</g>
</g>
<g>
</g>
<g>
</g>
<g>
</g>
<g>
</g>
<g>
</g>
<g>
</g>
<g>
</g>
<g>
</g>
<g>
</g>
<g>
</g>
<g>
</g>
<g>
</g>
<g>
</g>
<g>
</g>
<g>
</g>
</svg>
